<svg xmlns="http://www.w3.org/2000/svg" width="192" height="192" viewBox="0 0 192 192" version="1.1"><path d="M 93.383 70.949 C 83.285 73.359, 73.601 81.311, 69.199 90.804 C 67.009 95.528, 66.553 97.954, 66.529 105.018 C 66.503 112.654, 66.840 114.226, 69.781 120.203 C 73.824 128.421, 80.911 135.069, 88.798 138.042 C 93.448 139.795, 96.069 140.119, 103 139.795 C 110.311 139.453, 112.385 138.925, 117.826 136.019 C 127.929 130.623, 133.822 122.485, 136.020 110.894 C 139.075 94.783, 128.193 76.920, 112.339 72.023 C 105.701 69.973, 99.050 69.596, 93.383 70.949" stroke="none" fill="#de4b7b" fill-rule="evenodd"/><path d="M 89 20.905 C 89 21.333, 90.722 22.199, 92.827 22.830 C 96.666 23.980, 108.226 30.939, 109.368 32.787 C 109.703 33.329, 108.295 32.907, 106.239 31.848 C 103.197 30.283, 101.288 30.039, 96 30.540 C 73.299 32.690, 51.896 45.241, 40.126 63.306 C 28.373 81.346, 25.365 104.948, 32.264 125 L 34.500 131.500 35 125 C 35.474 118.842, 35.542 118.696, 36.292 122.232 C 36.728 124.285, 39.168 130.128, 41.715 135.216 C 50.269 152.303, 65.835 164.697, 85 169.680 C 93.798 171.967, 108.631 171.861, 116.500 169.455 L 122.500 167.620 115.180 166.907 C 107.381 166.146, 104.359 165, 110.152 165 C 119.169 165, 132.028 159.103, 139.666 151.464 C 145.416 145.715, 146.719 142.839, 142.266 145.727 L 139.533 147.500 141.638 144.500 C 146.955 136.924, 150.107 128.667, 151.470 118.750 C 152.183 113.558, 150.964 112.377, 149.407 116.750 C 148.653 118.868, 148.519 117.844, 148.824 112.293 C 149.122 106.876, 148.681 103.310, 147.050 97.937 C 144.701 90.204, 143.299 88.994, 144.941 96.118 C 149.401 115.464, 139.009 136.450, 120.421 145.637 C 114.418 148.603, 111.776 149.297, 104.846 149.728 C 69.444 151.930, 45.526 117.244, 60.549 85.488 C 69.422 66.731, 92.204 56.076, 111.668 61.578 C 113.388 62.064, 113.925 61.706, 114.269 59.845 C 114.682 57.611, 114.765 57.648, 116.028 60.636 C 116.904 62.712, 118.825 64.488, 121.703 65.886 C 126.582 68.257, 127.393 68.445, 126.500 67 C 126.160 66.450, 126.123 66, 126.418 66 C 127.925 66, 134.997 76.435, 134.516 77.950 C 134.167 79.050, 134.777 80.078, 136.246 80.864 C 137.494 81.532, 139.582 83.636, 140.886 85.539 C 142.191 87.443, 143.769 89, 144.394 89 C 145.018 89, 147.219 89.906, 149.284 91.012 L 153.039 93.025 156.205 89.420 C 159.613 85.538, 163.330 76.277, 161.698 75.733 C 160.118 75.206, 157.116 66.811, 157.056 62.750 C 156.997 58.831, 155.552 57.927, 153.058 60.250 C 152.320 60.938, 152.552 60.038, 153.574 58.250 C 154.595 56.462, 155.784 55, 156.216 55 C 158.227 55, 156.658 51.840, 153.622 49.777 C 151.764 48.514, 148.620 45.537, 146.635 43.161 C 139.045 34.077, 128.665 27.326, 117.869 24.453 C 108.971 22.084, 108.102 22.836, 115.500 26.503 C 123.308 30.373, 131.490 36.698, 127 35.393 C 125.625 34.993, 123.780 34.605, 122.900 34.530 C 122.019 34.455, 118.761 32.709, 115.660 30.650 C 112.558 28.591, 108.494 26.269, 106.630 25.490 C 101.225 23.232, 89 20.053, 89 20.905 M 132.583 55.643 C 132.237 56.547, 132.076 57.362, 132.226 57.454 C 132.377 57.547, 134.450 58.361, 136.833 59.263 C 140.904 60.805, 141.088 60.801, 139.876 59.202 C 138.299 57.120, 134.734 54.053, 133.857 54.022 C 133.503 54.010, 132.930 54.739, 132.583 55.643" stroke="none" fill="#3c2464" fill-rule="evenodd"/></svg>