<svg xmlns="http://www.w3.org/2000/svg" viewBox="0 0 64 64" id="schedule"><polygon fill="#fff" points="18.79 51.5 9.5 42.21 9.5 16.5 54.5 16.5 54.5 51.5 18.79 51.5"></polygon><rect width="45" height="6" x="9.5" y="13.5" fill="#ff1524" rx="2.31" ry="2.31"></rect><rect width="6" height="5" x="12.5" y="23.5" fill="#ffd184" rx="1.5" ry="1.5"></rect><rect width="6" height="5" x="23.5" y="23.5" fill="#ffd184" rx="1.5" ry="1.5"></rect><rect width="6" height="5" x="34.5" y="23.5" fill="#ffd184" rx="1.5" ry="1.5"></rect><rect width="6" height="5" x="45.5" y="23.5" fill="#ffd184" rx="1.5" ry="1.5"></rect><rect width="6" height="5" x="12.5" y="32.5" fill="#ffd184" rx="1.5" ry="1.5"></rect><rect width="6" height="5" x="23.5" y="32.5" fill="#ffd184" rx="1.5" ry="1.5"></rect><rect width="6" height="5" x="34.5" y="32.5" fill="#ffd184" rx="1.5" ry="1.5"></rect><rect width="6" height="5" x="45.5" y="32.5" fill="#ffd184" rx="1.5" ry="1.5"></rect><rect width="6" height="5" x="23.5" y="41.5" fill="#ffd184" rx="1.5" ry="1.5"></rect><rect width="6" height="5" x="34.5" y="41.5" fill="#ffd184" rx="1.5" ry="1.5"></rect><rect width="6" height="5" x="45.5" y="41.5" fill="#ffd184" rx="1.5" ry="1.5"></rect><path fill="#b5aeb5" d="M9.92,41.5h9.58v9.58c0,.42-.5,.63-.8,.33l-9.11-9.11c-.29-.29-.09-.8,.33-.8Z"></path><path fill="#fcff45" d="M20 15.5c-.83 0-1.5-.67-1.5-1.5v-2c0-.83.67-1.5 1.5-1.5s1.5.67 1.5 1.5v2c0 .83-.67 1.5-1.5 1.5zM44 15.5c-.83 0-1.5-.67-1.5-1.5v-2c0-.83.67-1.5 1.5-1.5s1.5.67 1.5 1.5v2c0 .83-.67 1.5-1.5 1.5z"></path><g><path d="M52.19,13h-6.19v-1c0-1.1-.9-2-2-2s-2,.9-2,2v1H22v-1c0-1.1-.9-2-2-2s-2,.9-2,2v1h-6.19c-1.55,0-2.81,1.26-2.81,2.81v26.19c0,.08,.01,.17,.03,.24,.04,.18,.13,.34,.26,.47l9,9c.13,.13,.29,.22,.47,.26,.08,.02,.16,.03,.24,.03H54c.55,0,1-.45,1-1V15.81c0-1.55-1.26-2.81-2.81-2.81Zm-9.19-1c0-.55,.45-1,1-1s1,.45,1,1v2c0,.55-.45,1-1,1s-1-.45-1-1v-2Zm-24,0c0-.55,.45-1,1-1s1,.45,1,1v2c0,.55-.45,1-1,1s-1-.45-1-1v-2Zm-9,3.81c0-1,.81-1.81,1.81-1.81h6.19c0,1.1,.9,2,2,2s2-.9,2-2h20c0,1.1,.9,2,2,2s2-.9,2-2h6.19c1,0,1.81,.81,1.81,1.81v1.38c0,1-.81,1.81-1.81,1.81H11.81c-1,0-1.81-.81-1.81-1.81v-1.38Zm0,26.19h9v9l-9-9Zm44,9H20v-9c0-.55-.45-1-1-1H10V19.34c.49,.41,1.13,.66,1.81,.66H52.19c.68,0,1.32-.25,1.81-.66v31.66Z"></path><path d="M17 23h-3c-1.1 0-2 .9-2 2v2c0 1.1.9 2 2 2h3c1.1 0 2-.9 2-2v-2c0-1.1-.9-2-2-2zm1 4c0 .55-.45 1-1 1h-3c-.55 0-1-.45-1-1v-2c0-.55.45-1 1-1h3c.55 0 1 .45 1 1v2zM28 23h-3c-1.1 0-2 .9-2 2v2c0 1.1.9 2 2 2h3c1.1 0 2-.9 2-2v-2c0-1.1-.9-2-2-2zm1 4c0 .55-.45 1-1 1h-3c-.55 0-1-.45-1-1v-2c0-.55.45-1 1-1h3c.55 0 1 .45 1 1v2zM39 23h-3c-1.1 0-2 .9-2 2v2c0 1.1.9 2 2 2h3c1.1 0 2-.9 2-2v-2c0-1.1-.9-2-2-2zm1 4c0 .55-.45 1-1 1h-3c-.55 0-1-.45-1-1v-2c0-.55.45-1 1-1h3c.55 0 1 .45 1 1v2zM50 23h-3c-1.1 0-2 .9-2 2v2c0 1.1.9 2 2 2h3c1.1 0 2-.9 2-2v-2c0-1.1-.9-2-2-2zm1 4c0 .55-.45 1-1 1h-3c-.55 0-1-.45-1-1v-2c0-.55.45-1 1-1h3c.55 0 1 .45 1 1v2zM17 32h-3c-1.1 0-2 .9-2 2v2c0 1.1.9 2 2 2h3c1.1 0 2-.9 2-2v-2c0-1.1-.9-2-2-2zm1 4c0 .55-.45 1-1 1h-3c-.55 0-1-.45-1-1v-2c0-.55.45-1 1-1h3c.55 0 1 .45 1 1v2zM28 32h-3c-1.1 0-2 .9-2 2v2c0 1.1.9 2 2 2h3c1.1 0 2-.9 2-2v-2c0-1.1-.9-2-2-2zm1 4c0 .55-.45 1-1 1h-3c-.55 0-1-.45-1-1v-2c0-.55.45-1 1-1h3c.55 0 1 .45 1 1v2zM40 35.09v.91c0 .55-.45 1-1 1h-3c-.55 0-1-.45-1-1v-2c0-.55.45-1 1-1h1.34c1.03 0 1.04-1 .22-1h-1.56c-1.1 0-2 .9-2 2v2c0 1.1.9 2 2 2h3c1.1 0 2-.9 2-2v-1.49c0-.62-1.04-.72-1 .58zM50 32h-3c-1.1 0-2 .9-2 2v2c0 1.1.9 2 2 2h3c1.1 0 2-.9 2-2v-2c0-1.1-.9-2-2-2zm1 4c0 .55-.45 1-1 1h-3c-.55 0-1-.45-1-1v-2c0-.55.45-1 1-1h3c.55 0 1 .45 1 1v2zM28 41h-3c-1.1 0-2 .9-2 2v2c0 1.1.9 2 2 2h3c1.1 0 2-.9 2-2v-2c0-1.1-.9-2-2-2zm1 4c0 .55-.45 1-1 1h-3c-.55 0-1-.45-1-1v-2c0-.55.45-1 1-1h3c.55 0 1 .45 1 1v2zM39 41h-3c-1.1 0-2 .9-2 2v2c0 1.1.9 2 2 2h3c1.1 0 2-.9 2-2v-2c0-1.1-.9-2-2-2zm1 4c0 .55-.45 1-1 1h-3c-.55 0-1-.45-1-1v-2c0-.55.45-1 1-1h3c.55 0 1 .45 1 1v2zM50 41h-3c-1.1 0-2 .9-2 2v2c0 1.1.9 2 2 2h3c1.1 0 2-.9 2-2v-2c0-1.1-.9-2-2-2zm1 4c0 .55-.45 1-1 1h-3c-.55 0-1-.45-1-1v-2c0-.55.45-1 1-1h3c.55 0 1 .45 1 1v2z"></path><path fill="#ff1524" d="M36.95,33.65c-.12-.25-.42-.35-.67-.22-.25,.12-.35,.42-.22,.67l1,2c.08,.16,.23,.26,.4,.27,.01,0,.03,0,.04,0,.16,0,.3-.07,.4-.2l3-4c.17-.22,.12-.53-.1-.7-.22-.17-.53-.12-.7,.1l-2.51,3.35-.64-1.28Z"></path></g></svg>