<svg xmlns="http://www.w3.org/2000/svg" width="600" height="600" viewBox="0 0 600 600" version="1.1"><path d="M 279.450 66.461 C 268.131 68.517, 261.160 70.827, 250.500 76.052 C 202.125 99.762, 162.005 165.493, 147.074 245.500 C 137.384 297.423, 139.538 353.070, 153.046 399.818 C 173.548 470.772, 220.047 519.155, 278.790 530.656 C 290.810 533.009, 312.179 533.065, 321.621 530.767 C 378.822 516.850, 423.671 470.890, 445.005 404.331 C 462.568 349.537, 466.862 277.561, 455.942 221 C 440.831 142.722, 395.324 86.226, 334.295 69.976 C 316.862 65.333, 293.794 63.855, 279.450 66.461 M 284.500 108.022 C 266.628 111.609, 251.652 124.593, 241.182 145.577 C 225.946 176.112, 218.983 224.497, 220.326 290.500 C 221.162 331.598, 223.982 360.302, 230.059 389.591 C 239.675 435.935, 255.914 468.134, 277.403 483.468 C 289.489 492.092, 302.233 494.738, 316.781 491.643 C 347.951 485.013, 368.488 453.939, 377.392 399.935 C 380.990 378.116, 382.027 365.318, 382.692 334.500 C 384.354 257.520, 374.204 191.406, 354.749 152.500 C 337.899 118.803, 312.116 102.479, 284.500 108.022" stroke="none" fill="#0c0404" fill-rule="evenodd"/><path d="M 265.950 1.436 C 194.444 10.508, 133.012 40.940, 83.942 91.600 C 36.917 140.150, 7.726 203.146, 1.079 270.424 C -0.284 284.226, -0.315 315.594, 1.022 329.144 C 5.898 378.566, 23.235 426.694, 51.088 468.128 C 70.927 497.641, 102.359 529.073, 131.872 548.912 C 173.245 576.724, 221.506 594.110, 270.856 598.978 C 284.175 600.292, 315.825 600.292, 329.144 598.978 C 370.737 594.875, 413.212 581.371, 448.559 561.014 C 473.403 546.705, 491.209 533.001, 512.105 512.105 C 543.914 480.295, 565.835 446.463, 581.313 405.289 C 589.799 382.713, 597.095 351.620, 598.649 331.406 C 599.007 326.746, 599.683 322.696, 600.150 322.407 C 600.618 322.118, 601 311.532, 601 298.882 C 601 286.232, 600.615 276.120, 600.145 276.410 C 599.675 276.701, 598.999 273.154, 598.644 268.529 C 598.288 263.904, 596.862 253.905, 595.475 246.310 C 576.479 142.309, 504.539 56.133, 405.500 18.743 C 385.750 11.287, 366.261 6.288, 342 2.457 C 327.688 0.197, 280.691 -0.434, 265.950 1.436 M 279.450 66.461 C 268.131 68.517, 261.160 70.827, 250.500 76.052 C 202.125 99.762, 162.005 165.493, 147.074 245.500 C 137.384 297.423, 139.538 353.070, 153.046 399.818 C 173.548 470.772, 220.047 519.155, 278.790 530.656 C 290.810 533.009, 312.179 533.065, 321.621 530.767 C 378.822 516.850, 423.671 470.890, 445.005 404.331 C 462.568 349.537, 466.862 277.561, 455.942 221 C 440.831 142.722, 395.324 86.226, 334.295 69.976 C 316.862 65.333, 293.794 63.855, 279.450 66.461 M 284.500 108.022 C 266.628 111.609, 251.652 124.593, 241.182 145.577 C 225.946 176.112, 218.983 224.497, 220.326 290.500 C 221.162 331.598, 223.982 360.302, 230.059 389.591 C 239.675 435.935, 255.914 468.134, 277.403 483.468 C 289.489 492.092, 302.233 494.738, 316.781 491.643 C 347.951 485.013, 368.488 453.939, 377.392 399.935 C 380.990 378.116, 382.027 365.318, 382.692 334.500 C 384.354 257.520, 374.204 191.406, 354.749 152.500 C 337.899 118.803, 312.116 102.479, 284.500 108.022 M 0.430 300 C 0.430 312.925, 0.573 318.212, 0.747 311.750 C 0.921 305.288, 0.921 294.712, 0.747 288.250 C 0.573 281.788, 0.430 287.075, 0.430 300" stroke="none" fill="#cbc3c3" fill-rule="evenodd"/></svg>