<svg xmlns="http://www.w3.org/2000/svg" width="600" height="600" viewBox="0 0 600 600" version="1.1"><path d="M 296.500 53.480 C 287.612 55.437, 281.184 58.213, 264 67.518 C 235.289 83.065, 229.095 85, 208.053 85 L 195 85 195 110.411 L 195 135.822 215.250 136.259 C 226.591 136.504, 237.092 137.208, 239.118 137.859 C 248.364 140.829, 254.593 148.341, 257.624 160.174 C 259.414 167.163, 259.500 173.756, 259.500 303.500 L 259.500 439.500 257.292 446.500 C 253.185 459.518, 246.893 466.460, 235.500 470.544 C 231.591 471.945, 226.410 472.432, 211.750 472.776 L 193 473.216 193 498.108 L 193 523 302 523 L 411 523 411 498.112 L 411 473.223 393.250 472.778 C 378.018 472.396, 374.699 472.021, 369.853 470.133 C 358.232 465.606, 351.064 455.890, 348.423 441.084 C 347.318 434.889, 347.063 398.565, 347.035 242.750 L 347 52 324.750 52.079 C 310.295 52.131, 300.398 52.622, 296.500 53.480" stroke="none" fill="#0c0404" fill-rule="evenodd"/><path d="M 265.950 1.436 C 194.444 10.508, 133.012 40.940, 83.942 91.600 C 36.917 140.150, 7.726 203.146, 1.079 270.424 C -0.284 284.226, -0.315 315.594, 1.022 329.144 C 5.898 378.566, 23.235 426.694, 51.088 468.128 C 70.927 497.641, 102.359 529.073, 131.872 548.912 C 173.245 576.724, 221.506 594.110, 270.856 598.978 C 284.175 600.292, 315.825 600.292, 329.144 598.978 C 370.737 594.875, 413.212 581.371, 448.559 561.014 C 473.403 546.705, 491.209 533.001, 512.105 512.105 C 543.914 480.295, 565.835 446.463, 581.313 405.289 C 589.799 382.713, 597.095 351.620, 598.649 331.406 C 599.007 326.746, 599.683 322.696, 600.150 322.407 C 600.618 322.118, 601 311.532, 601 298.882 C 601 286.232, 600.615 276.120, 600.145 276.410 C 599.675 276.701, 598.999 273.154, 598.644 268.529 C 598.288 263.904, 596.862 253.905, 595.475 246.310 C 576.479 142.309, 504.539 56.133, 405.500 18.743 C 385.750 11.287, 366.261 6.288, 342 2.457 C 327.688 0.197, 280.691 -0.434, 265.950 1.436 M 296.500 53.480 C 287.612 55.437, 281.184 58.213, 264 67.518 C 235.289 83.065, 229.095 85, 208.053 85 L 195 85 195 110.411 L 195 135.822 215.250 136.259 C 226.591 136.504, 237.092 137.208, 239.118 137.859 C 248.364 140.829, 254.593 148.341, 257.624 160.174 C 259.414 167.163, 259.500 173.756, 259.500 303.500 L 259.500 439.500 257.292 446.500 C 253.185 459.518, 246.893 466.460, 235.500 470.544 C 231.591 471.945, 226.410 472.432, 211.750 472.776 L 193 473.216 193 498.108 L 193 523 302 523 L 411 523 411 498.112 L 411 473.223 393.250 472.778 C 378.018 472.396, 374.699 472.021, 369.853 470.133 C 358.232 465.606, 351.064 455.890, 348.423 441.084 C 347.318 434.889, 347.063 398.565, 347.035 242.750 L 347 52 324.750 52.079 C 310.295 52.131, 300.398 52.622, 296.500 53.480 M 0.430 300 C 0.430 312.925, 0.573 318.212, 0.747 311.750 C 0.921 305.288, 0.921 294.712, 0.747 288.250 C 0.573 281.788, 0.430 287.075, 0.430 300" stroke="none" fill="#cbc3c3" fill-rule="evenodd"/></svg>