<svg xmlns="http://www.w3.org/2000/svg" width="600" height="600" viewBox="0 0 600 600" version="1.1"><path d="M 299 66.538 C 254.554 73.565, 216.053 102.044, 187.389 149.094 C 177.169 165.870, 159.469 203.735, 157.842 212.303 C 157.563 213.773, 160.831 215.563, 175.500 221.980 C 188.335 227.594, 193.727 229.515, 194.290 228.676 C 194.724 228.029, 198.243 221.650, 202.109 214.500 C 236.285 151.291, 278.048 120.171, 317.500 128.515 C 331.686 131.516, 348.774 141.902, 357.468 152.809 C 363.435 160.295, 369.350 171.758, 372.030 181.027 C 374.978 191.228, 375.869 215.811, 373.730 228 C 370.700 245.275, 361.772 262.573, 343.039 287.465 C 315.283 324.348, 279.921 362.920, 201.678 441.661 L 154.814 488.822 155.541 505.411 L 156.267 522 298.606 522 L 440.944 522 442.622 516.250 C 464.296 441.970, 476.775 398.441, 476.480 398.147 C 476.277 397.944, 467.353 398.106, 456.650 398.507 L 437.189 399.237 433.950 408.368 C 427.108 427.656, 419.278 440.046, 410.284 445.818 C 407.558 447.567, 401.767 449.988, 397.414 451.198 C 389.696 453.343, 387.866 453.407, 323.500 453.755 C 287.200 453.951, 254.151 453.974, 250.057 453.806 L 242.615 453.500 262.057 435.449 C 272.751 425.522, 303.775 397.210, 331 372.535 C 409.986 300.946, 432.026 277.644, 444.537 252.500 C 459.175 223.082, 460.994 182.580, 449.134 150.178 C 432.936 105.930, 395.354 73.580, 351.973 66.544 C 340.232 64.640, 311.024 64.637, 299 66.538" stroke="none" fill="#0c0404" fill-rule="evenodd"/><path d="M 265.950 1.436 C 194.444 10.508, 133.012 40.940, 83.942 91.600 C 36.917 140.150, 7.726 203.146, 1.079 270.424 C -0.284 284.226, -0.315 315.594, 1.022 329.144 C 5.898 378.566, 23.235 426.694, 51.088 468.128 C 70.927 497.641, 102.359 529.073, 131.872 548.912 C 173.245 576.724, 221.506 594.110, 270.856 598.978 C 284.175 600.292, 315.825 600.292, 329.144 598.978 C 370.737 594.875, 413.212 581.371, 448.559 561.014 C 473.403 546.705, 491.209 533.001, 512.105 512.105 C 543.914 480.295, 565.835 446.463, 581.313 405.289 C 589.799 382.713, 597.095 351.620, 598.649 331.406 C 599.007 326.746, 599.683 322.696, 600.150 322.407 C 600.618 322.118, 601 311.532, 601 298.882 C 601 286.232, 600.615 276.120, 600.145 276.410 C 599.675 276.701, 598.999 273.154, 598.644 268.529 C 598.288 263.904, 596.862 253.905, 595.475 246.310 C 576.479 142.309, 504.539 56.133, 405.500 18.743 C 385.750 11.287, 366.261 6.288, 342 2.457 C 327.688 0.197, 280.691 -0.434, 265.950 1.436 M 299 66.538 C 254.554 73.565, 216.053 102.044, 187.389 149.094 C 177.169 165.870, 159.469 203.735, 157.842 212.303 C 157.563 213.773, 160.831 215.563, 175.500 221.980 C 188.335 227.594, 193.727 229.515, 194.290 228.676 C 194.724 228.029, 198.243 221.650, 202.109 214.500 C 236.285 151.291, 278.048 120.171, 317.500 128.515 C 331.686 131.516, 348.774 141.902, 357.468 152.809 C 363.435 160.295, 369.350 171.758, 372.030 181.027 C 374.978 191.228, 375.869 215.811, 373.730 228 C 370.700 245.275, 361.772 262.573, 343.039 287.465 C 315.283 324.348, 279.921 362.920, 201.678 441.661 L 154.814 488.822 155.541 505.411 L 156.267 522 298.606 522 L 440.944 522 442.622 516.250 C 464.296 441.970, 476.775 398.441, 476.480 398.147 C 476.277 397.944, 467.353 398.106, 456.650 398.507 L 437.189 399.237 433.950 408.368 C 427.108 427.656, 419.278 440.046, 410.284 445.818 C 407.558 447.567, 401.767 449.988, 397.414 451.198 C 389.696 453.343, 387.866 453.407, 323.500 453.755 C 287.200 453.951, 254.151 453.974, 250.057 453.806 L 242.615 453.500 262.057 435.449 C 272.751 425.522, 303.775 397.210, 331 372.535 C 409.986 300.946, 432.026 277.644, 444.537 252.500 C 459.175 223.082, 460.994 182.580, 449.134 150.178 C 432.936 105.930, 395.354 73.580, 351.973 66.544 C 340.232 64.640, 311.024 64.637, 299 66.538 M 0.430 300 C 0.430 312.925, 0.573 318.212, 0.747 311.750 C 0.921 305.288, 0.921 294.712, 0.747 288.250 C 0.573 281.788, 0.430 287.075, 0.430 300" stroke="none" fill="#cbc3c3" fill-rule="evenodd"/></svg>