<svg xmlns="http://www.w3.org/2000/svg" width="600" height="600" viewBox="0 0 600 600" version="1.1"><path d="M 304.357 64.509 C 259.682 72.356, 215.062 104.439, 174.701 157.735 L 167.027 167.868 182.764 180.809 L 198.500 193.750 213.500 179.100 C 255.070 138.498, 283.882 122.143, 314 122.050 C 338.101 121.975, 359.413 138.463, 364.062 160.781 C 365.631 168.313, 364.684 181.098, 362.030 188.189 C 353.740 210.348, 324.991 234.303, 253.819 278.357 L 238.138 288.063 240.483 293.281 C 250.013 314.489, 254.815 324.481, 255.421 324.366 C 255.810 324.292, 262.296 320.825, 269.836 316.661 C 297.295 301.498, 315.812 295.271, 330.225 296.353 C 348.980 297.762, 370.955 309.408, 382.441 324.028 C 393.169 337.683, 397.710 353.505, 396.641 373.500 C 394.961 404.918, 384.526 428.730, 363.097 450.047 C 343.320 469.721, 314.410 484.617, 286.619 489.454 C 260.140 494.063, 221.773 487.059, 191.392 472.071 L 179.747 466.326 171.215 477.913 C 166.523 484.286, 161.380 491.171, 159.788 493.212 L 156.892 496.924 163.196 501.576 C 175.608 510.734, 200.261 521.120, 221 525.928 C 243.116 531.056, 272.143 533.149, 292.284 531.067 C 355.557 524.529, 414.440 492.559, 446.200 447.500 C 465.254 420.466, 475.057 386.405, 473.683 352 C 472.388 319.563, 462.110 294.946, 441.082 273.918 C 424.628 257.465, 411.318 250.447, 383.070 243.329 L 379.640 242.465 386.070 237.376 C 415.038 214.449, 432.543 191.987, 438.622 169.942 C 441.361 160.011, 441.129 139.931, 438.156 129.513 C 428.715 96.437, 402.476 75.052, 360.116 65.911 C 347.393 63.166, 316.435 62.387, 304.357 64.509" stroke="none" fill="#0c0404" fill-rule="evenodd"/><path d="M 265.950 1.436 C 194.444 10.508, 133.012 40.940, 83.942 91.600 C 36.917 140.150, 7.726 203.146, 1.079 270.424 C -0.284 284.226, -0.315 315.594, 1.022 329.144 C 5.898 378.566, 23.235 426.694, 51.088 468.128 C 70.927 497.641, 102.359 529.073, 131.872 548.912 C 173.245 576.724, 221.506 594.110, 270.856 598.978 C 284.175 600.292, 315.825 600.292, 329.144 598.978 C 370.737 594.875, 413.212 581.371, 448.559 561.014 C 473.403 546.705, 491.209 533.001, 512.105 512.105 C 543.914 480.295, 565.835 446.463, 581.313 405.289 C 589.799 382.713, 597.095 351.620, 598.649 331.406 C 599.007 326.746, 599.683 322.696, 600.150 322.407 C 600.618 322.118, 601 311.532, 601 298.882 C 601 286.232, 600.615 276.120, 600.145 276.410 C 599.675 276.701, 598.999 273.154, 598.644 268.529 C 598.288 263.904, 596.862 253.905, 595.475 246.310 C 576.479 142.309, 504.539 56.133, 405.500 18.743 C 385.750 11.287, 366.261 6.288, 342 2.457 C 327.688 0.197, 280.691 -0.434, 265.950 1.436 M 304.357 64.509 C 259.682 72.356, 215.062 104.439, 174.701 157.735 L 167.027 167.868 182.764 180.809 L 198.500 193.750 213.500 179.100 C 255.070 138.498, 283.882 122.143, 314 122.050 C 338.101 121.975, 359.413 138.463, 364.062 160.781 C 365.631 168.313, 364.684 181.098, 362.030 188.189 C 353.740 210.348, 324.991 234.303, 253.819 278.357 L 238.138 288.063 240.483 293.281 C 250.013 314.489, 254.815 324.481, 255.421 324.366 C 255.810 324.292, 262.296 320.825, 269.836 316.661 C 297.295 301.498, 315.812 295.271, 330.225 296.353 C 348.980 297.762, 370.955 309.408, 382.441 324.028 C 393.169 337.683, 397.710 353.505, 396.641 373.500 C 394.961 404.918, 384.526 428.730, 363.097 450.047 C 343.320 469.721, 314.410 484.617, 286.619 489.454 C 260.140 494.063, 221.773 487.059, 191.392 472.071 L 179.747 466.326 171.215 477.913 C 166.523 484.286, 161.380 491.171, 159.788 493.212 L 156.892 496.924 163.196 501.576 C 175.608 510.734, 200.261 521.120, 221 525.928 C 243.116 531.056, 272.143 533.149, 292.284 531.067 C 355.557 524.529, 414.440 492.559, 446.200 447.500 C 465.254 420.466, 475.057 386.405, 473.683 352 C 472.388 319.563, 462.110 294.946, 441.082 273.918 C 424.628 257.465, 411.318 250.447, 383.070 243.329 L 379.640 242.465 386.070 237.376 C 415.038 214.449, 432.543 191.987, 438.622 169.942 C 441.361 160.011, 441.129 139.931, 438.156 129.513 C 428.715 96.437, 402.476 75.052, 360.116 65.911 C 347.393 63.166, 316.435 62.387, 304.357 64.509 M 0.430 300 C 0.430 312.925, 0.573 318.212, 0.747 311.750 C 0.921 305.288, 0.921 294.712, 0.747 288.250 C 0.573 281.788, 0.430 287.075, 0.430 300" stroke="none" fill="#cbc3c3" fill-rule="evenodd"/></svg>