<svg xmlns="http://www.w3.org/2000/svg" width="600" height="600" viewBox="0 0 600 600" version="1.1"><path d="M 304.711 70.750 C 301.726 75.013, 257.097 139.880, 205.535 214.900 L 111.786 351.299 112.519 374.760 L 113.252 398.222 160.876 397.607 C 187.069 397.269, 228.412 396.718, 252.750 396.384 L 297 395.776 296.985 422.638 C 296.967 455.991, 295.590 463.203, 287.381 472.959 C 280.361 481.302, 271.792 484, 252.318 484 L 238 484 237.996 489.250 C 237.994 492.137, 237.699 500.913, 237.341 508.750 L 236.689 523 335.344 523 L 434 523 434 503.607 L 434 484.214 418.750 483.734 C 410.363 483.470, 401.874 482.742, 399.887 482.118 C 390.643 479.211, 383.399 471.589, 379.816 461 C 377.798 455.035, 377.585 452.135, 377.228 425.750 L 376.839 397 405.308 397 L 433.777 397 434.371 393.750 C 434.697 391.962, 437.437 373.175, 440.461 352 C 443.484 330.825, 446.212 312.038, 446.524 310.250 L 447.091 307 428.246 307 L 409.401 307 407.145 314.669 C 401.331 334.428, 390.501 348.350, 379.181 350.614 L 376 351.250 376 207.125 L 376 63 343.069 63 L 310.138 63 304.711 70.750 M 238.037 241.583 C 206.432 288.287, 176.815 332.012, 172.221 338.750 L 163.868 351 229.312 351 L 294.757 351 295.485 256.750 C 295.885 204.912, 296.053 161.187, 295.857 159.583 C 295.549 157.067, 287.591 168.354, 238.037 241.583" stroke="none" fill="#0c0404" fill-rule="evenodd"/><path d="M 265.950 1.436 C 194.444 10.508, 133.012 40.940, 83.942 91.600 C 36.917 140.150, 7.726 203.146, 1.079 270.424 C -0.284 284.226, -0.315 315.594, 1.022 329.144 C 5.898 378.566, 23.235 426.694, 51.088 468.128 C 70.927 497.641, 102.359 529.073, 131.872 548.912 C 173.245 576.724, 221.506 594.110, 270.856 598.978 C 284.175 600.292, 315.825 600.292, 329.144 598.978 C 370.737 594.875, 413.212 581.371, 448.559 561.014 C 473.403 546.705, 491.209 533.001, 512.105 512.105 C 543.914 480.295, 565.835 446.463, 581.313 405.289 C 589.799 382.713, 597.095 351.620, 598.649 331.406 C 599.007 326.746, 599.683 322.696, 600.150 322.407 C 600.618 322.118, 601 311.532, 601 298.882 C 601 286.232, 600.615 276.120, 600.145 276.410 C 599.675 276.701, 598.999 273.154, 598.644 268.529 C 598.288 263.904, 596.862 253.905, 595.475 246.310 C 576.479 142.309, 504.539 56.133, 405.500 18.743 C 385.750 11.287, 366.261 6.288, 342 2.457 C 327.688 0.197, 280.691 -0.434, 265.950 1.436 M 304.711 70.750 C 301.726 75.013, 257.097 139.880, 205.535 214.900 L 111.786 351.299 112.519 374.760 L 113.252 398.222 160.876 397.607 C 187.069 397.269, 228.412 396.718, 252.750 396.384 L 297 395.776 296.985 422.638 C 296.967 455.991, 295.590 463.203, 287.381 472.959 C 280.361 481.302, 271.792 484, 252.318 484 L 238 484 237.996 489.250 C 237.994 492.137, 237.699 500.913, 237.341 508.750 L 236.689 523 335.344 523 L 434 523 434 503.607 L 434 484.214 418.750 483.734 C 410.363 483.470, 401.874 482.742, 399.887 482.118 C 390.643 479.211, 383.399 471.589, 379.816 461 C 377.798 455.035, 377.585 452.135, 377.228 425.750 L 376.839 397 405.308 397 L 433.777 397 434.371 393.750 C 434.697 391.962, 437.437 373.175, 440.461 352 C 443.484 330.825, 446.212 312.038, 446.524 310.250 L 447.091 307 428.246 307 L 409.401 307 407.145 314.669 C 401.331 334.428, 390.501 348.350, 379.181 350.614 L 376 351.250 376 207.125 L 376 63 343.069 63 L 310.138 63 304.711 70.750 M 238.037 241.583 C 206.432 288.287, 176.815 332.012, 172.221 338.750 L 163.868 351 229.312 351 L 294.757 351 295.485 256.750 C 295.885 204.912, 296.053 161.187, 295.857 159.583 C 295.549 157.067, 287.591 168.354, 238.037 241.583 M 0.430 300 C 0.430 312.925, 0.573 318.212, 0.747 311.750 C 0.921 305.288, 0.921 294.712, 0.747 288.250 C 0.573 281.788, 0.430 287.075, 0.430 300" stroke="none" fill="#cbc3c3" fill-rule="evenodd"/></svg>