<svg xmlns="http://www.w3.org/2000/svg" width="600" height="600" viewBox="0 0 600 600" version="1.1"><path d="M 413.955 66.085 C 413.341 67.231, 411.188 68.919, 409.170 69.835 C 405.840 71.346, 396.445 71.526, 307.762 71.778 L 210.024 72.057 209.479 74.278 C 204.028 96.522, 158.228 291.561, 158.413 291.746 C 158.555 291.889, 164.437 293.152, 171.484 294.555 L 184.297 297.105 187.398 294.190 C 194.082 287.910, 209.521 278.733, 221.415 273.970 C 254.427 260.752, 291.725 262.676, 320.581 279.085 C 329.614 284.221, 343.220 296.648, 349.599 305.587 C 360.569 320.959, 367.666 341.955, 368.669 362 C 370.385 396.298, 359.320 425.839, 336.064 449.045 C 318.163 466.907, 293.388 479.986, 264.500 486.825 C 254.738 489.137, 251.474 489.426, 235.500 489.399 C 215.502 489.366, 201.952 487.534, 180.500 481.965 C 173.900 480.252, 167.904 478.771, 167.174 478.675 C 165.162 478.409, 150.776 513.267, 152.495 514.245 C 154.854 515.587, 178.253 522.067, 190 524.631 C 239.638 535.465, 281.692 533.997, 324.363 519.941 C 397.015 496.010, 440.938 443.553, 448.025 372.252 C 450.612 346.228, 442.685 310.311, 428.329 283.009 C 399.432 228.055, 349.199 198.962, 283.289 199.008 C 263.082 199.022, 246.529 201.569, 228.258 207.475 C 218.273 210.702, 218.028 210.732, 218.515 208.643 C 218.789 207.464, 221.933 192.775, 225.500 176 C 229.067 159.225, 232.223 144.488, 232.512 143.250 L 233.038 141 333.452 141 C 428.227 141, 433.893 140.902, 434.364 139.250 C 434.639 138.287, 438.295 121.750, 442.489 102.500 C 446.683 83.250, 450.344 66.713, 450.625 65.750 C 451.097 64.129, 449.804 64, 433.103 64 C 415.850 64, 415.022 64.090, 413.955 66.085" stroke="none" fill="#0c0404" fill-rule="evenodd"/><path d="M 265.950 1.436 C 194.444 10.508, 133.012 40.940, 83.942 91.600 C 36.917 140.150, 7.726 203.146, 1.079 270.424 C -0.284 284.226, -0.315 315.594, 1.022 329.144 C 5.898 378.566, 23.235 426.694, 51.088 468.128 C 70.927 497.641, 102.359 529.073, 131.872 548.912 C 173.245 576.724, 221.506 594.110, 270.856 598.978 C 284.175 600.292, 315.825 600.292, 329.144 598.978 C 370.737 594.875, 413.212 581.371, 448.559 561.014 C 473.403 546.705, 491.209 533.001, 512.105 512.105 C 543.914 480.295, 565.835 446.463, 581.313 405.289 C 589.799 382.713, 597.095 351.620, 598.649 331.406 C 599.007 326.746, 599.683 322.696, 600.150 322.407 C 600.618 322.118, 601 311.532, 601 298.882 C 601 286.232, 600.615 276.120, 600.145 276.410 C 599.675 276.701, 598.999 273.154, 598.644 268.529 C 598.288 263.904, 596.862 253.905, 595.475 246.310 C 576.479 142.309, 504.539 56.133, 405.500 18.743 C 385.750 11.287, 366.261 6.288, 342 2.457 C 327.688 0.197, 280.691 -0.434, 265.950 1.436 M 413.955 66.085 C 413.341 67.231, 411.188 68.919, 409.170 69.835 C 405.840 71.346, 396.445 71.526, 307.762 71.778 L 210.024 72.057 209.479 74.278 C 204.028 96.522, 158.228 291.561, 158.413 291.746 C 158.555 291.889, 164.437 293.152, 171.484 294.555 L 184.297 297.105 187.398 294.190 C 194.082 287.910, 209.521 278.733, 221.415 273.970 C 254.427 260.752, 291.725 262.676, 320.581 279.085 C 329.614 284.221, 343.220 296.648, 349.599 305.587 C 360.569 320.959, 367.666 341.955, 368.669 362 C 370.385 396.298, 359.320 425.839, 336.064 449.045 C 318.163 466.907, 293.388 479.986, 264.500 486.825 C 254.738 489.137, 251.474 489.426, 235.500 489.399 C 215.502 489.366, 201.952 487.534, 180.500 481.965 C 173.900 480.252, 167.904 478.771, 167.174 478.675 C 165.162 478.409, 150.776 513.267, 152.495 514.245 C 154.854 515.587, 178.253 522.067, 190 524.631 C 239.638 535.465, 281.692 533.997, 324.363 519.941 C 397.015 496.010, 440.938 443.553, 448.025 372.252 C 450.612 346.228, 442.685 310.311, 428.329 283.009 C 399.432 228.055, 349.199 198.962, 283.289 199.008 C 263.082 199.022, 246.529 201.569, 228.258 207.475 C 218.273 210.702, 218.028 210.732, 218.515 208.643 C 218.789 207.464, 221.933 192.775, 225.500 176 C 229.067 159.225, 232.223 144.488, 232.512 143.250 L 233.038 141 333.452 141 C 428.227 141, 433.893 140.902, 434.364 139.250 C 434.639 138.287, 438.295 121.750, 442.489 102.500 C 446.683 83.250, 450.344 66.713, 450.625 65.750 C 451.097 64.129, 449.804 64, 433.103 64 C 415.850 64, 415.022 64.090, 413.955 66.085 M 0.430 300 C 0.430 312.925, 0.573 318.212, 0.747 311.750 C 0.921 305.288, 0.921 294.712, 0.747 288.250 C 0.573 281.788, 0.430 287.075, 0.430 300" stroke="none" fill="#cbc3c3" fill-rule="evenodd"/></svg>