<svg xmlns="http://www.w3.org/2000/svg" width="600" height="600" viewBox="0 0 600 600" version="1.1"><path d="M 400 65.687 C 338.317 70.316, 286.213 89.456, 245.142 122.574 C 189.226 167.663, 151.588 245.760, 148.309 323.500 C 147.639 339.383, 149.188 362.074, 152.063 378.500 C 167.223 465.107, 221.502 523.839, 294 532.081 C 349.794 538.424, 406.426 507.182, 433.955 454.872 C 453.614 417.517, 460.041 367.074, 450.919 321.727 C 439.967 267.286, 406.410 230.587, 355.500 217.376 C 345.744 214.844, 342.804 214.524, 329.500 214.543 C 317.586 214.561, 312.352 215.039, 304.059 216.870 C 281.151 221.926, 257.486 233.051, 241.750 246.162 C 239.137 248.338, 237 249.673, 237 249.127 C 237 245.995, 243.527 223.637, 247.012 214.832 C 273.258 148.525, 329.111 109.456, 406.250 103.445 L 415 102.763 415 83.882 L 415 65 409.750 65.175 C 406.863 65.271, 402.475 65.501, 400 65.687 M 295.075 264.087 C 270.472 268.914, 244.956 288.222, 230.891 312.654 L 227.526 318.500 227.646 340 C 227.816 370.678, 231.060 393.860, 238.513 417.672 C 252.049 460.923, 273.513 485.508, 302.205 490.626 C 311.486 492.282, 318.294 491.823, 326.534 488.988 C 356.247 478.766, 372.725 445.391, 374.668 391.500 C 377.681 307.944, 344.256 254.438, 295.075 264.087" stroke="none" fill="#0c0404" fill-rule="evenodd"/><path d="M 265.950 1.436 C 194.444 10.508, 133.012 40.940, 83.942 91.600 C 36.917 140.150, 7.726 203.146, 1.079 270.424 C -0.284 284.226, -0.315 315.594, 1.022 329.144 C 5.898 378.566, 23.235 426.694, 51.088 468.128 C 70.927 497.641, 102.359 529.073, 131.872 548.912 C 173.245 576.724, 221.506 594.110, 270.856 598.978 C 284.175 600.292, 315.825 600.292, 329.144 598.978 C 370.737 594.875, 413.212 581.371, 448.559 561.014 C 473.403 546.705, 491.209 533.001, 512.105 512.105 C 543.914 480.295, 565.835 446.463, 581.313 405.289 C 589.799 382.713, 597.095 351.620, 598.649 331.406 C 599.007 326.746, 599.683 322.696, 600.150 322.407 C 600.618 322.118, 601 311.532, 601 298.882 C 601 286.232, 600.615 276.120, 600.145 276.410 C 599.675 276.701, 598.999 273.154, 598.644 268.529 C 598.288 263.904, 596.862 253.905, 595.475 246.310 C 576.479 142.309, 504.539 56.133, 405.500 18.743 C 385.750 11.287, 366.261 6.288, 342 2.457 C 327.688 0.197, 280.691 -0.434, 265.950 1.436 M 400 65.687 C 338.317 70.316, 286.213 89.456, 245.142 122.574 C 189.226 167.663, 151.588 245.760, 148.309 323.500 C 147.639 339.383, 149.188 362.074, 152.063 378.500 C 167.223 465.107, 221.502 523.839, 294 532.081 C 349.794 538.424, 406.426 507.182, 433.955 454.872 C 453.614 417.517, 460.041 367.074, 450.919 321.727 C 439.967 267.286, 406.410 230.587, 355.500 217.376 C 345.744 214.844, 342.804 214.524, 329.500 214.543 C 317.586 214.561, 312.352 215.039, 304.059 216.870 C 281.151 221.926, 257.486 233.051, 241.750 246.162 C 239.137 248.338, 237 249.673, 237 249.127 C 237 245.995, 243.527 223.637, 247.012 214.832 C 273.258 148.525, 329.111 109.456, 406.250 103.445 L 415 102.763 415 83.882 L 415 65 409.750 65.175 C 406.863 65.271, 402.475 65.501, 400 65.687 M 295.075 264.087 C 270.472 268.914, 244.956 288.222, 230.891 312.654 L 227.526 318.500 227.646 340 C 227.816 370.678, 231.060 393.860, 238.513 417.672 C 252.049 460.923, 273.513 485.508, 302.205 490.626 C 311.486 492.282, 318.294 491.823, 326.534 488.988 C 356.247 478.766, 372.725 445.391, 374.668 391.500 C 377.681 307.944, 344.256 254.438, 295.075 264.087 M 0.430 300 C 0.430 312.925, 0.573 318.212, 0.747 311.750 C 0.921 305.288, 0.921 294.712, 0.747 288.250 C 0.573 281.788, 0.430 287.075, 0.430 300" stroke="none" fill="#cbc3c3" fill-rule="evenodd"/></svg>