<svg xmlns="http://www.w3.org/2000/svg" width="600" height="600" viewBox="0 0 600 600" version="1.1"><path d="M 175.633 64.750 C 175.358 65.713, 168.551 95.525, 160.508 131 C 152.465 166.475, 145.652 196.297, 145.368 197.271 C 144.885 198.930, 146.148 199.024, 165.533 198.771 L 186.214 198.500 189.427 189.498 C 199.590 161.029, 214.069 145.837, 235 141.681 C 241.036 140.483, 257.389 140.058, 318.785 139.504 L 395.070 138.815 389.510 147.984 C 367.132 184.889, 336.665 241.494, 318.455 280 C 271.713 378.838, 248 456.740, 248 511.461 L 248 524 287.852 524 L 327.703 524 328.402 508.750 C 331.804 434.443, 351.367 350.728, 386.997 258 C 403.939 213.910, 428.363 160.214, 447.495 125 L 453.742 113.500 454.468 91.778 L 455.193 70.055 337.347 69.745 C 211.375 69.413, 215.829 69.586, 206.300 64.656 C 203.785 63.355, 200.210 63, 189.617 63 C 177.634 63, 176.079 63.195, 175.633 64.750" stroke="none" fill="#0c0404" fill-rule="evenodd"/><path d="M 265.950 1.436 C 194.444 10.508, 133.012 40.940, 83.942 91.600 C 36.917 140.150, 7.726 203.146, 1.079 270.424 C -0.284 284.226, -0.315 315.594, 1.022 329.144 C 5.898 378.566, 23.235 426.694, 51.088 468.128 C 70.927 497.641, 102.359 529.073, 131.872 548.912 C 173.245 576.724, 221.506 594.110, 270.856 598.978 C 284.175 600.292, 315.825 600.292, 329.144 598.978 C 370.737 594.875, 413.212 581.371, 448.559 561.014 C 473.403 546.705, 491.209 533.001, 512.105 512.105 C 543.914 480.295, 565.835 446.463, 581.313 405.289 C 589.799 382.713, 597.095 351.620, 598.649 331.406 C 599.007 326.746, 599.683 322.696, 600.150 322.407 C 600.618 322.118, 601 311.532, 601 298.882 C 601 286.232, 600.615 276.120, 600.145 276.410 C 599.675 276.701, 598.999 273.154, 598.644 268.529 C 598.288 263.904, 596.862 253.905, 595.475 246.310 C 576.479 142.309, 504.539 56.133, 405.500 18.743 C 385.750 11.287, 366.261 6.288, 342 2.457 C 327.688 0.197, 280.691 -0.434, 265.950 1.436 M 175.633 64.750 C 175.358 65.713, 168.551 95.525, 160.508 131 C 152.465 166.475, 145.652 196.297, 145.368 197.271 C 144.885 198.930, 146.148 199.024, 165.533 198.771 L 186.214 198.500 189.427 189.498 C 199.590 161.029, 214.069 145.837, 235 141.681 C 241.036 140.483, 257.389 140.058, 318.785 139.504 L 395.070 138.815 389.510 147.984 C 367.132 184.889, 336.665 241.494, 318.455 280 C 271.713 378.838, 248 456.740, 248 511.461 L 248 524 287.852 524 L 327.703 524 328.402 508.750 C 331.804 434.443, 351.367 350.728, 386.997 258 C 403.939 213.910, 428.363 160.214, 447.495 125 L 453.742 113.500 454.468 91.778 L 455.193 70.055 337.347 69.745 C 211.375 69.413, 215.829 69.586, 206.300 64.656 C 203.785 63.355, 200.210 63, 189.617 63 C 177.634 63, 176.079 63.195, 175.633 64.750 M 0.430 300 C 0.430 312.925, 0.573 318.212, 0.747 311.750 C 0.921 305.288, 0.921 294.712, 0.747 288.250 C 0.573 281.788, 0.430 287.075, 0.430 300" stroke="none" fill="#cbc3c3" fill-rule="evenodd"/></svg>