<svg xmlns="http://www.w3.org/2000/svg" width="600" height="600" viewBox="0 0 600 600" version="1.1"><path d="M 287.616 64.028 C 239.143 69.571, 197.585 90.816, 177.017 120.570 C 155.927 151.078, 151.123 192.549, 164.923 224.978 C 174.223 246.833, 195.553 269.293, 224.250 287.446 C 228.512 290.143, 231.995 292.608, 231.989 292.925 C 231.983 293.241, 229.208 295.075, 225.823 297 C 222.438 298.925, 215.580 303.373, 210.584 306.885 C 161.160 341.628, 139.735 384.911, 149.389 430.516 C 161.140 486.031, 214.754 525.033, 289 532.077 C 336.314 536.566, 382.590 521.297, 414.763 490.582 C 436.371 469.953, 448.402 447.115, 452.589 418.778 C 455.507 399.028, 453.067 373.824, 446.318 354 C 440.640 337.321, 428.872 318.109, 416.075 304.627 C 405.527 293.514, 386.965 279.866, 375.235 274.598 C 372.906 273.552, 371 272.408, 371 272.056 C 371 271.705, 373.587 270.159, 376.750 268.623 C 403.558 255.596, 429.758 228.791, 438.936 205 C 442.358 196.132, 445 183.067, 445 175.018 C 445 165.793, 440.660 150.843, 434.107 137.500 C 417.934 104.562, 392.753 82.457, 358.500 71.128 C 351.900 68.945, 342.225 66.420, 337 65.517 C 325.741 63.571, 298.735 62.756, 287.616 64.028 M 281.734 107.516 C 248.857 113.746, 225.932 137.728, 226.017 165.799 C 226.065 181.276, 231.744 194.740, 242.993 206.043 C 253.526 216.627, 262.340 222.086, 295.640 238.650 L 324.781 253.145 330.140 250.443 C 340.677 245.132, 349.624 238.643, 357.520 230.586 C 370.190 217.659, 375.725 205.187, 377.973 184.500 C 378.978 175.251, 378.931 172.386, 377.677 166.500 C 372.747 143.350, 358.511 125.086, 337.533 114.999 C 332.015 112.346, 324.575 109.432, 321 108.524 C 311.836 106.196, 291.458 105.673, 281.734 107.516 M 265.500 320.480 C 246.373 334.167, 231.093 350.904, 222.962 367.075 C 212.620 387.645, 211.297 410.866, 219.122 434.500 C 228.264 462.112, 250.782 481.831, 282.635 490.120 C 290.046 492.048, 293.961 492.419, 306.500 492.380 C 325.168 492.322, 335.961 489.774, 352.500 481.522 C 383.667 465.970, 397.788 439.376, 391.427 408.208 C 385.762 380.451, 360.465 355.674, 313.410 331.795 C 299.220 324.594, 276.132 313.949, 274.859 314.020 C 274.662 314.031, 270.450 316.938, 265.500 320.480" stroke="none" fill="#0c0404" fill-rule="evenodd"/><path d="M 265.950 1.436 C 194.444 10.508, 133.012 40.940, 83.942 91.600 C 36.917 140.150, 7.726 203.146, 1.079 270.424 C -0.284 284.226, -0.315 315.594, 1.022 329.144 C 5.898 378.566, 23.235 426.694, 51.088 468.128 C 70.927 497.641, 102.359 529.073, 131.872 548.912 C 173.245 576.724, 221.506 594.110, 270.856 598.978 C 284.175 600.292, 315.825 600.292, 329.144 598.978 C 370.737 594.875, 413.212 581.371, 448.559 561.014 C 473.403 546.705, 491.209 533.001, 512.105 512.105 C 543.914 480.295, 565.835 446.463, 581.313 405.289 C 589.799 382.713, 597.095 351.620, 598.649 331.406 C 599.007 326.746, 599.683 322.696, 600.150 322.407 C 600.618 322.118, 601 311.532, 601 298.882 C 601 286.232, 600.615 276.120, 600.145 276.410 C 599.675 276.701, 598.999 273.154, 598.644 268.529 C 598.288 263.904, 596.862 253.905, 595.475 246.310 C 576.479 142.309, 504.539 56.133, 405.500 18.743 C 385.750 11.287, 366.261 6.288, 342 2.457 C 327.688 0.197, 280.691 -0.434, 265.950 1.436 M 287.616 64.028 C 239.143 69.571, 197.585 90.816, 177.017 120.570 C 155.927 151.078, 151.123 192.549, 164.923 224.978 C 174.223 246.833, 195.553 269.293, 224.250 287.446 C 228.512 290.143, 231.995 292.608, 231.989 292.925 C 231.983 293.241, 229.208 295.075, 225.823 297 C 222.438 298.925, 215.580 303.373, 210.584 306.885 C 161.160 341.628, 139.735 384.911, 149.389 430.516 C 161.140 486.031, 214.754 525.033, 289 532.077 C 336.314 536.566, 382.590 521.297, 414.763 490.582 C 436.371 469.953, 448.402 447.115, 452.589 418.778 C 455.507 399.028, 453.067 373.824, 446.318 354 C 440.640 337.321, 428.872 318.109, 416.075 304.627 C 405.527 293.514, 386.965 279.866, 375.235 274.598 C 372.906 273.552, 371 272.408, 371 272.056 C 371 271.705, 373.587 270.159, 376.750 268.623 C 403.558 255.596, 429.758 228.791, 438.936 205 C 442.358 196.132, 445 183.067, 445 175.018 C 445 165.793, 440.660 150.843, 434.107 137.500 C 417.934 104.562, 392.753 82.457, 358.500 71.128 C 351.900 68.945, 342.225 66.420, 337 65.517 C 325.741 63.571, 298.735 62.756, 287.616 64.028 M 281.734 107.516 C 248.857 113.746, 225.932 137.728, 226.017 165.799 C 226.065 181.276, 231.744 194.740, 242.993 206.043 C 253.526 216.627, 262.340 222.086, 295.640 238.650 L 324.781 253.145 330.140 250.443 C 340.677 245.132, 349.624 238.643, 357.520 230.586 C 370.190 217.659, 375.725 205.187, 377.973 184.500 C 378.978 175.251, 378.931 172.386, 377.677 166.500 C 372.747 143.350, 358.511 125.086, 337.533 114.999 C 332.015 112.346, 324.575 109.432, 321 108.524 C 311.836 106.196, 291.458 105.673, 281.734 107.516 M 0.430 300 C 0.430 312.925, 0.573 318.212, 0.747 311.750 C 0.921 305.288, 0.921 294.712, 0.747 288.250 C 0.573 281.788, 0.430 287.075, 0.430 300 M 265.500 320.480 C 246.373 334.167, 231.093 350.904, 222.962 367.075 C 212.620 387.645, 211.297 410.866, 219.122 434.500 C 228.264 462.112, 250.782 481.831, 282.635 490.120 C 290.046 492.048, 293.961 492.419, 306.500 492.380 C 325.168 492.322, 335.961 489.774, 352.500 481.522 C 383.667 465.970, 397.788 439.376, 391.427 408.208 C 385.762 380.451, 360.465 355.674, 313.410 331.795 C 299.220 324.594, 276.132 313.949, 274.859 314.020 C 274.662 314.031, 270.450 316.938, 265.500 320.480" stroke="none" fill="#cbc3c3" fill-rule="evenodd"/></svg>