<svg xmlns="http://www.w3.org/2000/svg" width="600" height="600" viewBox="0 0 600 600" version="1.1"><path d="M 280 65.625 C 246.925 69.828, 225.638 80.126, 202.943 102.902 C 190.556 115.334, 183.418 124.357, 173.283 140.397 C 154.166 170.650, 146.820 195.603, 146.899 230.006 C 146.973 262.060, 153.350 288.601, 167.513 315.802 C 185.911 351.139, 214.184 374.104, 249.310 382.245 C 261.601 385.093, 286.468 385.296, 298.748 382.648 C 318.145 378.465, 338.917 369.664, 355.398 358.644 C 360.679 355.113, 364.999 352.511, 364.998 352.862 C 364.993 355.360, 358.431 377.163, 355.476 384.503 C 338.601 426.424, 309.866 458.402, 273.664 475.549 C 251.178 486.199, 220.675 493, 195.394 493 L 189 493 188.996 498.750 C 188.994 501.913, 188.697 510.960, 188.336 518.855 L 187.679 533.211 197.590 532.518 C 272.709 527.265, 330.884 504.252, 374.945 462.357 C 416.380 422.959, 442.974 368.506, 453.254 302.013 C 456.057 283.881, 456.258 250.867, 453.667 234 C 448.364 199.468, 438.549 169.793, 423.882 143.950 C 407.074 114.334, 382.867 90.758, 356.710 78.530 C 337.154 69.387, 322.566 66.077, 299.500 65.548 C 290.700 65.346, 281.925 65.380, 280 65.625 M 280.782 107.553 C 261.033 112.341, 245.049 129.366, 236.384 154.842 C 220.710 200.925, 225.551 268.215, 247.169 304.768 C 252.129 313.154, 263.362 324.169, 270.740 327.880 C 303.797 344.508, 345.158 326.691, 372.607 284 L 375.500 279.500 375.495 254 C 375.490 225.520, 374.368 215.564, 368.582 192.640 C 358.945 154.466, 339.494 124.070, 317.043 112.104 C 306.252 106.352, 292.733 104.655, 280.782 107.553" stroke="none" fill="#0c0404" fill-rule="evenodd"/><path d="M 265.950 1.436 C 194.444 10.508, 133.012 40.940, 83.942 91.600 C 36.917 140.150, 7.726 203.146, 1.079 270.424 C -0.284 284.226, -0.315 315.594, 1.022 329.144 C 5.898 378.566, 23.235 426.694, 51.088 468.128 C 70.927 497.641, 102.359 529.073, 131.872 548.912 C 173.245 576.724, 221.506 594.110, 270.856 598.978 C 284.175 600.292, 315.825 600.292, 329.144 598.978 C 370.737 594.875, 413.212 581.371, 448.559 561.014 C 473.403 546.705, 491.209 533.001, 512.105 512.105 C 543.914 480.295, 565.835 446.463, 581.313 405.289 C 589.799 382.713, 597.095 351.620, 598.649 331.406 C 599.007 326.746, 599.683 322.696, 600.150 322.407 C 600.618 322.118, 601 311.532, 601 298.882 C 601 286.232, 600.615 276.120, 600.145 276.410 C 599.675 276.701, 598.999 273.154, 598.644 268.529 C 598.288 263.904, 596.862 253.905, 595.475 246.310 C 576.479 142.309, 504.539 56.133, 405.500 18.743 C 385.750 11.287, 366.261 6.288, 342 2.457 C 327.688 0.197, 280.691 -0.434, 265.950 1.436 M 280 65.625 C 246.925 69.828, 225.638 80.126, 202.943 102.902 C 190.556 115.334, 183.418 124.357, 173.283 140.397 C 154.166 170.650, 146.820 195.603, 146.899 230.006 C 146.973 262.060, 153.350 288.601, 167.513 315.802 C 185.911 351.139, 214.184 374.104, 249.310 382.245 C 261.601 385.093, 286.468 385.296, 298.748 382.648 C 318.145 378.465, 338.917 369.664, 355.398 358.644 C 360.679 355.113, 364.999 352.511, 364.998 352.862 C 364.993 355.360, 358.431 377.163, 355.476 384.503 C 338.601 426.424, 309.866 458.402, 273.664 475.549 C 251.178 486.199, 220.675 493, 195.394 493 L 189 493 188.996 498.750 C 188.994 501.913, 188.697 510.960, 188.336 518.855 L 187.679 533.211 197.590 532.518 C 272.709 527.265, 330.884 504.252, 374.945 462.357 C 416.380 422.959, 442.974 368.506, 453.254 302.013 C 456.057 283.881, 456.258 250.867, 453.667 234 C 448.364 199.468, 438.549 169.793, 423.882 143.950 C 407.074 114.334, 382.867 90.758, 356.710 78.530 C 337.154 69.387, 322.566 66.077, 299.500 65.548 C 290.700 65.346, 281.925 65.380, 280 65.625 M 280.782 107.553 C 261.033 112.341, 245.049 129.366, 236.384 154.842 C 220.710 200.925, 225.551 268.215, 247.169 304.768 C 252.129 313.154, 263.362 324.169, 270.740 327.880 C 303.797 344.508, 345.158 326.691, 372.607 284 L 375.500 279.500 375.495 254 C 375.490 225.520, 374.368 215.564, 368.582 192.640 C 358.945 154.466, 339.494 124.070, 317.043 112.104 C 306.252 106.352, 292.733 104.655, 280.782 107.553 M 0.430 300 C 0.430 312.925, 0.573 318.212, 0.747 311.750 C 0.921 305.288, 0.921 294.712, 0.747 288.250 C 0.573 281.788, 0.430 287.075, 0.430 300" stroke="none" fill="#cbc3c3" fill-rule="evenodd"/></svg>