<svg xmlns="http://www.w3.org/2000/svg" width="2400" height="2400" viewBox="0 0 2400 2400" version="1.1"><path d="M 1113 155.105 C 985.244 165.169, 889.788 224.245, 827.976 331.500 C 819.240 346.657, 804.382 377.579, 797.463 395 C 794.296 402.975, 788.723 418.540, 785.080 429.589 L 778.456 449.679 768.978 440.738 C 729.339 403.342, 687.631 383.678, 633.500 376.863 C 618.773 375.008, 582.243 375.277, 567 377.352 C 523.826 383.230, 484.767 400.028, 453.500 426.165 C 426.864 448.431, 404.382 477.419, 391.337 506.318 C 376.098 540.079, 370.104 573.182, 371.313 616.911 C 372.669 665.916, 381.301 696.273, 400.534 719.679 L 403.147 722.858 400.323 724.567 C 373.832 740.608, 358.252 759.014, 348.730 785.521 C 343.012 801.440, 339.126 830.238, 340.485 846.623 L 341.158 854.747 332.829 855.960 C 307.384 859.667, 280.310 869.994, 259.436 883.955 C 221.882 909.073, 191.878 951.891, 179.937 997.407 C 174.650 1017.559, 173.502 1027.368, 173.549 1052 C 173.589 1072.568, 173.825 1075.596, 176.303 1087.256 C 180.153 1105.372, 185 1119.254, 193.498 1136.500 C 204.756 1159.347, 222.456 1184.725, 240.397 1203.744 C 244.029 1207.594, 247 1210.986, 247 1211.283 C 247 1211.580, 242.613 1215.565, 237.250 1220.139 C 195.281 1255.937, 169.325 1298.337, 159.589 1347 C 148.366 1403.099, 157.113 1447.598, 190.025 1501.837 C 210.551 1535.665, 244.998 1576.591, 272 1599.230 C 296.066 1619.407, 321.394 1632.707, 347 1638.612 C 362.464 1642.178, 404.540 1641.368, 437 1636.879 C 537.053 1623.043, 602.073 1575.935, 633.517 1494.500 C 635.853 1488.450, 638.551 1480.688, 639.514 1477.250 C 640.865 1472.424, 641.691 1471, 643.141 1471 C 646.423 1471, 679.538 1477.964, 698.355 1482.612 C 819.210 1512.460, 893.431 1556.409, 937.976 1624.500 C 946.347 1637.296, 959.201 1662.936, 964.796 1678 C 983.884 1729.388, 991.593 1788.760, 989.009 1864.500 C 987.763 1901.019, 985.972 1916.087, 981.660 1926.309 C 979.158 1932.239, 968.514 1942.559, 957.129 1950.093 C 938.299 1962.554, 900.834 1979.655, 879.241 1985.644 C 866.113 1989.286, 856.223 1989.266, 836 1985.555 C 824.930 1983.524, 817.495 1982.732, 809.988 1982.782 C 783.843 1982.959, 746.867 1994.860, 702 2017.538 C 660.448 2038.541, 580.713 2087.176, 559.250 2104.611 L 551.999 2110.500 555.250 2111.189 C 557.037 2111.568, 575.825 2113.063, 597 2114.511 L 635.500 2117.145 663 2111.597 C 711.306 2101.852, 741.733 2098.356, 769 2099.418 C 816.934 2101.285, 865.154 2109.708, 916 2125.097 L 929.500 2129.183 943 2169.318 C 956.004 2207.981, 968.777 2243.514, 972.462 2251.280 L 974.228 2255 981.938 2255 L 989.648 2255 1001.030 2238.250 C 1042.718 2176.901, 1072.643 2141.840, 1091.506 2132.246 C 1099.624 2128.117, 1099.915 2128.283, 1104.238 2139.500 C 1106.358 2145, 1112.611 2162.980, 1118.134 2179.456 C 1128.283 2209.733, 1129.967 2213.861, 1137.323 2226.500 C 1150.697 2249.477, 1167.622 2268.583, 1184.750 2280.039 L 1192.458 2285.195 1194.659 2275.847 C 1197.406 2264.179, 1201.939 2252.935, 1211.466 2234.154 C 1227.829 2201.896, 1245.101 2175.111, 1258 2161.987 C 1270.254 2149.519, 1276.303 2148.072, 1289.657 2154.414 C 1304.122 2161.283, 1320.670 2172.928, 1356.500 2201.449 C 1369.700 2211.956, 1383.650 2222.860, 1387.500 2225.680 C 1414.858 2245.715, 1446.552 2260.993, 1469.977 2265.436 C 1484.626 2268.215, 1482.989 2269.659, 1487.748 2249.750 C 1493.218 2226.862, 1497.789 2204.218, 1499.911 2189.500 L 1501.640 2177.500 1521.570 2177.200 C 1548.193 2176.799, 1556.733 2178.083, 1603.500 2189.513 C 1643.967 2199.403, 1651.194 2200.401, 1682.500 2200.423 C 1709.956 2200.442, 1720.304 2199.618, 1737.500 2196.042 C 1759.741 2191.418, 1774.156 2182.353, 1776.530 2171.500 C 1776.891 2169.850, 1777.366 2167.819, 1777.585 2166.987 C 1777.880 2165.868, 1767.044 2160.008, 1736.007 2144.503 C 1703.506 2128.268, 1694.484 2123.365, 1696.044 2122.788 C 1697.152 2122.378, 1710.308 2119.568, 1725.279 2116.544 C 1771.066 2107.294, 1804.398 2103.305, 1827.750 2104.279 L 1841 2104.832 1841.180 2101.666 C 1841.772 2091.223, 1839.279 2085.312, 1831.112 2077.796 C 1814.414 2062.428, 1771.634 2049.424, 1726.392 2045.965 C 1708.802 2044.619, 1670.921 2045.139, 1650.139 2047.011 C 1633.052 2048.550, 1631.318 2048.307, 1604.401 2040.582 C 1565.809 2029.507, 1527.602 2017.296, 1509.500 2010.250 C 1473.372 1996.189, 1445.828 1977.579, 1431.403 1957.482 C 1419.417 1940.782, 1411.505 1915.948, 1407.357 1882 C 1405.044 1863.074, 1405.039 1819.396, 1407.347 1796 C 1411.828 1750.573, 1421.639 1684.068, 1430.582 1638.500 C 1444.047 1569.889, 1463.494 1520.819, 1482.852 1506.608 C 1506.547 1489.215, 1558.938 1470.816, 1683.500 1436.145 C 1738.505 1420.834, 1783.066 1411.477, 1806.500 1410.316 C 1817.213 1409.785, 1948.967 1414.459, 1954.662 1415.572 C 1956.098 1415.852, 1958.082 1418.265, 1960.565 1422.747 C 1989.100 1474.270, 2029.473 1500.989, 2084.708 1504.905 C 2134.142 1508.411, 2175.224 1490.573, 2210.542 1450.271 C 2224.973 1433.802, 2236.786 1413.777, 2242.882 1395.446 C 2254.862 1359.424, 2252.575 1317.402, 2236.832 1284.265 C 2225.620 1260.667, 2205.777 1239.044, 2180.179 1222.534 C 2176.153 1219.936, 2173.081 1217.291, 2173.353 1216.656 C 2194.479 1167.245, 2206.547 1130.171, 2212.172 1097.403 C 2215.983 1075.204, 2215.081 1040.218, 2209.906 1009.500 C 2201.190 957.754, 2179.362 909.735, 2145.381 867.551 C 2119.368 835.258, 2078.314 800.756, 2036.500 776.047 C 2031.550 773.122, 2026.510 770.119, 2025.299 769.374 C 2023.106 768.023, 2023.127 767.963, 2031.595 751.576 C 2036.268 742.532, 2041.523 731.390, 2043.274 726.816 C 2046.270 718.987, 2046.450 717.768, 2046.351 706 C 2045.957 658.796, 2024.893 621.493, 1986.815 600.562 C 1979.068 596.304, 1954.594 588.408, 1933.500 583.362 C 1925.250 581.388, 1917.589 579.430, 1916.475 579.010 C 1914.978 578.447, 1913.962 576.326, 1912.579 570.874 C 1911.550 566.818, 1908.485 556.525, 1905.767 548 C 1864.274 417.815, 1773.292 325.478, 1662.500 301.111 C 1639.180 295.982, 1608.823 293.597, 1586 295.100 C 1561.211 296.733, 1515.351 303.748, 1477.605 311.682 C 1468.197 313.660, 1459.375 315.465, 1458 315.694 C 1455.845 316.052, 1453.809 314.180, 1443.251 302.134 C 1395.199 247.304, 1354.999 214.317, 1306.123 189.610 C 1268.922 170.805, 1232.028 160.016, 1189.500 155.506 C 1174.255 153.889, 1131.293 153.664, 1113 155.105 M 1057.047 896.250 L 1057.094 918.500 1090.136 956 C 1108.309 976.625, 1127.866 998.825, 1133.596 1005.333 L 1144.014 1017.165 1143.757 951.342 L 1143.500 885.519 1123.776 882.335 C 1097.330 878.065, 1066.937 874, 1061.456 874 L 1057 874 1057.047 896.250 M 1399 1002.582 L 1399 1131.163 1402.750 1128.901 C 1435.058 1109.415, 1454.704 1094.446, 1476.036 1073.065 C 1514.724 1034.287, 1534 990.369, 1534 941.003 L 1534 933.217 1530.164 931.682 C 1521.738 928.311, 1476.378 908.249, 1439.548 891.604 C 1418.125 881.922, 1400.238 874, 1399.798 874 C 1399.359 874, 1399 931.862, 1399 1002.582 M 865.500 1010.500 C 811.203 1026.353, 777.711 1043.162, 764.406 1061.235 C 760.607 1066.396, 757 1074.817, 757 1078.527 C 757 1079.345, 762.276 1079.876, 774.750 1080.315 C 801.254 1081.247, 818.278 1084.007, 868.500 1095.513 C 909.567 1104.922, 939.569 1110, 954.092 1110 C 959.598 1110, 961.459 1109.019, 958.924 1107.453 C 956.666 1106.057, 932.042 1075.744, 919.553 1058.984 C 912.374 1049.351, 901.325 1033.505, 895 1023.771 C 888.436 1013.669, 882.856 1006.084, 882 1006.097 C 881.175 1006.110, 873.750 1008.092, 865.500 1010.500 M 1569.500 1250.645 C 1535.400 1274.648, 1502.325 1298.154, 1496 1302.883 C 1465.672 1325.554, 1437.627 1351.633, 1411.057 1381.871 L 1404.614 1389.203 1423.813 1379.593 C 1504.263 1339.326, 1592.131 1309.082, 1681.750 1290.813 C 1690.687 1288.991, 1697.887 1287.185, 1697.750 1286.799 C 1697.235 1285.353, 1632.873 1207, 1632.201 1207.002 C 1631.816 1207.004, 1603.600 1226.643, 1569.500 1250.645 M 791.456 1261.038 C 747.556 1263.520, 703.535 1275.026, 667 1293.568 L 656.500 1298.897 671 1298.958 C 769.817 1299.375, 881.924 1357.462, 1004 1471.500 C 1008.125 1475.353, 1012.574 1479.404, 1013.886 1480.503 L 1016.272 1482.500 1015.713 1455.500 C 1015.090 1425.361, 1013.946 1416.595, 1008.515 1400.349 C 1000.543 1376.501, 985.790 1353.655, 965.024 1333 C 943.431 1311.523, 917.933 1292.895, 893.500 1280.747 C 860.694 1264.436, 831.403 1258.779, 791.456 1261.038" stroke="none" fill="#04140c" fill-rule="evenodd"/><path d="M 1148.500 0.606 C 1145.750 0.803, 1135.400 1.442, 1125.500 2.028 C 950.298 12.383, 776.133 62.797, 622 147.770 C 494.800 217.896, 381.225 310.567, 285.913 422 C 133.266 600.466, 35.517 824.061, 8.092 1057.500 C 1.868 1110.482, 0.500 1136.158, 0.500 1200 C 0.500 1255.791, 1.019 1269.608, 4.597 1309 C 25.857 1543.105, 114.203 1763.244, 260.837 1947.500 C 307.684 2006.366, 363.262 2063.817, 422 2114.095 C 509.341 2188.856, 613.249 2253.864, 719.749 2300.373 C 837.160 2351.648, 962.511 2383.734, 1091 2395.403 C 1130.392 2398.981, 1144.209 2399.500, 1200 2399.500 C 1255.791 2399.500, 1269.608 2398.981, 1309 2395.403 C 1542.504 2374.197, 1762.551 2286.065, 1946.181 2140.202 C 2005.972 2092.708, 2063.358 2037.275, 2114.095 1978 C 2188.853 1890.663, 2254.060 1786.430, 2300.364 1680.251 C 2350.418 1565.473, 2382.093 1443.887, 2394.475 1319 C 2396.537 1298.208, 2398.981 1263.194, 2398.992 1254.309 C 2398.996 1250.354, 2399.450 1246.840, 2400 1246.500 C 2400.644 1246.102, 2401 1229.137, 2401 1198.882 C 2401 1167.803, 2400.661 1152.091, 2400 1152.500 C 2399.368 1152.890, 2398.997 1150.425, 2398.992 1145.809 C 2398.981 1136.823, 2396.548 1101.904, 2394.475 1081 C 2371.697 851.266, 2283.913 634.740, 2140.202 453.819 C 2092.708 394.028, 2037.275 336.642, 1978 285.905 C 1864.419 188.683, 1729.359 111.905, 1586.546 63.376 C 1488.498 30.057, 1393.255 10.926, 1283 2.401 C 1263.968 0.930, 1162.834 -0.420, 1148.500 0.606 M 1113 155.105 C 985.244 165.169, 889.788 224.245, 827.976 331.500 C 819.240 346.657, 804.382 377.579, 797.463 395 C 794.296 402.975, 788.723 418.540, 785.080 429.589 L 778.456 449.679 768.978 440.738 C 729.339 403.342, 687.631 383.678, 633.500 376.863 C 618.773 375.008, 582.243 375.277, 567 377.352 C 523.826 383.230, 484.767 400.028, 453.500 426.165 C 426.864 448.431, 404.382 477.419, 391.337 506.318 C 376.098 540.079, 370.104 573.182, 371.313 616.911 C 372.669 665.916, 381.301 696.273, 400.534 719.679 L 403.147 722.858 400.323 724.567 C 373.832 740.608, 358.252 759.014, 348.730 785.521 C 343.012 801.440, 339.126 830.238, 340.485 846.623 L 341.158 854.747 332.829 855.960 C 307.384 859.667, 280.310 869.994, 259.436 883.955 C 221.882 909.073, 191.878 951.891, 179.937 997.407 C 174.650 1017.559, 173.502 1027.368, 173.549 1052 C 173.589 1072.568, 173.825 1075.596, 176.303 1087.256 C 180.153 1105.372, 185 1119.254, 193.498 1136.500 C 204.756 1159.347, 222.456 1184.725, 240.397 1203.744 C 244.029 1207.594, 247 1210.986, 247 1211.283 C 247 1211.580, 242.613 1215.565, 237.250 1220.139 C 195.281 1255.937, 169.325 1298.337, 159.589 1347 C 148.366 1403.099, 157.113 1447.598, 190.025 1501.837 C 210.551 1535.665, 244.998 1576.591, 272 1599.230 C 296.066 1619.407, 321.394 1632.707, 347 1638.612 C 362.464 1642.178, 404.540 1641.368, 437 1636.879 C 537.053 1623.043, 602.073 1575.935, 633.517 1494.500 C 635.853 1488.450, 638.551 1480.688, 639.514 1477.250 C 640.865 1472.424, 641.691 1471, 643.141 1471 C 646.423 1471, 679.538 1477.964, 698.355 1482.612 C 819.210 1512.460, 893.431 1556.409, 937.976 1624.500 C 946.347 1637.296, 959.201 1662.936, 964.796 1678 C 983.884 1729.388, 991.593 1788.760, 989.009 1864.500 C 987.763 1901.019, 985.972 1916.087, 981.660 1926.309 C 979.158 1932.239, 968.514 1942.559, 957.129 1950.093 C 938.299 1962.554, 900.834 1979.655, 879.241 1985.644 C 866.113 1989.286, 856.223 1989.266, 836 1985.555 C 824.930 1983.524, 817.495 1982.732, 809.988 1982.782 C 783.843 1982.959, 746.867 1994.860, 702 2017.538 C 660.448 2038.541, 580.713 2087.176, 559.250 2104.611 L 551.999 2110.500 555.250 2111.189 C 557.037 2111.568, 575.825 2113.063, 597 2114.511 L 635.500 2117.145 663 2111.597 C 711.306 2101.852, 741.733 2098.356, 769 2099.418 C 816.934 2101.285, 865.154 2109.708, 916 2125.097 L 929.500 2129.183 943 2169.318 C 956.004 2207.981, 968.777 2243.514, 972.462 2251.280 L 974.228 2255 981.938 2255 L 989.648 2255 1001.030 2238.250 C 1042.718 2176.901, 1072.643 2141.840, 1091.506 2132.246 C 1099.624 2128.117, 1099.915 2128.283, 1104.238 2139.500 C 1106.358 2145, 1112.611 2162.980, 1118.134 2179.456 C 1128.283 2209.733, 1129.967 2213.861, 1137.323 2226.500 C 1150.697 2249.477, 1167.622 2268.583, 1184.750 2280.039 L 1192.458 2285.195 1194.659 2275.847 C 1197.406 2264.179, 1201.939 2252.935, 1211.466 2234.154 C 1227.829 2201.896, 1245.101 2175.111, 1258 2161.987 C 1270.254 2149.519, 1276.303 2148.072, 1289.657 2154.414 C 1304.122 2161.283, 1320.670 2172.928, 1356.500 2201.449 C 1369.700 2211.956, 1383.650 2222.860, 1387.500 2225.680 C 1414.858 2245.715, 1446.552 2260.993, 1469.977 2265.436 C 1484.626 2268.215, 1482.989 2269.659, 1487.748 2249.750 C 1493.218 2226.862, 1497.789 2204.218, 1499.911 2189.500 L 1501.640 2177.500 1521.570 2177.200 C 1548.193 2176.799, 1556.733 2178.083, 1603.500 2189.513 C 1643.967 2199.403, 1651.194 2200.401, 1682.500 2200.423 C 1709.956 2200.442, 1720.304 2199.618, 1737.500 2196.042 C 1759.741 2191.418, 1774.156 2182.353, 1776.530 2171.500 C 1776.891 2169.850, 1777.366 2167.819, 1777.585 2166.987 C 1777.880 2165.868, 1767.044 2160.008, 1736.007 2144.503 C 1703.506 2128.268, 1694.484 2123.365, 1696.044 2122.788 C 1697.152 2122.378, 1710.308 2119.568, 1725.279 2116.544 C 1771.066 2107.294, 1804.398 2103.305, 1827.750 2104.279 L 1841 2104.832 1841.180 2101.666 C 1841.772 2091.223, 1839.279 2085.312, 1831.112 2077.796 C 1814.414 2062.428, 1771.634 2049.424, 1726.392 2045.965 C 1708.802 2044.619, 1670.921 2045.139, 1650.139 2047.011 C 1633.052 2048.550, 1631.318 2048.307, 1604.401 2040.582 C 1565.809 2029.507, 1527.602 2017.296, 1509.500 2010.250 C 1473.372 1996.189, 1445.828 1977.579, 1431.403 1957.482 C 1419.417 1940.782, 1411.505 1915.948, 1407.357 1882 C 1405.044 1863.074, 1405.039 1819.396, 1407.347 1796 C 1411.828 1750.573, 1421.639 1684.068, 1430.582 1638.500 C 1444.047 1569.889, 1463.494 1520.819, 1482.852 1506.608 C 1506.547 1489.215, 1558.938 1470.816, 1683.500 1436.145 C 1738.505 1420.834, 1783.066 1411.477, 1806.500 1410.316 C 1817.213 1409.785, 1948.967 1414.459, 1954.662 1415.572 C 1956.098 1415.852, 1958.082 1418.265, 1960.565 1422.747 C 1989.100 1474.270, 2029.473 1500.989, 2084.708 1504.905 C 2134.142 1508.411, 2175.224 1490.573, 2210.542 1450.271 C 2224.973 1433.802, 2236.786 1413.777, 2242.882 1395.446 C 2254.862 1359.424, 2252.575 1317.402, 2236.832 1284.265 C 2225.620 1260.667, 2205.777 1239.044, 2180.179 1222.534 C 2176.153 1219.936, 2173.081 1217.291, 2173.353 1216.656 C 2194.479 1167.245, 2206.547 1130.171, 2212.172 1097.403 C 2215.983 1075.204, 2215.081 1040.218, 2209.906 1009.500 C 2201.190 957.754, 2179.362 909.735, 2145.381 867.551 C 2119.368 835.258, 2078.314 800.756, 2036.500 776.047 C 2031.550 773.122, 2026.510 770.119, 2025.299 769.374 C 2023.106 768.023, 2023.127 767.963, 2031.595 751.576 C 2036.268 742.532, 2041.523 731.390, 2043.274 726.816 C 2046.270 718.987, 2046.450 717.768, 2046.351 706 C 2045.957 658.796, 2024.893 621.493, 1986.815 600.562 C 1979.068 596.304, 1954.594 588.408, 1933.500 583.362 C 1925.250 581.388, 1917.589 579.430, 1916.475 579.010 C 1914.978 578.447, 1913.962 576.326, 1912.579 570.874 C 1911.550 566.818, 1908.485 556.525, 1905.767 548 C 1864.274 417.815, 1773.292 325.478, 1662.500 301.111 C 1639.180 295.982, 1608.823 293.597, 1586 295.100 C 1561.211 296.733, 1515.351 303.748, 1477.605 311.682 C 1468.197 313.660, 1459.375 315.465, 1458 315.694 C 1455.845 316.052, 1453.809 314.180, 1443.251 302.134 C 1395.199 247.304, 1354.999 214.317, 1306.123 189.610 C 1268.922 170.805, 1232.028 160.016, 1189.500 155.506 C 1174.255 153.889, 1131.293 153.664, 1113 155.105 M 1057.047 896.250 L 1057.094 918.500 1090.136 956 C 1108.309 976.625, 1127.866 998.825, 1133.596 1005.333 L 1144.014 1017.165 1143.757 951.342 L 1143.500 885.519 1123.776 882.335 C 1097.330 878.065, 1066.937 874, 1061.456 874 L 1057 874 1057.047 896.250 M 1399 1002.582 L 1399 1131.163 1402.750 1128.901 C 1435.058 1109.415, 1454.704 1094.446, 1476.036 1073.065 C 1514.724 1034.287, 1534 990.369, 1534 941.003 L 1534 933.217 1530.164 931.682 C 1521.738 928.311, 1476.378 908.249, 1439.548 891.604 C 1418.125 881.922, 1400.238 874, 1399.798 874 C 1399.359 874, 1399 931.862, 1399 1002.582 M 865.500 1010.500 C 811.203 1026.353, 777.711 1043.162, 764.406 1061.235 C 760.607 1066.396, 757 1074.817, 757 1078.527 C 757 1079.345, 762.276 1079.876, 774.750 1080.315 C 801.254 1081.247, 818.278 1084.007, 868.500 1095.513 C 909.567 1104.922, 939.569 1110, 954.092 1110 C 959.598 1110, 961.459 1109.019, 958.924 1107.453 C 956.666 1106.057, 932.042 1075.744, 919.553 1058.984 C 912.374 1049.351, 901.325 1033.505, 895 1023.771 C 888.436 1013.669, 882.856 1006.084, 882 1006.097 C 881.175 1006.110, 873.750 1008.092, 865.500 1010.500 M 0.462 1200 C 0.462 1226.125, 0.591 1236.813, 0.749 1223.750 C 0.907 1210.688, 0.907 1189.313, 0.749 1176.250 C 0.591 1163.188, 0.462 1173.875, 0.462 1200 M 1569.500 1250.645 C 1535.400 1274.648, 1502.325 1298.154, 1496 1302.883 C 1465.672 1325.554, 1437.627 1351.633, 1411.057 1381.871 L 1404.614 1389.203 1423.813 1379.593 C 1504.263 1339.326, 1592.131 1309.082, 1681.750 1290.813 C 1690.687 1288.991, 1697.887 1287.185, 1697.750 1286.799 C 1697.235 1285.353, 1632.873 1207, 1632.201 1207.002 C 1631.816 1207.004, 1603.600 1226.643, 1569.500 1250.645 M 791.456 1261.038 C 747.556 1263.520, 703.535 1275.026, 667 1293.568 L 656.500 1298.897 671 1298.958 C 769.817 1299.375, 881.924 1357.462, 1004 1471.500 C 1008.125 1475.353, 1012.574 1479.404, 1013.886 1480.503 L 1016.272 1482.500 1015.713 1455.500 C 1015.090 1425.361, 1013.946 1416.595, 1008.515 1400.349 C 1000.543 1376.501, 985.790 1353.655, 965.024 1333 C 943.431 1311.523, 917.933 1292.895, 893.500 1280.747 C 860.694 1264.436, 831.403 1258.779, 791.456 1261.038" stroke="none" fill="#9bd3ab" fill-rule="evenodd"/></svg>