<svg xmlns="http://www.w3.org/2000/svg" width="2400" height="2400" viewBox="0 0 2400 2400" version="1.1"><path d="M 1349.396 270.669 C 1206.072 391.049, 1072.499 530.516, 956.888 680.500 C 882.619 776.849, 809.889 885.432, 758.152 977.206 C 661.810 1148.100, 608.018 1300.920, 593.005 1446.377 C 587.192 1502.700, 588.321 1572.280, 596.065 1635 C 607.775 1729.843, 634.975 1816.160, 676.647 1890.722 C 751.275 2024.249, 863.903 2116.945, 1001.321 2157.935 C 1100.107 2187.402, 1219.999 2192.831, 1321.852 2172.450 C 1417.470 2153.317, 1498.785 2114.033, 1576.500 2049.430 C 1594.212 2034.706, 1637.788 1990.906, 1653.407 1972.127 C 1732.134 1877.472, 1776.147 1771.953, 1788.440 1648.397 C 1800.239 1529.800, 1780.782 1428.742, 1724.405 1315.811 C 1702.531 1271.994, 1683.699 1241.266, 1651.648 1197.098 C 1600.781 1127.001, 1468.076 936.868, 1441.675 896.261 C 1392.216 820.187, 1356.806 736.384, 1340.140 655.960 C 1328.424 599.427, 1324.701 536.858, 1329.995 485.500 C 1335.777 429.409, 1346.363 366.795, 1364.629 280.639 C 1367.645 266.416, 1369.928 254.594, 1369.702 254.369 C 1369.476 254.143, 1360.339 261.478, 1349.396 270.669 M 1511.567 1222.388 C 1519.150 1243.278, 1520.009 1277.559, 1513.949 1317.458 C 1506.390 1367.229, 1494.777 1410.658, 1461.936 1511.961 L 1440.792 1577.185 1441.925 1589.842 C 1444.006 1613.082, 1448.990 1629.601, 1458.157 1643.643 C 1471.131 1663.518, 1491.698 1675.986, 1520 1681.135 C 1531.688 1683.262, 1566.290 1682.973, 1576.836 1680.661 C 1603.872 1674.733, 1623.314 1661.863, 1637.548 1640.471 C 1654.390 1615.159, 1662.288 1581.227, 1662.329 1534 C 1662.366 1491.958, 1654.309 1451.353, 1635.740 1400 C 1609.130 1326.407, 1574.375 1268.138, 1538.518 1237 C 1530.208 1229.783, 1517.333 1220.340, 1511.891 1217.470 L 1509.283 1216.095 1511.567 1222.388" stroke="none" fill="#041c24" fill-rule="evenodd"/><path d="M 1148.500 0.606 C 1145.750 0.803, 1135.400 1.442, 1125.500 2.028 C 950.298 12.383, 776.133 62.797, 622 147.770 C 494.800 217.896, 381.225 310.567, 285.913 422 C 133.266 600.466, 35.517 824.061, 8.092 1057.500 C 1.868 1110.482, 0.500 1136.158, 0.500 1200 C 0.500 1255.791, 1.019 1269.608, 4.597 1309 C 25.857 1543.105, 114.203 1763.244, 260.837 1947.500 C 307.684 2006.366, 363.262 2063.817, 422 2114.095 C 509.341 2188.856, 613.249 2253.864, 719.749 2300.373 C 837.160 2351.648, 962.511 2383.734, 1091 2395.403 C 1130.392 2398.981, 1144.209 2399.500, 1200 2399.500 C 1255.791 2399.500, 1269.608 2398.981, 1309 2395.403 C 1542.504 2374.197, 1762.551 2286.065, 1946.181 2140.202 C 2005.972 2092.708, 2063.358 2037.275, 2114.095 1978 C 2188.853 1890.663, 2254.060 1786.430, 2300.364 1680.251 C 2350.418 1565.473, 2382.093 1443.887, 2394.475 1319 C 2396.537 1298.208, 2398.981 1263.194, 2398.992 1254.309 C 2398.996 1250.354, 2399.450 1246.840, 2400 1246.500 C 2400.644 1246.102, 2401 1229.137, 2401 1198.882 C 2401 1167.803, 2400.661 1152.091, 2400 1152.500 C 2399.368 1152.890, 2398.997 1150.425, 2398.992 1145.809 C 2398.981 1136.823, 2396.548 1101.904, 2394.475 1081 C 2371.697 851.266, 2283.913 634.740, 2140.202 453.819 C 2092.708 394.028, 2037.275 336.642, 1978 285.905 C 1864.419 188.683, 1729.359 111.905, 1586.546 63.376 C 1488.498 30.057, 1393.255 10.926, 1283 2.401 C 1263.968 0.930, 1162.834 -0.420, 1148.500 0.606 M 1349.396 270.669 C 1206.072 391.049, 1072.499 530.516, 956.888 680.500 C 882.619 776.849, 809.889 885.432, 758.152 977.206 C 661.810 1148.100, 608.018 1300.920, 593.005 1446.377 C 587.192 1502.700, 588.321 1572.280, 596.065 1635 C 607.775 1729.843, 634.975 1816.160, 676.647 1890.722 C 751.275 2024.249, 863.903 2116.945, 1001.321 2157.935 C 1100.107 2187.402, 1219.999 2192.831, 1321.852 2172.450 C 1417.470 2153.317, 1498.785 2114.033, 1576.500 2049.430 C 1594.212 2034.706, 1637.788 1990.906, 1653.407 1972.127 C 1732.134 1877.472, 1776.147 1771.953, 1788.440 1648.397 C 1800.239 1529.800, 1780.782 1428.742, 1724.405 1315.811 C 1702.531 1271.994, 1683.699 1241.266, 1651.648 1197.098 C 1600.781 1127.001, 1468.076 936.868, 1441.675 896.261 C 1392.216 820.187, 1356.806 736.384, 1340.140 655.960 C 1328.424 599.427, 1324.701 536.858, 1329.995 485.500 C 1335.777 429.409, 1346.363 366.795, 1364.629 280.639 C 1367.645 266.416, 1369.928 254.594, 1369.702 254.369 C 1369.476 254.143, 1360.339 261.478, 1349.396 270.669 M 0.462 1200 C 0.462 1226.125, 0.591 1236.813, 0.749 1223.750 C 0.907 1210.688, 0.907 1189.313, 0.749 1176.250 C 0.591 1163.188, 0.462 1173.875, 0.462 1200 M 1511.567 1222.388 C 1519.150 1243.278, 1520.009 1277.559, 1513.949 1317.458 C 1506.390 1367.229, 1494.777 1410.658, 1461.936 1511.961 L 1440.792 1577.185 1441.925 1589.842 C 1444.006 1613.082, 1448.990 1629.601, 1458.157 1643.643 C 1471.131 1663.518, 1491.698 1675.986, 1520 1681.135 C 1531.688 1683.262, 1566.290 1682.973, 1576.836 1680.661 C 1603.872 1674.733, 1623.314 1661.863, 1637.548 1640.471 C 1654.390 1615.159, 1662.288 1581.227, 1662.329 1534 C 1662.366 1491.958, 1654.309 1451.353, 1635.740 1400 C 1609.130 1326.407, 1574.375 1268.138, 1538.518 1237 C 1530.208 1229.783, 1517.333 1220.340, 1511.891 1217.470 L 1509.283 1216.095 1511.567 1222.388" stroke="none" fill="#abe3fb" fill-rule="evenodd"/></svg>