<?xml version="1.0" standalone="no"?>
<!DOCTYPE svg PUBLIC "-//W3C//DTD SVG 20010904//EN"
 "http://www.w3.org/TR/2001/REC-SVG-20010904/DTD/svg10.dtd">
<svg version="1.0" xmlns="http://www.w3.org/2000/svg"
 width="1024.000000pt" height="1024.000000pt" viewBox="0 0 1024.000000 1024.000000"
 preserveAspectRatio="xMidYMid meet">
<metadata>
Created by potrace 1.16, written by Peter Selinger 2001-2019
</metadata>
<g transform="translate(0.000000,1024.000000) scale(0.100000,-0.100000)"
fill="#000000" stroke="none">
<path d="M4880 10004 c-880 -60 -1707 -334 -2400 -797 -718 -480 -1330 -1187
-1730 -2002 -108 -219 -140 -295 -205 -490 -231 -684 -318 -1402 -249 -2059
110 -1060 474 -1947 1122 -2741 182 -222 433 -481 627 -647 541 -461 1215
-812 1895 -987 1099 -282 2209 -189 3200 269 786 364 1420 894 1956 1635 250
347 412 632 564 995 171 407 314 998 372 1540 18 167 15 619 -6 815 -55 520
-180 1027 -352 1423 -238 549 -592 1099 -960 1492 -230 246 -391 396 -596 553
-564 433 -1209 738 -1888 891 -138 32 -382 72 -550 91 -128 15 -669 28 -800
19z m620 -85 c380 -24 786 -104 1160 -228 161 -53 189 -64 405 -158 138 -60
378 -179 485 -241 56 -33 285 -180 325 -209 320 -234 375 -281 605 -512 231
-233 235 -237 219 -246 -8 -5 -10 -4 -5 3 4 7 2 12 -6 12 -7 0 -36 24 -65 52
-48 47 -57 53 -98 53 l-45 0 -6 46 c-5 39 -15 56 -58 100 -76 79 -184 178
-259 239 -36 29 -64 57 -61 62 3 5 1 7 -4 6 -6 -2 -34 15 -64 36 -29 22 -75
56 -103 76 -27 21 -77 55 -110 77 -126 85 -246 163 -249 163 -2 0 -41 21 -87
46 -509 282 -985 449 -1545 543 -474 79 -1144 73 -1619 -14 -658 -122 -1231
-351 -1770 -708 -220 -146 -474 -354 -633 -521 -55 -57 -63 -70 -60 -98 3 -33
2 -33 -46 -39 -48 -5 -53 -9 -177 -137 -70 -73 -131 -132 -134 -132 -26 0 122
168 330 375 441 439 887 740 1452 981 463 198 1025 335 1533 373 157 12 504
12 690 0z m169 -93 c814 -87 1627 -406 2281 -897 109 -82 269 -223 205 -181
-16 11 -38 29 -49 41 -10 11 -23 18 -27 15 -5 -3 -9 -1 -9 4 0 5 -7 9 -15 9
-18 0 -19 -9 -3 -25 26 -26 -4 -10 -39 21 -87 76 -380 275 -553 374 -762 438
-1622 645 -2501 603 -524 -25 -1065 -141 -1524 -327 -119 -48 -433 -201 -530
-257 -33 -19 -77 -44 -97 -56 -21 -11 -77 -46 -125 -77 -47 -31 -96 -58 -107
-59 -12 -1 -25 -3 -30 -3 -5 -1 -6 -4 -3 -8 8 -7 -11 -33 -25 -33 -5 0 -7 4
-4 9 4 5 -3 7 -13 4 -11 -3 -22 -11 -25 -18 -3 -10 0 -12 12 -8 9 3 -3 -10
-27 -30 -38 -30 -48 -34 -69 -26 -18 7 -28 6 -33 -3 -4 -7 -11 -10 -14 -6 -7
7 188 155 283 214 35 21 105 65 155 97 119 74 498 262 652 322 418 165 913
278 1375 315 155 13 691 3 859 -14z m-47 -106 c48 -7 86 -15 84 -19 -2 -3 27
-7 64 -8 88 -2 284 -30 379 -54 80 -20 89 -25 76 -36 -4 -5 -10 -2 -12 5 -3 6
-9 12 -14 12 -6 0 -7 -5 -3 -12 5 -8 0 -9 -17 -5 -13 4 -31 7 -39 8 -10 0 -9
3 5 9 13 6 2 7 -32 3 -35 -4 -53 -2 -53 5 0 7 -13 9 -34 5 -47 -7 -115 5 -95
18 10 7 7 8 -11 7 -14 -2 -28 -7 -32 -13 -10 -13 -197 -10 -211 4 -7 7 13 9
64 6 51 -2 60 -2 29 3 -40 6 -43 8 -25 19 18 11 17 12 -15 11 -19 0 -48 2 -65
6 -16 3 -21 3 -10 0 51 -15 30 -21 -31 -9 -111 21 -264 29 -264 15 0 -9 -18
-11 -67 -6 -39 3 -108 0 -160 -7 -51 -7 -93 -10 -93 -6 0 4 19 10 43 12 l42 4
-48 1 c-26 1 -60 -4 -75 -12 -37 -18 -382 -48 -408 -35 -17 9 -169 10 -156 1
10 -6 0 -12 -30 -17 l-43 -8 35 -6 c30 -6 24 -8 -45 -18 -57 -8 -83 -9 -90 -1
-7 7 -3 9 13 5 12 -3 20 -1 16 4 -3 5 0 9 7 9 7 0 10 2 8 4 -3 3 -22 1 -43 -4
-34 -7 -142 -3 -134 6 2 1 62 13 133 25 136 24 288 32 278 15 -4 -5 1 -7 11
-3 10 4 25 7 33 7 24 0 9 10 -23 16 -16 3 -31 8 -34 11 -3 3 15 2 40 -2 78
-15 137 -9 117 12 -4 4 -13 1 -19 -5 -7 -7 -21 -12 -32 -12 -15 0 -17 3 -9 11
11 11 42 15 228 29 154 11 662 4 767 -10z m-55 -145 c553 -48 1052 -189 1563
-445 454 -226 849 -503 1184 -830 198 -193 427 -456 501 -575 l19 -30 -28 25
c-16 14 -83 88 -150 165 -167 193 -199 226 -381 405 -172 170 -237 226 -385
336 -596 444 -1205 722 -1868 854 -270 53 -437 70 -750 77 -725 15 -1376 -122
-2017 -425 -187 -88 -429 -222 -495 -275 l-25 -19 25 7 c31 8 198 92 300 150
262 148 625 292 980 389 96 26 412 85 576 107 632 84 1299 20 1924 -184 541
-177 1188 -555 1611 -943 141 -128 371 -375 505 -539 81 -99 302 -451 291
-462 -2 -2 -26 7 -53 19 -42 19 -65 23 -164 22 -103 0 -121 -3 -173 -27 -86
-39 -115 -63 -159 -131 -38 -58 -40 -64 -35 -126 2 -37 15 -92 29 -128 l26
-63 -32 -24 c-49 -37 -138 -75 -178 -75 -25 0 -46 8 -67 26 -49 41 -58 23 -11
-20 42 -38 44 -38 102 -33 38 3 85 18 135 41 42 20 78 35 80 33 2 -3 -13 -19
-34 -37 -81 -72 -231 -113 -273 -75 -31 28 -170 251 -170 273 0 11 4 32 10 46
13 36 -20 96 -92 168 -51 50 -58 62 -58 96 0 21 3 41 6 44 3 4 22 -1 42 -9 30
-12 61 -14 157 -9 l120 7 23 -34 c24 -36 30 -104 12 -137 -8 -16 -7 -18 4 -14
18 7 36 57 36 101 0 18 -11 56 -25 83 l-25 49 24 16 c36 24 113 22 164 -4 48
-24 68 -21 52 10 -15 26 4 59 34 59 12 0 44 -11 69 -24 48 -24 61 -21 30 6
-33 29 -82 48 -121 48 -39 0 -205 -57 -251 -87 -33 -21 -43 -5 -26 49 22 73
40 101 102 158 74 68 171 115 236 115 l49 0 -34 28 c-18 15 -58 42 -88 60 -65
37 -139 43 -184 13 -38 -24 -44 -13 -18 33 46 82 52 97 52 143 0 46 -42 172
-61 183 -11 8 -36 -43 -54 -112 -14 -52 -14 -68 1 -159 16 -100 16 -102 -6
-173 -12 -39 -25 -92 -29 -118 l-8 -48 -8 40 c-18 92 -73 160 -152 190 -26 10
-54 22 -60 28 -18 14 -16 57 4 79 19 21 14 31 -11 22 -41 -16 -66 -123 -47
-201 16 -63 32 -78 117 -119 40 -19 85 -49 102 -68 30 -34 69 -122 59 -132 -3
-3 -20 2 -38 12 -59 30 -85 33 -151 18 -70 -17 -86 -15 -172 16 -53 19 -60 20
-68 6 -5 -9 -16 -16 -24 -16 -9 0 -32 -7 -51 -16 l-34 -17 -47 45 c-26 24 -77
71 -114 102 -60 52 -68 62 -68 95 -1 62 -38 91 -118 91 -41 0 -58 6 -106 41
-383 274 -909 499 -1343 574 -280 48 -638 67 -873 46 -223 -19 -541 -81 -760
-147 -197 -60 -575 -233 -784 -359 -225 -135 -454 -315 -645 -506 -181 -181
-297 -324 -459 -566 -45 -67 -87 -125 -93 -129 -30 -18 -98 -6 -170 28 -78 38
-138 82 -128 93 4 3 38 -9 75 -28 81 -40 163 -61 196 -48 22 9 57 42 73 69 4
8 -12 0 -35 -17 -24 -17 -54 -31 -68 -31 -33 0 -163 64 -191 94 l-21 22 21 45
c13 26 24 72 27 112 2 37 9 67 14 67 16 0 -43 101 -83 141 -23 23 -71 55 -107
72 -57 27 -81 32 -162 35 -99 4 -93 6 -239 -55 -15 -7 26 72 127 241 114 192
246 353 490 599 195 197 298 288 510 447 91 69 173 136 181 150 19 29 20 29
-89 -44 -343 -229 -669 -538 -1047 -992 -29 -34 -57 -65 -63 -69 -16 -10 57
102 104 160 467 572 918 939 1541 1255 562 285 1071 426 1750 483 120 10 534
5 692 -8z m-112 -1165 c150 -14 389 -54 510 -85 229 -59 505 -163 710 -268
213 -109 444 -257 445 -284 0 -26 -40 -11 -126 45 -393 258 -769 416 -1181
496 -359 69 -741 80 -1113 31 -313 -41 -733 -171 -1022 -316 -437 -219 -858
-558 -1133 -913 -16 -22 -39 -51 -51 -65 -77 -96 -206 -303 -284 -459 -37 -72
-70 -129 -73 -125 -28 28 36 173 176 398 35 57 142 204 226 310 279 354 752
725 1184 928 292 137 724 259 1047 296 52 6 109 13 125 15 71 8 459 5 560 -4z
m-14 -121 c174 -14 429 -58 429 -75 0 -2 -11 -21 -25 -42 -43 -65 -58 -179
-29 -220 l15 -22 37 19 c48 25 119 123 166 228 3 5 119 -31 213 -66 183 -68
395 -164 447 -203 17 -14 17 -15 -10 -32 -41 -26 -93 -82 -104 -112 -14 -35
-12 -77 3 -97 11 -17 16 -16 72 12 34 17 84 54 114 86 29 30 59 55 65 55 14 0
155 -91 156 -100 0 -3 -51 -36 -112 -73 -62 -37 -160 -98 -218 -135 l-105 -69
-51 39 c-28 21 -56 38 -62 38 -6 0 -15 6 -19 13 -21 32 -270 172 -388 217 -11
4 -38 15 -59 24 -22 10 -58 21 -80 26 -23 4 -72 18 -111 29 -110 34 -202 51
-303 58 -81 5 -95 9 -106 27 -61 100 -121 206 -156 274 -22 45 -45 82 -50 82
-15 0 -51 -55 -145 -218 -63 -108 -95 -154 -109 -156 -12 -2 -71 -9 -131 -15
-103 -10 -283 -49 -323 -69 -9 -5 -35 -13 -57 -17 -22 -4 -58 -15 -80 -25 -22
-10 -51 -21 -65 -25 -36 -11 -270 -133 -307 -161 -17 -13 -35 -24 -40 -24 -4
0 -14 -9 -21 -20 -7 -11 -17 -20 -23 -20 -10 0 -153 -114 -197 -157 -11 -11
-18 -10 -40 5 -15 11 -56 35 -92 54 -36 19 -99 56 -141 80 -42 25 -89 49 -105
52 -39 9 -74 -18 -111 -82 -15 -26 -48 -83 -74 -127 -26 -44 -53 -93 -61 -110
-7 -16 -15 -32 -19 -35 -7 -6 -99 -161 -142 -241 -15 -29 -51 -91 -81 -138
-75 -123 -146 -268 -146 -300 0 -15 8 -36 19 -47 45 -47 83 -74 103 -74 19 0
17 -3 -12 -18 -25 -12 -35 -24 -35 -41 0 -29 43 -47 150 -62 74 -10 273 -59
440 -108 294 -86 350 -103 355 -109 3 -4 31 -20 64 -37 33 -17 80 -54 110 -86
134 -145 171 -348 126 -699 -47 -369 4 -650 160 -880 50 -74 145 -178 192
-213 21 -15 48 -37 59 -48 46 -46 260 -159 301 -159 8 0 18 -4 24 -9 13 -13
157 -48 232 -56 35 -3 72 -9 83 -14 20 -7 20 -7 -2 -35 -12 -16 -50 -41 -84
-56 -66 -30 -78 -42 -161 -169 -61 -94 -68 -135 -35 -206 23 -51 41 -66 91
-72 22 -3 43 -10 46 -14 12 -20 -30 -20 -97 1 -154 48 -297 -5 -395 -145 -24
-33 -46 -117 -46 -170 0 -19 -4 -35 -8 -35 -19 0 -25 28 -22 100 4 86 -11 132
-57 176 -28 27 -30 32 -24 84 4 41 1 65 -10 87 -19 36 -76 66 -120 61 -29 -3
-32 0 -30 24 1 15 16 57 33 93 26 54 43 74 98 116 37 28 79 70 94 93 37 60 73
86 119 86 66 0 102 -58 62 -102 -23 -26 -42 -23 -80 14 -28 27 -35 30 -43 18
-43 -68 61 -131 146 -87 114 59 52 217 -86 217 -42 0 -105 -27 -121 -52 -6
-10 -20 54 -23 103 0 16 -6 25 -13 22 -6 -3 -18 8 -26 24 -26 50 -116 124
-191 155 -61 26 -82 30 -154 29 -157 -3 -276 -85 -342 -237 -31 -70 -35 -75
-59 -69 -58 15 -103 70 -71 90 6 3 10 13 10 21 0 19 -35 17 -85 -5 l-39 -17
-22 25 c-49 59 -106 159 -124 219 -35 111 -21 271 31 362 29 51 121 129 172
146 70 23 160 15 214 -19 93 -59 122 -138 83 -223 l-23 -49 -9 42 c-12 58 -55
93 -112 93 -36 0 -51 -7 -87 -38 -41 -37 -43 -42 -47 -104 -18 -280 365 -272
459 9 65 196 -56 428 -256 492 -94 31 -134 33 -220 16 -122 -26 -236 -93 -284
-168 -11 -18 -39 -57 -60 -87 -42 -58 -81 -154 -81 -201 0 -15 -5 -31 -11 -35
-9 -5 -10 -43 -5 -136 8 -149 37 -266 93 -370 l36 -66 -32 -40 c-54 -69 -72
-151 -54 -243 9 -48 114 -149 154 -149 28 0 29 2 29 43 0 24 -5 81 -11 126
-14 107 -2 125 44 66 62 -80 173 -182 238 -218 l66 -36 7 -83 c17 -210 108
-470 231 -659 71 -108 225 -270 325 -341 111 -78 269 -141 400 -160 l25 -4
-31 -19 c-60 -39 -94 -74 -129 -134 -22 -38 -43 -61 -54 -61 -48 0 -309 100
-471 181 -158 79 -150 71 -108 113 46 46 71 115 57 155 l-10 29 -44 -15 c-50
-17 -89 -52 -116 -105 -11 -21 -24 -38 -29 -38 -12 0 -254 161 -258 172 -2 4
-8 8 -14 8 -5 0 -28 16 -51 35 -23 19 -80 67 -127 106 -114 95 -174 160 -157
172 7 5 4 6 -9 2 -25 -7 -56 20 -144 125 -30 35 -69 79 -87 97 -29 31 -164
214 -188 254 -5 10 -36 61 -68 113 -56 93 -99 173 -150 286 -46 101 -51 93 65
113 56 10 107 22 113 29 7 8 3 9 -15 4 -56 -15 -158 -18 -193 -7 -20 7 -52 30
-71 52 -39 46 -99 155 -94 170 2 6 14 -9 27 -33 32 -58 68 -96 116 -121 42
-21 124 -29 160 -14 17 7 13 11 -28 25 -128 45 -248 189 -231 278 9 48 34 73
67 67 61 -12 114 54 123 153 6 76 15 88 97 133 l45 24 27 -21 c36 -29 76 -28
109 3 25 23 27 32 31 116 1 15 9 35 19 44 27 27 116 164 140 215 12 25 31 59
44 77 12 17 22 43 22 57 0 15 -26 70 -59 124 -32 53 -75 129 -95 169 -19 40
-49 86 -65 102 -17 17 -26 33 -21 36 11 7 1 83 -16 117 -27 53 -82 63 -125 22
l-26 -25 -49 27 c-72 39 -81 50 -88 106 -5 37 -15 58 -37 81 -27 26 -35 29
-74 24 -38 -6 -45 -4 -59 18 -23 35 -20 78 11 143 51 108 150 180 252 183 67
2 -7 17 -88 18 -87 1 -145 -21 -173 -66 -24 -38 -22 -15 2 47 11 28 20 59 20
69 0 44 152 390 215 490 110 174 188 287 275 395 79 99 311 324 440 426 36 28
72 57 81 64 18 15 133 96 158 111 9 6 18 12 21 15 3 3 23 17 45 31 74 48 77
47 152 -28 94 -94 179 -120 191 -59 7 33 -46 121 -93 156 -42 32 -44 35 -28
52 22 24 229 125 373 181 98 38 251 87 273 87 3 0 21 -28 39 -62 33 -63 114
-154 156 -177 20 -11 23 -9 33 16 17 43 5 161 -21 216 -12 26 -20 50 -17 53
10 10 170 41 297 58 69 8 136 17 150 20 57 8 407 5 531 -5z m-273 -696 c18 22
136 64 200 71 28 4 52 5 52 3 0 -3 -28 -14 -62 -27 -35 -12 -97 -35 -140 -51
l-76 -29 -73 31 c-41 16 -97 37 -126 45 -29 9 -53 20 -53 26 0 11 226 434 244
457 8 10 12 -59 16 -264 4 -233 7 -275 18 -262z m-260 240 c-2 -5 -16 -32 -31
-60 -24 -47 -31 -53 -60 -53 -55 0 -209 -30 -287 -56 -154 -52 -295 -145 -352
-234 -17 -25 -17 -25 -11 15 7 49 35 97 71 124 15 11 24 22 21 26 -17 16 -330
-205 -419 -296 -38 -39 -51 -39 -100 0 -30 24 -27 27 85 121 105 87 216 158
345 218 241 113 409 159 733 201 5 1 7 -2 5 -6z m632 -13 c115 -14 346 -74
448 -116 136 -56 301 -142 405 -211 53 -36 100 -70 104 -76 6 -10 -53 -67 -69
-67 -5 0 -43 26 -86 59 -90 68 -226 162 -262 181 -24 13 -24 12 -10 -6 8 -10
21 -25 28 -33 28 -29 45 -63 52 -103 l8 -42 -47 49 c-25 28 -67 67 -91 87 -99
80 -309 157 -476 173 -49 5 -74 12 -80 24 -6 9 -20 33 -33 54 l-23 37 24 0
c13 0 62 -5 108 -10z m1664 -106 c21 -8 4 -25 -62 -58 -48 -24 -174 -102 -270
-167 -47 -32 -62 -37 -38 -13 9 8 16 20 16 25 0 15 -17 10 -24 -7 -3 -9 -13
-14 -21 -11 -9 4 -12 1 -8 -9 4 -10 0 -12 -13 -7 -12 4 -15 3 -10 -5 4 -7 2
-12 -4 -12 -6 0 -18 -7 -27 -15 -8 -8 -19 -13 -24 -10 -5 4 -9 1 -9 -4 0 -6
-11 -11 -25 -11 -25 0 -36 -19 -12 -21 9 0 9 -2 0 -5 -7 -3 -22 0 -34 6 -15 8
-19 9 -15 1 10 -15 -13 -36 -57 -51 -30 -12 -34 -16 -24 -28 10 -13 8 -14 -12
-7 -16 5 -21 4 -17 -4 4 -6 1 -11 -6 -11 -9 0 -9 -3 2 -10 11 -7 7 -8 -15 -4
-22 4 -38 0 -55 -14 -14 -11 -22 -23 -18 -27 3 -4 16 3 28 15 12 12 25 19 28
15 15 -15 -131 -110 -155 -100 -8 3 -11 0 -8 -6 4 -6 -2 -13 -14 -16 -12 -3
-21 -9 -21 -14 0 -5 -8 -9 -18 -9 -21 0 -56 -33 -45 -43 3 -4 -1 -7 -10 -7
-38 0 -21 18 121 129 78 61 212 159 272 199 198 130 269 172 404 241 161 82
172 86 200 75z m-2388 -63 c-3 -5 32 -60 79 -122 47 -63 95 -134 107 -159 13
-24 28 -49 33 -56 6 -6 23 -40 38 -75 48 -109 82 -172 92 -171 6 0 26 37 46
83 48 110 139 268 200 346 27 35 49 65 49 69 0 3 9 17 20 31 11 14 20 35 20
46 0 18 5 19 53 13 61 -8 238 -55 252 -67 5 -5 17 -9 27 -9 10 0 21 -7 24 -15
4 -8 10 -13 14 -10 29 18 270 -197 270 -242 0 -16 4 -21 15 -17 8 4 15 1 15
-5 0 -6 7 -11 15 -11 17 0 19 17 15 105 -2 49 0 58 11 49 78 -60 106 -82 125
-102 l23 -22 -76 -63 c-43 -34 -101 -84 -131 -110 -30 -27 -56 -46 -59 -43 -3
3 -18 -11 -33 -32 -26 -37 -50 -59 -145 -137 -67 -54 -80 -67 -236 -218 -74
-73 -171 -163 -214 -202 -68 -60 -114 -112 -256 -285 -15 -19 -51 -62 -80 -95
-28 -33 -71 -87 -95 -120 -25 -33 -51 -68 -59 -77 -8 -9 -23 -34 -33 -54 l-19
-38 -21 56 c-23 62 -75 146 -118 194 -40 43 -122 104 -141 104 -9 0 -24 7 -33
15 -33 30 -139 48 -250 43 -86 -5 -119 -11 -185 -37 -44 -17 -85 -31 -92 -31
-6 0 -13 -6 -15 -12 -5 -14 -97 -14 -107 -1 -3 5 -13 10 -21 12 -8 2 -81 20
-163 41 -81 20 -150 39 -153 42 -3 3 15 43 40 88 26 45 46 84 46 86 0 2 16 25
36 51 19 25 51 78 71 117 20 39 63 118 97 176 34 58 70 123 81 145 10 22 29
57 42 77 49 80 25 131 -92 193 -80 41 -82 47 -32 83 23 17 53 41 67 54 14 13
48 40 75 61 l50 38 12 -73 c6 -40 12 -74 12 -75 1 -2 7 -3 15 -3 8 0 21 19 31
43 20 50 44 79 58 70 5 -3 7 -1 4 4 -11 18 105 116 183 155 87 43 186 76 285
93 87 16 118 18 111 6z m2510 -187 c35 -31 64 -59 64 -64 0 -9 -109 -63 -172
-86 l-38 -13 15 36 c19 46 19 73 -2 103 -13 18 -14 25 -4 28 7 2 22 15 34 27
12 13 26 24 31 24 5 1 37 -24 72 -55z m-3951 -34 c28 -16 105 -60 173 -96 67
-37 120 -69 118 -71 -2 -3 -12 0 -23 6 -27 16 -94 41 -107 41 -16 -1 25 -30
41 -30 24 0 236 -107 307 -154 38 -26 76 -45 85 -43 11 2 5 10 -21 26 -50 30
-48 37 2 11 46 -23 48 -35 19 -84 -22 -38 -45 -49 -36 -17 5 21 -37 80 -49 69
-4 -5 1 -17 11 -28 10 -11 16 -22 13 -25 -5 -5 -129 66 -247 142 -41 26 -87
53 -102 60 -54 23 -275 158 -296 181 -21 22 -21 26 -7 48 18 26 9 29 119 -36z
m4365 -36 c14 -36 12 -84 -2 -88 -7 -2 -48 -11 -92 -21 -290 -64 -1049 -402
-1361 -606 -112 -73 -357 -251 -391 -284 -6 -6 -31 -27 -55 -46 -24 -18 -57
-48 -74 -66 -37 -39 -136 -113 -150 -113 -20 0 -114 -115 -153 -189 -32 -60
-47 -105 -67 -206 -33 -168 -50 -226 -85 -294 -45 -88 -121 -157 -232 -209
-68 -31 -59 -14 17 33 75 46 89 70 18 28 -107 -61 -177 -112 -154 -113 8 0 1
-13 -18 -32 -39 -40 -55 -89 -47 -144 7 -53 -6 -57 -34 -11 -13 21 -20 50 -20
83 0 80 37 140 157 257 159 155 205 228 298 475 58 155 221 353 460 559 257
221 749 519 1130 682 55 24 141 61 190 84 50 22 200 86 335 143 268 113 313
124 330 78z m-6013 -54 c72 -32 124 -79 151 -138 56 -122 -8 -264 -118 -261
-36 1 -34 3 11 13 27 6 79 51 79 69 0 6 -10 1 -23 -11 -33 -31 -43 -27 -12 5
26 28 33 53 15 53 -5 0 -10 -4 -10 -10 0 -18 -45 -62 -77 -76 -49 -21 -50 -17
-5 16 23 16 51 48 62 69 21 43 27 125 10 151 -7 11 -10 1 -10 -35 0 -80 -47
-134 -116 -135 -18 0 -42 9 -55 19 l-24 19 25 21 c14 11 28 20 31 21 12 0 29
53 29 90 0 68 -45 96 -143 88 -119 -10 -242 -102 -299 -223 -29 -64 -30 -69
-25 -173 3 -59 7 -118 9 -130 2 -19 -4 -27 -35 -39 -48 -20 -56 -12 -73 68
-20 99 14 234 91 354 41 64 65 85 145 130 130 74 265 90 367 45z m1596 0 c26
-16 52 -30 57 -30 5 0 15 -6 22 -12 8 -7 29 -22 48 -32 119 -65 191 -107 231
-134 40 -27 45 -36 47 -69 0 -21 8 -58 16 -83 l15 -45 0 48 c1 30 -3 46 -9 42
-5 -3 -10 1 -10 10 0 9 4 14 9 11 5 -4 7 3 4 14 -4 14 0 20 12 20 11 0 15 -5
12 -14 -4 -9 -1 -13 6 -10 9 3 12 -7 12 -31 -1 -19 2 -35 6 -35 11 0 0 -60
-16 -85 -17 -28 -9 -50 13 -33 13 11 14 9 8 -17 -4 -16 -22 -55 -40 -85 -48
-80 -116 -206 -116 -215 0 -23 113 162 191 315 45 86 75 128 85 118 3 -4 -10
-32 -30 -62 -20 -30 -36 -58 -36 -63 0 -4 -23 -46 -51 -93 -28 -47 -61 -106
-75 -132 -13 -25 -41 -67 -63 -92 -22 -26 -48 -63 -57 -84 -10 -20 -18 -38
-20 -40 -6 -10 -504 285 -504 299 0 5 -7 5 -17 2 -11 -4 -14 -3 -9 5 7 12 -5
16 -31 13 -16 -2 -17 15 -3 24 9 5 -51 55 -65 55 -17 0 0 -20 25 -30 17 -7 30
-16 30 -21 0 -14 -12 -11 -49 12 -32 19 -55 19 -35 -1 8 -8 202 -121 404 -236
131 -74 232 -132 236 -137 2 -2 -10 -31 -29 -63 -40 -71 -52 -74 -167 -43 -76
20 -82 24 -101 61 -21 41 -70 78 -104 78 -32 0 -85 -37 -79 -55 4 -8 4 -15 1
-15 -9 0 -159 82 -195 107 -19 12 -51 30 -73 40 -21 9 -39 22 -39 29 0 12 57
125 126 251 l35 63 87 -57 c48 -31 98 -64 112 -73 14 -9 74 -40 134 -69 98
-49 113 -53 156 -48 94 11 179 69 240 162 37 57 42 71 42 124 0 109 -68 219
-162 264 -86 42 -239 16 -313 -52 -45 -41 -87 -136 -87 -197 0 -45 19 -125 45
-187 5 -12 -15 -2 -58 27 -35 25 -69 46 -75 46 -6 0 -12 4 -14 9 -1 4 -22 20
-46 35 l-43 27 47 87 c26 48 52 93 57 101 6 7 12 19 13 26 3 18 54 85 65 85 5
0 8 3 8 8 -5 32 14 44 25 16 5 -12 2 -15 -11 -10 -14 6 -16 5 -6 -5 10 -10 18
-8 40 13 16 15 39 29 53 33 28 7 76 43 68 50 -3 3 -18 -1 -34 -10 -16 -8 -37
-12 -46 -9 -12 3 -16 1 -13 -8 3 -7 -4 -19 -15 -26 -19 -12 -20 -10 -18 20 3
30 55 128 69 128 3 0 26 -13 52 -30z m5566 -4 c55 -20 160 -95 193 -138 90
-119 141 -317 107 -419 -17 -50 -24 -54 -69 -39 l-41 14 8 40 c4 23 8 88 8
146 0 98 -2 109 -29 158 -40 71 -121 150 -193 187 -109 55 -224 36 -247 -43
-12 -44 -1 -76 42 -118 l37 -36 -24 -19 c-75 -61 -176 27 -159 141 3 23 2 27
-8 19 -23 -19 -27 -85 -8 -141 10 -29 18 -57 19 -61 0 -5 9 -15 19 -23 27 -20
6 -18 -22 2 -13 9 -27 25 -31 37 -6 16 -9 17 -13 5 -7 -17 52 -84 87 -99 15
-7 9 -8 -22 -5 -79 8 -123 65 -123 163 0 98 51 176 145 219 93 43 220 47 324
10z m-1078 -86 c36 -27 66 -68 74 -106 l7 -29 -17 30 c-23 42 -25 42 -19 3 7
-39 8 -38 -81 -40 -27 0 -41 -3 -30 -6 11 -2 -29 -15 -90 -27 -115 -24 -139
-23 -131 4 9 26 -8 45 -30 33 -21 -11 -121 -42 -136 -42 -5 0 -7 4 -3 10 3 5
-7 5 -25 -1 -16 -6 -27 -15 -24 -20 3 -5 -3 -9 -13 -9 -15 0 -16 -2 -3 -10 9
-6 10 -10 3 -10 -6 0 -15 5 -18 10 -3 6 -14 10 -23 10 -15 0 -15 -2 -2 -10 11
-7 7 -10 -17 -10 -23 0 -33 -5 -33 -15 0 -11 -11 -15 -36 -15 -21 0 -33 -4
-29 -10 8 -13 -43 -32 -66 -25 -20 7 -78 -21 -93 -44 -7 -11 -10 -11 -17 0 -7
11 -9 10 -9 -5 0 -12 -5 -16 -16 -12 -20 8 -65 -4 -58 -15 3 -5 -1 -6 -9 -3
-8 3 -20 -2 -27 -11 -7 -8 -21 -15 -32 -15 -13 0 -18 -5 -15 -13 4 -10 -2 -13
-19 -9 -19 3 -23 1 -18 -11 4 -12 1 -14 -15 -10 -12 3 -41 -4 -66 -16 -25 -11
-50 -21 -57 -21 -10 0 -10 -2 1 -9 9 -6 -6 -17 -53 -40 -36 -17 -72 -31 -79
-31 -7 0 -22 -6 -33 -14 -23 -16 -105 -34 -89 -19 75 70 352 225 575 323 143
63 429 172 570 218 69 22 139 45 155 51 52 17 114 13 146 -9z m-4263 -106 c81
-33 139 -122 149 -228 4 -47 2 -70 -11 -94 -20 -38 -29 -42 -16 -6 13 33 13
110 0 153 -14 49 -57 107 -97 131 -19 11 -36 20 -38 20 -2 0 -4 -17 -3 -38 0
-43 -21 -124 -37 -134 -6 -5 -4 -8 6 -8 9 0 22 7 29 15 9 11 17 12 31 4 10 -5
19 -6 19 -1 0 5 10 14 23 20 21 10 20 11 -10 11 -35 1 -39 7 -20 31 19 24 38
18 58 -20 23 -42 25 -117 4 -187 -13 -43 -23 -56 -63 -81 -117 -76 -262 -66
-323 20 -13 18 -30 38 -38 44 -11 9 -15 34 -15 100 -1 78 2 95 26 141 31 57
67 88 130 108 59 18 151 18 196 -1z m4461 -288 c106 -161 171 -298 171 -357
l-1 -44 -63 120 c-77 148 -126 232 -177 309 -21 32 -39 61 -39 65 0 6 21 31
26 31 1 0 38 -56 83 -124z m-140 -9 c112 -169 211 -379 256 -542 9 -33 23 -80
32 -105 29 -85 29 -88 -4 -53 -17 18 -43 37 -57 43 -30 11 -144 12 -191 1 -27
-6 -25 -8 20 -12 101 -11 190 -78 238 -182 31 -65 33 -93 10 -142 -19 -40 -20
-40 -59 -20 -25 13 -31 13 -59 -3 -37 -22 -65 -75 -65 -124 0 -31 -5 -39 -37
-59 -21 -12 -48 -31 -60 -42 l-22 -20 -26 32 c-35 41 -76 42 -116 2 -28 -29
-35 -57 -30 -131 1 -28 -6 -41 -32 -55 -30 -16 -207 -351 -207 -391 0 -15 11
-42 25 -60 14 -18 25 -35 25 -38 0 -3 34 -61 75 -130 41 -69 75 -136 75 -148
0 -13 7 -32 15 -42 8 -11 15 -30 15 -42 0 -29 44 -64 80 -64 15 0 38 9 51 19
23 19 24 19 64 -1 88 -45 102 -61 107 -130 3 -35 13 -79 22 -97 19 -37 76 -66
111 -57 18 5 25 -1 41 -35 32 -73 19 -117 -66 -211 -36 -41 -72 -68 -121 -92
-60 -28 -67 -34 -47 -40 34 -9 79 -6 116 8 37 13 130 85 132 101 1 12 50 73
50 62 0 -21 -56 -114 -93 -154 -53 -58 -89 -73 -174 -74 -56 -1 -63 -2 -38
-10 16 -5 56 -11 87 -15 32 -4 58 -10 58 -14 0 -21 -188 -379 -246 -470 -38
-58 -71 -107 -74 -110 -3 -3 -26 -34 -51 -70 -115 -169 -386 -436 -609 -601
-119 -88 -313 -219 -324 -219 -6 0 -20 21 -30 48 -11 26 -27 54 -36 63 -26 26
-76 49 -105 49 -26 0 -26 -2 -24 -52 2 -60 10 -80 50 -126 16 -18 29 -36 29
-41 0 -9 -208 -114 -305 -154 -70 -29 -298 -107 -311 -107 -6 0 -22 27 -37 60
-22 47 -42 72 -93 113 l-66 52 45 7 c179 26 366 127 520 281 l47 47 40 -20
c50 -25 48 -26 101 10 49 32 83 84 94 143 4 21 13 37 21 37 8 0 14 -5 14 -10
0 -16 80 -50 116 -50 80 0 148 44 182 118 22 48 24 64 19 133 l-5 77 28 12
c41 17 57 39 69 92 14 59 11 65 -98 232 l-83 129 29 23 c17 13 42 48 57 79 14
30 43 74 65 98 21 23 42 52 45 65 4 12 12 22 17 22 6 0 7 -48 3 -125 -6 -111
-5 -125 10 -131 23 -9 101 41 140 89 29 36 31 44 31 120 0 83 -6 103 -60 194
-19 31 -19 32 2 75 75 151 102 261 99 413 -4 224 -49 331 -200 477 -99 96
-237 145 -358 128 -142 -20 -233 -76 -306 -188 -56 -85 -67 -126 -64 -240 2
-119 59 -206 185 -282 102 -61 240 -4 283 116 15 44 16 57 5 95 -23 80 -73
119 -153 119 -32 0 -47 -7 -72 -33 -18 -17 -35 -39 -39 -47 -10 -27 -27 10
-27 61 0 53 34 108 94 154 130 99 340 3 417 -192 19 -47 23 -78 23 -163 1
-100 -1 -108 -33 -170 -47 -92 -102 -176 -124 -190 -15 -9 -29 -8 -68 6 -53
19 -70 14 -51 -16 7 -11 12 -26 12 -35 0 -22 -75 -68 -98 -60 -11 3 -49 42
-84 87 -34 44 -68 86 -73 92 -60 64 -133 173 -186 276 -74 145 -153 277 -222
373 -27 37 -48 69 -46 71 2 1 20 12 39 24 25 15 39 34 51 69 15 45 18 48 70
64 70 21 148 61 176 91 34 36 55 96 49 137 -5 36 -3 38 43 60 72 34 184 122
204 161 17 33 18 75 4 110 -5 11 14 25 76 54 59 28 98 55 139 98 55 56 58 61
58 109 0 28 -4 58 -9 68 -8 14 -1 24 36 52 90 67 141 122 148 162 9 49 0 81
-31 110 l-26 24 54 28 c77 40 101 59 133 104 23 35 27 48 23 89 -4 46 -3 49
24 61 29 13 91 62 155 123 48 45 73 104 73 171 0 39 4 57 13 57 6 0 37 14 67
30 30 16 57 29 60 29 3 0 21 -23 39 -52z m-294 -47 c19 -7 26 -16 23 -32 -3
-19 -10 -22 -63 -25 -104 -6 -376 -57 -555 -104 -192 -51 -230 -62 -305 -84
-44 -13 -140 -45 -213 -70 -73 -25 -137 -43 -142 -40 -6 4 -10 1 -10 -5 0 -6
-4 -8 -10 -5 -5 3 -10 1 -10 -4 0 -6 -4 -11 -10 -11 -5 0 -6 9 -2 21 14 36
374 189 633 268 99 30 282 73 379 90 76 12 253 13 285 1z m-5620 -89 c99 -46
145 -145 145 -311 0 -89 -10 -162 -27 -210 -3 -8 -12 40 -19 108 -14 130 -40
206 -74 215 -15 4 -17 12 -13 49 5 40 2 47 -22 66 -31 24 -56 27 -87 11 -25
-13 -28 -10 -35 39 -5 38 -4 41 23 45 55 8 69 6 109 -12z m6529 13 c18 -7 21
-46 5 -75 -7 -15 -16 -18 -32 -13 -34 11 -79 5 -100 -14 -15 -13 -17 -25 -12
-60 5 -37 4 -44 -12 -48 -37 -10 -61 -91 -72 -244 -7 -91 -8 -94 -21 -65 -10
21 -14 74 -15 180 0 148 0 151 32 217 27 58 39 71 85 97 51 30 105 39 142 25z
m1189 -19 c34 -32 34 -52 2 -67 -14 -6 -25 -19 -25 -29 0 -10 18 -87 39 -171
127 -497 173 -979 141 -1498 -6 -91 -12 -215 -15 -275 -4 -119 -47 -466 -71
-580 -8 -38 -19 -90 -24 -115 -38 -194 -153 -562 -244 -785 -66 -160 -169
-366 -178 -352 -5 8 -8 4 -8 -11 0 -25 -23 -74 -83 -175 -38 -65 -68 -100 -54
-63 4 11 3 15 -4 10 -6 -3 -9 -15 -6 -25 7 -28 -138 -253 -156 -242 -6 3 -7 2
-4 -4 4 -6 -11 -34 -33 -63 -49 -65 -53 -69 -45 -45 5 15 4 17 -3 6 -6 -8 -8
-21 -4 -29 4 -11 1 -14 -11 -9 -9 3 -19 2 -22 -3 -3 -4 -1 -10 4 -12 5 -1 -7
-23 -25 -47 -19 -24 -34 -37 -34 -29 0 8 9 23 20 33 11 10 20 24 20 32 0 7 7
25 16 38 10 15 12 25 5 25 -14 0 -44 -47 -37 -59 3 -5 -7 -23 -23 -40 -15 -16
-26 -33 -22 -37 3 -4 -2 -4 -11 -1 -21 7 -22 3 -7 -25 10 -18 9 -20 -9 -16
-12 4 -29 -2 -40 -13 -19 -17 -20 -17 -27 4 -6 19 -8 19 -12 5 -7 -26 -38 -22
-57 7 -17 25 -16 25 7 20 70 -18 186 102 375 386 194 291 305 500 416 782 154
391 204 570 286 1026 72 403 81 483 87 822 4 209 2 354 -6 430 -31 301 -120
739 -211 1033 -16 54 -30 107 -30 117 0 15 70 69 90 69 3 0 18 -11 33 -25z
m-8928 -17 l35 -33 -40 -125 c-79 -247 -153 -581 -185 -843 -21 -167 -33 -543
-23 -734 35 -753 195 -1387 508 -2018 106 -214 197 -370 326 -556 169 -244
263 -337 320 -315 9 3 14 3 12 -1 -2 -5 -18 -37 -36 -73 -18 -36 -32 -58 -32
-50 0 9 -23 38 -51 65 -123 121 -365 456 -498 692 -150 266 -312 646 -404 948
-107 351 -157 603 -203 1015 -24 213 -24 701 0 930 25 250 71 509 137 770 32
129 59 242 59 252 0 9 -12 25 -27 36 -26 19 -27 20 -10 46 25 37 68 35 112 -6z
m837 13 c183 -50 326 -203 395 -421 24 -75 27 -101 28 -220 l0 -135 -36 -75
c-20 -41 -56 -98 -80 -127 -55 -65 -172 -143 -214 -143 -34 1 -64 19 -58 37 3
8 -11 13 -38 15 l-43 3 53 29 c144 78 241 246 241 419 0 153 -101 336 -219
397 -231 118 -500 8 -626 -255 -19 -40 -35 -78 -35 -84 0 -7 -5 -9 -10 -6 -7
4 -9 -2 -4 -19 4 -18 2 -28 -9 -32 -27 -10 -50 -90 -51 -175 -1 -87 -11 -98
-44 -51 -48 67 -66 210 -41 322 27 120 106 267 192 358 70 74 212 152 312 172
76 15 217 11 287 -9z m7457 4 c234 -56 419 -252 490 -520 16 -58 13 -196 -4
-244 -17 -50 -53 -103 -64 -96 -5 2 -11 42 -14 87 -3 46 -13 103 -21 128 -17
49 -17 45 0 -70 11 -71 -4 -41 -30 61 -28 109 -61 189 -106 254 -172 251 -482
298 -667 102 -94 -99 -139 -222 -131 -355 9 -141 76 -271 178 -346 31 -23 67
-49 80 -59 l25 -18 -29 5 c-23 3 -36 -2 -57 -25 -26 -28 -69 -40 -69 -19 0 6
-7 10 -15 10 -32 0 -102 45 -155 99 -163 167 -189 386 -80 661 70 175 221 308
394 345 83 18 197 18 275 0z m-3524 -292 c-22 -58 -120 -187 -179 -236 -26
-21 -78 -85 -116 -141 -58 -87 -131 -166 -154 -166 -3 0 6 20 19 44 33 60 31
69 -6 26 l-31 -35 23 40 c51 89 191 261 368 453 91 99 109 103 76 15z m696 67
c24 -13 24 -35 0 -57 -64 -61 -91 -82 -155 -121 -109 -68 -238 -142 -247 -142
-5 0 -9 -4 -9 -10 0 -5 -4 -10 -10 -10 -5 0 -10 6 -10 14 0 8 -7 21 -15 30
-14 14 -12 19 22 54 47 48 116 103 208 167 114 79 171 98 216 75z m1099 -39
c14 -4 26 -16 28 -26 2 -15 1 -17 -6 -6 -7 9 -15 10 -28 4 -24 -12 -87 -18
-186 -18 -43 0 -70 -2 -61 -6 8 -3 -51 -15 -133 -28 -82 -12 -165 -26 -184
-31 -19 -5 -80 -16 -135 -25 -55 -10 -128 -26 -162 -36 -34 -11 -96 -25 -137
-32 -70 -12 -76 -12 -76 4 0 39 404 149 675 183 186 24 355 31 405 17z m-5745
-25 c44 -19 85 -54 118 -101 l20 -30 -34 32 c-20 19 -53 36 -79 42 -62 15
-177 12 -225 -4 -35 -13 -36 -14 -7 -9 73 12 242 2 242 -15 0 -4 15 -16 34
-26 45 -25 37 -35 -16 -23 -24 5 -82 8 -129 6 -70 -3 -93 -9 -131 -31 -53 -31
-88 -81 -95 -136 -15 -108 109 -216 217 -189 62 16 87 69 58 121 -12 22 -12
21 -18 -8 -6 -35 -37 -46 -57 -19 -39 54 20 144 107 163 58 12 91 3 133 -37
54 -52 55 -157 2 -248 -69 -118 -235 -177 -351 -125 -60 27 -109 91 -134 175
-28 93 -28 95 -29 70 -1 -12 6 -56 15 -98 8 -42 13 -82 11 -89 -9 -22 -46 79
-56 149 -12 88 -7 148 18 213 30 74 17 62 -23 -23 -48 -102 -59 -150 -54 -258
2 -76 8 -103 30 -148 38 -78 114 -149 239 -225 60 -37 112 -71 115 -77 8 -12
-11 -3 -36 17 -20 17 -250 99 -256 92 -7 -7 66 -39 144 -62 34 -10 62 -22 62
-27 0 -11 -4 -11 -91 12 -118 29 -194 68 -269 137 -13 12 -26 21 -28 18 -7 -7
33 -54 47 -55 8 0 12 -3 8 -6 -10 -10 17 -32 32 -26 10 4 13 1 8 -12 -5 -11
-3 -15 5 -10 7 5 9 2 5 -9 -8 -21 65 -57 119 -58 30 0 34 -2 19 -8 -20 -9 33
-18 127 -24 21 -1 38 -6 38 -10 0 -9 -62 -5 -150 9 -103 16 -214 92 -262 180
-98 181 -36 506 131 686 59 64 101 90 184 113 65 19 187 14 242 -9z m7437 4
c196 -60 334 -275 363 -565 10 -105 -25 -223 -83 -279 -102 -98 -158 -124
-282 -131 l-95 -5 80 15 c132 25 169 35 195 55 19 15 21 20 8 20 -9 0 -20 -4
-23 -10 -3 -5 -11 -10 -17 -10 -7 0 -6 6 2 15 7 8 27 15 44 15 21 0 42 10 64
31 30 28 44 69 23 69 -12 0 -35 -29 -38 -48 -2 -18 -33 -45 -41 -37 -3 3 3 15
14 27 19 22 18 21 -21 -2 -22 -13 -50 -28 -62 -34 -13 -6 -23 -14 -23 -18 0
-5 -9 -8 -19 -8 -11 0 -23 -4 -26 -10 -3 -5 -15 -10 -25 -10 -10 0 -31 -5 -47
-11 -15 -6 -48 -12 -72 -14 -44 -3 -44 -3 -15 11 16 7 55 23 87 35 83 30 65
33 -23 3 -103 -34 -118 -26 -35 20 255 142 326 264 281 483 -15 77 -53 179
-62 170 -3 -2 5 -26 17 -53 28 -65 35 -218 13 -286 -9 -26 -19 -50 -23 -52 -4
-3 0 18 9 47 11 35 15 70 12 107 -5 48 -6 51 -13 25 -5 -23 -7 -13 -9 40 l-3
70 -7 -91 c-5 -51 -13 -100 -19 -110 -10 -18 -10 -18 -10 1 0 11 4 39 8 62 13
67 0 59 -25 -15 -17 -52 -32 -76 -67 -108 -68 -62 -108 -77 -182 -72 -115 10
-202 66 -253 163 -45 86 -30 214 29 246 70 37 138 29 195 -24 43 -41 53 -84
26 -117 l-20 -25 -24 23 c-32 30 -38 28 -38 -12 0 -132 218 -107 276 31 32 76
1 157 -79 207 -41 25 -59 29 -139 33 -65 3 -107 0 -140 -10 -27 -8 -48 -12
-47 -9 1 16 85 73 122 83 24 6 72 9 112 6 56 -5 66 -4 50 6 -33 18 -187 14
-218 -6 -37 -24 -54 -22 -31 4 39 43 131 77 210 78 29 1 81 -8 116 -19z
m-5762 -124 c96 -18 279 -62 405 -96 127 -34 257 -69 290 -77 37 -9 69 -25 83
-40 29 -32 28 -50 -2 -30 -29 19 -363 121 -576 176 -131 34 -386 88 -495 105
-16 3 4 3 45 1 41 -3 154 -20 250 -39z m2926 -52 c13 -18 12 -25 -8 -54 -29
-41 -104 -80 -268 -137 -175 -61 -183 -62 -140 -15 12 12 18 22 14 22 -4 0 3
12 17 26 29 32 107 83 191 125 125 63 170 71 194 33z m-1614 -95 c227 -76 342
-302 363 -713 l4 -89 -43 -51 c-73 -86 -89 -126 -84 -220 4 -98 38 -180 110
-270 129 -161 313 -265 560 -315 45 -10 69 -23 125 -69 84 -71 172 -137 292
-221 50 -35 89 -66 87 -68 -5 -5 -68 27 -77 40 -3 4 -14 5 -25 1 -15 -5 -16
-4 -4 5 30 21 0 22 -35 1 -20 -12 -39 -20 -42 -16 -4 3 -2 6 4 6 5 0 19 8 31
18 l20 18 -32 22 c-50 34 -300 111 -356 109 -9 0 -72 15 -140 33 -137 36 -275
94 -332 140 -20 17 -39 30 -42 30 -4 0 -22 18 -42 40 -20 22 -43 40 -51 40 -8
0 -12 4 -8 9 3 5 1 12 -5 16 -14 8 -49 79 -65 129 -12 39 -13 39 -14 11 -1
-52 28 -154 68 -238 70 -145 170 -234 330 -296 69 -27 165 -49 426 -97 200
-37 384 -115 494 -210 53 -46 154 -171 182 -225 10 -22 18 -39 16 -39 -2 0
-44 23 -92 51 -191 109 -266 142 -440 188 -60 16 -119 32 -129 37 -17 7 -16 3
6 -27 28 -37 64 -126 55 -135 -3 -3 -22 10 -44 28 -21 19 -58 49 -82 68 -36
27 -42 30 -32 12 7 -14 8 -22 2 -22 -26 0 -183 102 -344 223 -64 48 -133 97
-152 109 -60 35 184 -204 255 -250 l65 -42 -46 0 c-96 0 -367 33 -454 55 -173
44 -284 96 -415 195 -173 132 -273 279 -334 491 -51 180 -58 326 -25 587 24
189 22 356 -5 457 -22 80 -74 189 -119 248 -38 49 -34 60 11 29 15 -10 40 -24
55 -32 63 -31 131 -129 230 -325 74 -149 92 -226 117 -525 17 -200 63 -319
162 -423 32 -33 61 -57 65 -53 4 3 -11 25 -34 49 -57 60 -79 94 -112 178 -36
91 -47 152 -61 339 -15 206 -40 298 -123 460 -38 74 -79 149 -90 165 -11 17
20 -9 69 -56 49 -47 125 -113 169 -146 110 -83 130 -103 158 -160 37 -72 41
-110 21 -179 -24 -80 -25 -259 -2 -331 15 -47 64 -143 74 -143 2 0 -5 19 -15
43 -29 66 -41 140 -41 240 0 105 11 152 69 301 69 177 68 306 -5 401 -15 20
-40 43 -56 51 -28 14 -28 15 -12 46 14 28 14 34 -1 74 -21 56 -62 90 -132 110
-68 20 -122 13 -218 -26 -92 -37 -128 -42 -133 -15 -2 11 -16 32 -30 48 -14
15 -23 27 -19 27 10 0 12 0 69 17 212 60 322 69 430 32z m1176 9 c25 -25 13
-61 -36 -107 -26 -25 -61 -53 -77 -61 -45 -22 -107 -62 -132 -84 -13 -11 -25
-18 -27 -15 -2 2 12 37 31 77 41 87 95 145 166 178 61 28 59 28 75 12z m1445
-7 c34 -13 37 -56 6 -95 -26 -34 -124 -91 -191 -111 -54 -17 -338 -34 -563
-34 l-110 0 36 19 c85 45 113 119 62 166 -14 13 -24 26 -22 28 6 4 224 28 349
37 137 10 397 4 433 -10z m-803 -56 c17 -9 30 -19 30 -24 0 -16 -58 -33 -160
-46 -104 -13 -105 -13 -129 10 l-24 23 74 17 c41 9 97 20 124 24 28 5 51 9 53
10 2 0 16 -6 32 -14z m-290 -81 c12 -12 11 -14 -10 -14 -19 0 -22 -2 -10 -9 8
-6 18 -7 22 -5 20 12 5 -20 -20 -46 -34 -33 -127 -64 -224 -75 -37 -3 -70 -11
-73 -16 -4 -5 -10 -9 -15 -9 -4 0 1 17 11 37 21 42 24 69 8 79 -6 3 -7 10 -2
14 7 7 142 48 208 64 31 7 88 -4 105 -20z m-1796 -1 c-4 -10 -9 -37 -12 -60
-3 -37 0 -46 37 -86 26 -28 72 -60 128 -88 59 -29 107 -63 146 -101 61 -60 69
-78 37 -78 -14 0 -20 7 -20 23 0 14 -3 18 -8 10 -6 -9 -18 -4 -42 18 -19 16
-66 48 -105 71 -63 38 -174 128 -157 128 3 0 -4 7 -17 16 -13 9 -19 19 -14 23
5 3 7 28 5 54 -3 40 -7 47 -21 41 -49 -21 -95 -34 -105 -31 -6 3 7 12 29 21
22 9 56 25 75 35 45 24 54 25 44 4z m1444 -65 c48 -48 -56 -130 -227 -177
l-74 -20 7 46 c7 53 15 64 64 95 92 57 202 84 230 56z m1270 -103 c63 -21 21
-103 -84 -162 -140 -78 -268 -99 -539 -88 l-173 7 49 47 c44 42 49 52 49 90 0
37 -5 48 -36 76 -31 29 -33 34 -17 38 27 8 724 0 751 -8z m-778 -30 c12 -11
26 -28 31 -37 9 -16 2 -17 -88 -14 -123 5 -158 13 -190 42 l-25 23 49 4 c26 2
82 4 124 3 62 -1 81 -5 99 -21z m-282 -25 c26 -17 29 -45 6 -54 -9 -3 -63 -6
-121 -6 -91 0 -110 3 -141 22 l-36 22 35 15 c40 16 149 28 199 21 19 -3 45
-12 58 -20z m-3679 -6 c15 -19 21 -41 21 -75 l0 -49 -52 1 c-29 0 -73 8 -98
18 l-45 17 2 48 c1 26 3 49 5 52 2 2 31 -21 63 -51 58 -54 98 -76 58 -32 -37
40 -43 60 -26 79 23 25 48 22 72 -8z m5869 -8 c2 -19 -4 -36 -19 -52 -18 -19
-19 -24 -7 -24 16 0 98 85 98 101 0 5 4 9 9 9 7 0 24 -67 26 -105 0 -14 -92
-43 -141 -44 -54 -1 -69 16 -60 71 9 53 32 80 65 76 20 -2 27 -9 29 -32z
m-7259 -203 c23 -23 67 -60 99 -82 76 -51 109 -88 97 -105 -55 -73 -101 -123
-104 -113 -11 34 -149 197 -167 197 -2 0 -10 -12 -19 -27 l-16 -28 6 31 c3 17
2 41 -3 55 -4 13 -5 40 -1 59 l6 35 2 -40 c2 -32 4 -36 11 -20 7 16 9 12 10
-20 2 -38 2 -39 11 -13 7 19 15 25 27 21 14 -5 13 -3 -2 9 -12 9 -16 20 -11
28 5 9 4 11 -3 6 -8 -5 -12 0 -12 13 0 12 -7 21 -15 21 -8 0 -15 9 -15 19 0
24 -16 36 -24 19 -4 -7 -4 -2 -1 12 2 14 5 48 5 75 l1 50 39 -80 c21 -44 57
-99 79 -122z m8720 32 c6 -38 10 -115 9 -170 -1 -72 -3 -82 -5 -37 -3 46 -8
62 -18 62 -8 0 -15 6 -15 13 0 8 -13 13 -35 13 -29 0 -34 -3 -30 -20 3 -15 -6
-29 -34 -51 -21 -16 -50 -51 -66 -77 -19 -32 -33 -44 -43 -40 -11 4 -13 1 -7
-9 4 -8 -18 13 -49 46 -31 32 -56 62 -56 65 0 12 65 68 126 108 77 51 135 119
171 198 l28 61 7 -46 c3 -25 11 -77 17 -116z m-3932 120 c25 -17 22 -37 -10
-72 -21 -24 -79 -39 -180 -47 -60 -5 -68 -3 -63 10 3 9 6 30 6 47 0 47 12 58
71 67 91 13 153 11 176 -5z m3377 -43 c-23 -20 -97 -68 -165 -107 -101 -57
-141 -87 -215 -160 -118 -117 -165 -192 -212 -335 -35 -109 -37 -122 -37 -245
0 -71 4 -191 9 -265 l8 -135 -41 -85 -41 -85 6 145 c3 80 1 213 -5 296 -25
354 34 559 211 730 79 77 185 137 329 189 42 15 101 42 130 60 69 43 73 42 23
-3z m-7584 -62 c172 -68 244 -112 337 -205 66 -66 90 -98 122 -166 63 -132 71
-200 68 -615 l-2 -352 -35 62 c-38 68 -38 65 -29 404 3 110 1 165 -7 170 -6 4
-15 15 -20 24 -6 11 -9 -1 -10 -42 -1 -33 -7 -81 -15 -107 l-14 -48 -6 100
c-4 76 -11 111 -28 145 -27 52 -51 81 -61 75 -4 -3 -31 20 -59 50 -29 30 -59
55 -67 55 -8 0 -12 5 -9 10 3 6 27 10 53 10 91 0 190 -83 232 -196 6 -15 13
-25 16 -22 13 14 -98 263 -140 315 -111 137 -209 224 -306 273 -55 28 -186
116 -195 131 -4 6 8 3 26 -7 19 -10 86 -38 149 -64z m6793 -7 c4 -21 11 -92
17 -158 5 -66 12 -139 14 -162 5 -40 2 -44 -46 -85 -28 -24 -62 -49 -75 -56
-29 -16 -26 -17 -165 63 -48 27 -132 76 -187 107 -55 32 -104 66 -110 75 -8
16 -4 18 34 18 38 0 50 7 98 50 83 77 164 139 189 147 13 3 46 7 73 8 28 1 70
7 95 14 25 8 48 14 51 15 4 0 9 -16 12 -36z m-6014 7 c81 -11 86 -13 140 -61
31 -28 70 -57 86 -66 17 -8 44 -28 60 -43 17 -15 47 -31 68 -34 21 -4 37 -12
35 -18 -2 -6 -58 -42 -124 -79 -65 -37 -163 -93 -217 -125 -112 -65 -109 -65
-190 10 l-45 43 4 59 c16 225 25 317 30 326 4 5 20 7 38 4 17 -3 69 -11 115
-16z m3466 -60 c44 -10 95 -42 95 -60 0 -3 -10 -17 -21 -29 -19 -21 -27 -22
-77 -16 -31 4 -67 11 -81 17 -38 14 -9 27 64 29 33 1 51 3 40 6 -40 8 -110 36
-117 47 -9 13 12 27 32 21 8 -2 37 -9 65 -15z m-179 -15 c13 -8 28 -24 34 -35
10 -18 7 -22 -24 -35 -20 -8 -65 -15 -102 -15 -59 0 -66 2 -61 18 4 9 12 34
19 56 l13 38 49 -6 c27 -3 59 -12 72 -21z m869 -10 c381 -30 393 -32 365 -83
-21 -38 -155 -125 -231 -151 -92 -31 -187 -25 -409 25 -41 9 -91 19 -110 23
-31 6 -33 8 -13 15 12 4 34 21 48 38 31 36 28 64 -11 116 l-25 32 93 0 c51 0
183 -7 293 -15z m-962 -116 c32 -8 54 -20 65 -37 15 -23 15 -25 -7 -43 -30
-24 -57 -24 -125 2 -31 11 -61 17 -67 13 -15 -9 -6 7 29 54 16 20 31 31 41 28
9 -3 38 -10 64 -17z m-4082 -39 c60 -19 118 -56 215 -138 l39 -33 -35 7 c-19
3 -47 15 -62 25 -14 11 -31 19 -37 19 -6 0 -11 3 -11 8 0 8 -49 39 -94 59 -39
18 -42 16 -15 -7 l24 -20 -40 1 c-62 2 -115 18 -115 34 0 8 5 15 10 15 6 0 10
-7 10 -16 0 -8 5 -12 10 -9 6 3 10 10 10 14 0 14 -44 28 -65 21 -19 -7 -19 -7
0 -18 19 -10 18 -11 -5 -10 -25 1 -60 24 -60 39 0 12 59 27 111 28 26 1 75 -8
110 -19z m7844 0 c29 -11 29 -12 10 -26 -10 -8 -23 -13 -29 -11 -5 2 -26 -15
-48 -37 -21 -23 -37 -36 -36 -31 3 12 -24 55 -34 55 -4 0 -6 -6 -4 -12 1 -7 1
-10 -1 -5 -3 4 -11 7 -19 7 -9 0 -12 5 -9 10 11 17 -43 11 -81 -9 -28 -15 -32
-20 -17 -24 11 -3 6 -5 -12 -6 -19 -1 -51 -17 -84 -41 -30 -22 -64 -40 -79
-40 -14 0 -23 2 -21 4 153 129 168 140 240 167 60 22 169 22 224 -1z m-6545
-173 l-12 -124 -217 -5 c-119 -3 -217 -4 -219 -3 -3 2 130 80 233 136 33 18
96 54 140 79 44 26 82 45 84 44 2 -2 -2 -59 -9 -127z m3539 53 c157 -39 290
-75 298 -81 21 -18 16 -36 -19 -68 -73 -68 -200 -83 -328 -39 -98 34 -276 110
-325 139 l-39 23 38 8 c22 5 45 4 56 -2 31 -17 46 -11 20 7 -34 23 -37 29 -32
63 3 24 8 29 26 25 11 -2 149 -36 305 -75z m-5006 10 c54 -48 92 -108 101
-162 6 -33 5 -37 -11 -31 -31 11 -87 49 -111 75 -24 26 -62 123 -62 158 0 26
17 18 83 -40z m6611 -7 c62 -38 165 -96 227 -131 l114 -63 -109 5 c-60 3 -157
6 -216 6 l-107 0 -17 108 c-17 113 -19 142 -11 142 3 0 56 -30 119 -67z m1431
-19 c-25 -67 -67 -117 -123 -147 l-51 -28 6 38 c10 67 58 134 132 189 44 31
46 32 49 12 2 -11 -4 -40 -13 -64z m-3197 -169 c132 -65 175 -91 184 -111 25
-54 -35 -86 -125 -65 -76 17 -140 49 -272 137 -95 63 -114 80 -102 89 8 6 20
30 27 53 l11 43 52 -31 c29 -17 130 -69 225 -115z m2682 100 c20 -11 21 -14 7
-15 -10 0 -16 -4 -13 -8 2 -4 0 -14 -6 -22 -8 -12 -9 -11 -4 3 4 12 2 17 -6
14 -7 -2 -13 -15 -14 -28 -2 -54 -4 -61 -19 -55 -13 5 -14 2 -4 -15 6 -11 9
-23 6 -25 -9 -9 -29 46 -23 63 6 15 8 15 16 3 8 -13 10 -12 10 3 0 9 0 20 1
24 0 4 -5 9 -13 12 -7 2 -10 0 -6 -4 4 -4 -11 -24 -33 -43 -63 -55 -88 -107
-103 -213 -13 -89 -14 -91 -16 -39 -1 30 -1 73 -1 95 1 30 -1 36 -8 25 -6 -8
-11 -37 -12 -65 l-2 -50 -7 40 c-4 22 -8 34 -9 27 -3 -30 -21 2 -21 37 0 60
62 175 113 210 23 15 49 31 57 34 28 10 85 6 110 -8z m-2936 -157 c80 -61 116
-101 116 -128 0 -93 -145 -51 -295 85 -22 20 -50 43 -62 52 -27 18 -29 29 -7
37 18 7 41 -6 89 -48 28 -25 116 -88 201 -144 18 -12 34 -18 34 -13 0 5 -6 11
-12 14 -15 5 -133 93 -162 119 -11 10 -34 27 -50 39 -48 33 -70 67 -55 85 10
12 22 9 87 -26 41 -23 94 -55 116 -72z m-199 -80 c100 -101 130 -146 121 -184
-9 -33 -49 -32 -115 2 -49 26 -241 211 -241 233 0 15 47 14 54 -1 3 -7 3 -3 0
10 -8 32 12 27 24 -7 10 -29 191 -225 200 -216 3 2 -31 43 -74 91 -43 47 -89
99 -102 115 l-24 29 24 9 c13 6 27 10 32 10 5 1 50 -41 101 -91z m2635 21 c20
-21 42 -55 48 -77 23 -75 9 -389 -18 -416 -5 -5 -43 3 -96 22 -47 18 -94 32
-103 32 -9 0 -43 27 -76 61 -33 33 -87 79 -120 102 -49 34 -68 41 -107 42 -27
0 -48 2 -48 5 1 17 43 46 187 133 272 163 269 162 333 96z m-5874 -27 c67 -38
134 -78 150 -88 16 -11 45 -28 66 -39 79 -41 100 -75 45 -75 -36 0 -144 -70
-220 -141 -64 -60 -77 -68 -173 -99 -57 -18 -107 -31 -110 -27 -22 22 -35 379
-15 429 18 46 81 108 110 108 14 0 81 -31 147 -68z m2961 41 c32 -29 139 -156
152 -180 18 -35 14 -63 -10 -63 -31 0 -141 58 -166 88 -12 15 -22 24 -23 20 0
-8 -7 -1 -65 61 -25 27 -27 33 -15 41 26 16 55 11 69 -12 22 -36 104 -128 113
-128 8 0 -23 46 -82 122 -14 18 -19 35 -15 48 8 25 17 25 42 3z m-370 -46 c45
-30 49 -31 49 -12 0 11 -5 23 -10 27 -7 5 -6 8 2 8 7 0 21 -7 29 -16 9 -8 24
-13 34 -11 12 3 16 0 12 -10 -3 -8 0 -19 8 -24 22 -14 33 -10 19 6 -7 9 -10
18 -6 22 3 3 6 1 6 -6 0 -7 6 -11 14 -8 13 5 56 -31 56 -46 0 -12 -28 -7 -33
6 -3 7 -6 5 -6 -5 -1 -16 22 -24 53 -19 5 1 6 -5 3 -13 -3 -8 1 -17 9 -20 9
-4 12 -2 8 5 -3 6 6 3 20 -6 16 -11 25 -24 22 -32 -4 -8 -1 -11 5 -8 6 4 18 0
27 -8 10 -9 48 -30 86 -48 68 -32 87 -34 196 -28 19 2 62 -5 95 -15 33 -10 67
-19 75 -20 8 -1 26 -8 40 -15 38 -20 149 -105 150 -114 0 -10 -148 -1 -323 19
-306 35 -445 96 -601 265 -54 58 -106 135 -106 156 0 10 24 -1 67 -30z m-1335
-37 c74 -28 163 -108 195 -175 18 -39 23 -67 23 -130 0 -97 -26 -161 -88 -217
-116 -105 -282 -51 -282 92 0 40 47 90 85 90 33 0 75 -41 75 -75 0 -36 -46
-36 -60 0 -11 30 -26 32 -35 5 -9 -28 20 -76 52 -87 84 -29 182 74 183 191 0
98 -68 185 -176 226 -156 59 -345 -31 -427 -203 -44 -93 -51 -134 -51 -272 1
-138 14 -208 58 -312 13 -32 22 -61 19 -65 -2 -5 -15 -8 -28 -8 -26 0 -38 19
-85 136 -61 151 -74 291 -40 432 27 112 62 181 133 258 121 131 291 175 449
114z m3384 16 c168 -45 301 -188 351 -376 22 -84 21 -242 -2 -329 -26 -103
-102 -261 -123 -261 -4 0 -13 4 -20 9 -11 6 -6 27 22 99 122 318 36 640 -201
750 -82 37 -187 38 -258 0 -132 -69 -182 -194 -125 -312 51 -106 165 -132 200
-46 11 27 11 34 -3 47 -18 19 -49 10 -41 -11 6 -16 -30 -41 -46 -31 -18 11
-10 56 15 80 56 57 145 7 145 -80 0 -103 -119 -164 -225 -116 -86 39 -139 135
-139 251 1 86 23 147 79 216 83 101 235 146 371 110z m-5633 -31 c86 -18 176
-58 252 -111 115 -80 196 -186 298 -389 55 -111 132 -324 125 -347 -4 -11
-124 171 -183 277 -15 28 -32 56 -39 64 -6 8 -17 26 -23 40 l-13 26 6 -25 c8
-28 17 -50 44 -100 11 -19 19 -39 19 -45 0 -5 -5 -1 -11 10 -34 63 -83 128
-132 176 -31 30 -56 58 -56 64 0 5 -24 31 -52 58 -57 52 -164 108 -241 128
-107 26 -233 -10 -315 -91 -49 -49 -65 -76 -82 -145 -36 -144 100 -297 250
-283 58 6 65 -7 15 -28 -47 -19 -84 -18 -149 7 -76 28 -153 110 -184 194 l-10
30 -1 -27 c-1 -14 9 -52 21 -83 19 -51 40 -76 94 -113 17 -11 16 -12 -10 -7
-25 5 -27 4 -13 -9 22 -23 125 -66 150 -63 14 1 21 -3 19 -11 -2 -9 3 -10 15
-4 10 5 36 8 58 7 22 -1 54 2 70 6 27 8 28 7 11 -6 -28 -21 -120 -37 -173 -30
-53 8 -161 62 -208 103 l-29 27 28 -40 c22 -33 18 -30 -27 18 -40 42 -59 73
-72 114 -70 221 75 509 295 588 100 36 157 41 253 20z m7888 -15 c123 -42 211
-121 277 -249 94 -185 78 -339 -48 -469 -29 -28 -57 -52 -63 -52 -5 0 7 17 29
38 78 75 103 124 103 197 0 46 -7 35 -34 -57 -24 -82 -108 -171 -187 -198 -60
-21 -175 -26 -213 -10 -11 5 -15 9 -8 9 6 1 19 4 29 8 11 4 15 3 11 -4 -5 -8
5 -8 31 -2 20 5 51 12 67 16 17 3 35 9 40 13 6 4 21 11 35 15 30 9 51 30 42
40 -4 5 2 5 13 1 11 -4 17 -4 13 -1 -3 4 9 21 28 38 19 18 43 56 54 85 23 61
19 68 -9 13 -27 -52 -104 -118 -155 -133 -53 -15 -133 -14 -171 3 -29 12 -28
13 40 19 72 7 129 30 176 72 37 33 55 66 69 125 10 44 9 61 -5 109 -14 48 -28
69 -84 125 -83 83 -143 105 -253 95 -78 -7 -182 -42 -172 -58 4 -7 2 -8 -4 -4
-13 8 -92 -32 -92 -46 0 -4 -8 -5 -17 -1 -17 5 -17 5 -1 -12 13 -14 20 -16 30
-7 8 6 23 10 33 10 11 -1 33 2 49 6 25 6 28 5 17 -7 -6 -8 -26 -18 -44 -21
-52 -10 -147 -64 -202 -114 -66 -60 -152 -185 -176 -254 -7 -21 -17 -38 -22
-38 -5 0 -6 8 -2 18 12 29 24 72 20 72 -2 0 -26 -43 -52 -96 -69 -137 -126
-191 -96 -91 62 212 158 416 258 548 90 120 197 199 340 250 73 26 227 25 306
-1z m-3397 -98 c3 -5 18 -7 34 -4 18 2 33 -2 41 -12 8 -9 19 -16 26 -16 14 0
125 -118 125 -132 0 -5 -4 -6 -10 -3 -5 3 -10 1 -10 -5 0 -7 7 -10 15 -7 9 4
29 -12 55 -45 41 -52 48 -68 29 -68 -5 0 -8 4 -5 9 3 4 -4 17 -15 27 -19 17
-20 17 -26 -5 -5 -19 -10 -21 -37 -16 -17 4 -36 13 -42 21 -6 8 -19 12 -28 8
-13 -5 -101 36 -116 56 -16 19 -128 98 -134 93 -3 -4 -6 -2 -6 3 0 5 10 15 21
23 18 11 23 11 31 -1 7 -10 11 -9 23 7 13 16 19 17 33 8 9 -6 16 -16 14 -23
-1 -6 1 -9 6 -6 4 2 14 0 22 -5 13 -8 13 -10 0 -20 -12 -8 -11 -9 7 -4 15 4
28 -1 43 -17 l21 -23 -22 -18 c-18 -14 -20 -20 -9 -30 10 -9 11 -9 6 1 -6 10
-1 11 21 7 20 -4 23 -3 9 3 -12 5 -16 11 -9 15 13 8 43 -2 43 -14 0 -5 5 -9
11 -9 7 0 25 -14 41 -31 16 -17 31 -29 32 -27 1 2 8 11 15 21 12 15 12 17 -1
12 -8 -3 -24 3 -37 14 -77 67 -121 114 -115 123 4 6 3 8 -3 5 -5 -3 -34 13
-64 37 -30 24 -61 45 -69 49 -10 3 -8 6 7 6 12 1 24 -3 27 -7z m-896 -252 c18
-21 21 -21 15 -5 -6 18 -4 17 28 -6 54 -40 126 -79 146 -79 13 0 14 -3 5 -8
-9 -6 0 -13 27 -22 21 -7 45 -9 51 -5 8 5 11 4 7 -2 -4 -6 10 -13 34 -17 28
-4 38 -10 33 -19 -5 -7 -2 -7 9 2 10 8 20 11 24 7 3 -3 1 -6 -6 -6 -7 0 -9 -4
-6 -10 3 -5 17 -10 31 -10 14 0 22 -4 19 -10 -3 -5 -1 -10 6 -10 7 0 10 -3 6
-6 -3 -3 -20 1 -38 10 -36 18 -75 23 -49 6 13 -8 13 -10 -2 -10 -9 0 -27 4
-41 9 -14 6 -29 6 -38 0 -11 -7 -10 -9 5 -9 11 0 17 -3 13 -6 -16 -16 -175 64
-160 81 5 4 2 5 -4 1 -16 -9 -105 72 -96 87 3 5 2 7 -4 4 -11 -7 -34 21 -77
93 l-27 45 33 -40 c18 -21 43 -51 56 -65z m830 -46 c25 -4 59 -31 141 -112 60
-59 134 -139 165 -179 31 -40 63 -76 72 -81 8 -5 21 -20 28 -33 7 -14 19 -23
29 -21 9 2 17 -2 17 -8 0 -6 -5 -8 -12 -4 -8 5 -9 2 -5 -9 5 -13 1 -16 -13
-14 -23 4 -92 66 -85 78 7 10 -24 21 -37 12 -6 -3 -8 -1 -5 5 4 5 -14 22 -40
38 -27 15 -64 39 -83 54 -19 15 -73 53 -120 85 -90 61 -240 182 -240 194 0 7
134 4 188 -5z m-3470 -35 c4 -51 -19 -108 -51 -127 -27 -16 -29 -16 -42 1 -11
16 -11 25 1 60 l15 41 -32 -29 c-17 -17 -42 -51 -54 -78 l-22 -47 -12 61 c-7
34 -15 67 -18 75 -3 9 2 14 13 14 11 1 55 16 99 35 44 19 85 33 90 31 6 -1 11
-18 13 -37z m5870 -2 c92 -36 89 -28 60 -131 l-11 -41 -17 38 c-17 38 -57 87
-71 87 -4 0 -3 -16 3 -36 9 -35 1 -53 -23 -54 -22 0 -58 45 -64 80 -9 56 2
103 23 95 10 -3 54 -20 100 -38z m-6768 -8 c84 -38 134 -106 150 -202 8 -52
-1 -97 -19 -97 -5 0 -12 8 -14 18 -4 13 -5 12 -6 -5 0 -12 -5 -24 -10 -28 -6
-3 -7 17 -4 49 3 30 2 63 -2 73 -6 17 -8 16 -15 -3 -17 -43 -128 -37 -202 11
-41 27 -78 89 -78 130 0 14 11 37 25 50 31 32 109 34 175 4z m4593 11 c49 -6
103 -18 120 -26 48 -25 116 -80 169 -138 26 -28 48 -46 48 -39 0 6 -34 47 -75
91 -66 70 -73 81 -59 93 13 11 23 5 65 -42 158 -171 305 -487 328 -704 10
-104 10 -145 -3 -145 -19 0 -87 86 -160 205 -43 69 -80 125 -82 125 -3 0 7
-19 20 -42 14 -24 39 -68 55 -98 16 -30 41 -68 55 -85 25 -29 30 -43 27 -75
-1 -12 0 -12 7 -2 7 10 11 10 22 -3 8 -9 30 -25 51 -36 27 -13 52 -41 86 -95
71 -112 163 -252 205 -310 91 -128 111 -216 66 -295 -12 -22 -27 -39 -34 -39
-7 0 -28 52 -49 118 -46 147 -153 419 -167 428 -8 5 -9 1 -4 -12 62 -150 196
-528 196 -551 0 -2 -13 -3 -29 -3 -41 0 -109 55 -148 119 -31 52 -67 156 -118
341 -15 52 -40 141 -56 196 -16 56 -29 108 -29 117 0 8 -32 53 -70 100 -50 60
-68 91 -64 104 4 14 4 15 -4 4 -8 -11 -12 -10 -21 7 -7 14 -8 23 -1 27 5 3 10
16 9 28 0 19 -1 19 -7 4 -6 -15 -10 -13 -26 13 -10 17 -23 29 -29 27 -7 -3
-13 7 -14 22 l-1 26 19 -24 c11 -13 23 -21 27 -17 4 4 -5 17 -21 28 -15 11
-27 29 -28 41 -1 20 -2 20 -9 -3 -8 -24 -8 -23 -9 8 -1 17 -6 32 -12 32 -6 0
-8 -9 -3 -22 6 -20 4 -20 -16 5 -20 25 -21 31 -10 57 15 36 26 38 36 8 8 -25
86 -140 91 -134 6 6 -9 36 -18 36 -5 0 -9 5 -9 11 0 11 -29 56 -104 159 -22
30 -67 84 -100 119 -53 56 -61 73 -16 35 29 -24 140 -79 140 -69 0 3 -26 18
-59 34 -91 46 -139 83 -226 170 -89 90 -91 87 48 71z m3122 -15 c14 -13 25
-33 25 -45 0 -27 -26 -89 -48 -114 -38 -43 -163 -82 -186 -58 -4 4 -13 7 -19
7 -6 0 -17 11 -24 25 -12 24 -13 23 -14 -20 -1 -25 -2 -57 -2 -72 1 -30 -7
-34 -38 -18 -15 9 -19 22 -19 68 0 72 33 145 85 191 53 46 90 60 158 61 48 0
62 -4 82 -25z m764 -125 c1 -33 -53 -292 -59 -286 -3 2 -6 -12 -8 -32 -5 -74
-110 -464 -129 -482 -3 -3 -2 6 2 18 4 13 8 49 10 80 4 57 53 245 54 207 1
-17 3 -17 11 -5 5 8 10 42 10 75 0 33 5 76 10 97 14 50 48 227 62 321 11 72
13 76 24 55 8 -13 13 -34 13 -48z m-5824 -160 c68 -33 160 -126 174 -176 12
-43 14 -106 5 -141 -5 -19 -13 -23 -49 -23 -23 0 -75 -11 -114 -23 -70 -23
-72 -23 -82 -5 -8 14 -4 32 14 71 35 73 40 107 22 141 -8 15 -15 34 -15 41 0
6 -24 20 -54 30 -47 16 -59 17 -101 5 -63 -18 -181 -96 -229 -151 l-38 -44 7
39 c18 105 113 222 204 251 71 23 194 16 256 -15z m-2237 -86 c118 -23 193
-63 271 -141 70 -71 121 -160 140 -243 15 -65 13 -179 -4 -237 -13 -42 -24
-57 -72 -93 -48 -36 -62 -41 -91 -36 -19 3 -36 7 -38 9 -2 1 9 32 23 67 18 46
28 90 31 147 2 46 8 80 13 77 17 -10 9 12 -19 57 -34 52 -127 139 -185 173
-113 66 -269 89 -402 62 -132 -27 -263 -108 -311 -194 -15 -26 -33 -54 -40
-62 -18 -23 -44 -151 -44 -219 0 -84 -9 -103 -27 -54 -9 22 -15 76 -15 133 0
59 -4 87 -9 75 -14 -36 -10 -242 5 -280 13 -31 13 -35 0 -35 -8 0 -14 -10 -14
-25 0 -14 -4 -25 -9 -25 -4 0 -6 11 -4 24 3 14 -1 25 -10 29 -12 4 -14 -3 -10
-41 6 -64 -12 -35 -26 42 -28 150 -5 323 60 454 46 93 139 201 218 252 134 86
381 122 569 84z m7133 -23 c153 -49 289 -162 357 -297 52 -103 67 -172 67
-314 0 -140 -23 -256 -52 -267 -7 -3 -13 -11 -13 -18 0 -34 -19 -20 -34 24
-15 48 -15 50 14 137 23 67 30 104 29 158 -1 65 -2 68 -10 31 -4 -22 -11 -58
-15 -80 -7 -49 -19 -32 -28 45 -28 224 -141 366 -346 436 -86 30 -251 25 -355
-9 -160 -52 -299 -176 -343 -306 -22 -63 -11 -77 12 -15 26 70 63 134 78 134
6 0 3 -11 -6 -25 -21 -32 -21 -57 1 -30 15 19 15 19 8 -5 -4 -14 -9 -55 -12
-92 -6 -80 15 -154 59 -204 l31 -35 -30 18 c-29 16 -32 16 -47 0 -10 -9 -22
-17 -27 -17 -6 0 -8 -4 -5 -9 15 -24 -40 7 -86 48 -29 25 -48 40 -43 32 5 -9
4 -12 -2 -8 -6 4 -20 27 -32 52 -49 105 -15 314 72 432 125 168 269 227 537
219 105 -4 140 -9 221 -35z m-4987 -45 c6 -26 -1 -80 -15 -108 -5 -9 -33 -24
-63 -33 -32 -10 -68 -31 -91 -53 -32 -31 -37 -33 -31 -14 3 12 9 32 12 43 11
39 76 144 103 166 36 31 77 30 85 -1z m3104 -46 c84 0 132 -17 173 -60 81 -85
91 -210 21 -282 -38 -41 -46 -36 -36 25 15 96 11 173 -10 196 -40 44 -170 63
-287 41 -31 -6 -56 -7 -62 -1 -10 10 91 71 117 71 10 0 14 5 11 10 -3 6 -3 16
2 23 5 9 8 7 11 -5 3 -15 14 -18 60 -18z m-3656 -35 c32 -14 60 -30 63 -35 3
-5 -57 -8 -137 -7 -162 2 -186 -5 -226 -63 -25 -37 -25 -33 -6 -190 l7 -55
-28 25 c-41 38 -55 73 -55 137 0 69 24 125 72 171 46 44 77 52 173 48 60 -3
94 -11 137 -31z m348 17 c0 -4 -4 -12 -9 -17 -18 -19 -50 -170 -54 -260 -15
-286 68 -558 238 -782 28 -37 33 -52 38 -123 4 -45 13 -96 22 -113 13 -29 10
-27 -29 15 -103 110 -183 238 -265 421 -25 54 -49 101 -54 104 -10 6 -6 -39 7
-82 4 -11 -2 -2 -13 21 -35 74 -73 253 -78 365 -6 114 15 227 57 314 23 48
103 139 113 129 4 -4 7 -2 7 4 0 7 5 12 10 12 6 0 10 -4 10 -8z m1661 -82
c-36 -17 -81 -46 -102 -65 l-38 -34 2 -135 2 -135 34 -35 c38 -40 34 -59 -7
-35 -44 24 -61 86 -61 222 -1 94 -4 117 -15 117 -8 0 -17 -6 -19 -12 -4 -8 -6
-7 -6 4 -1 20 -41 13 -41 -8 0 -8 -6 -11 -15 -8 -9 4 -33 -6 -55 -20 -39 -26
-40 -28 -40 -84 0 -31 -3 -80 -6 -109 -6 -46 -8 -50 -22 -37 -12 12 -14 32 -9
99 10 144 27 165 162 200 38 10 95 34 127 53 58 34 100 49 148 51 17 1 4 -9
-39 -29z m384 -11 c5 -5 25 -9 45 -9 52 -1 76 -28 119 -137 59 -146 72 -220
78 -449 6 -201 6 -201 -18 -222 -12 -12 -26 -22 -30 -22 -8 0 -19 37 -19 65 0
37 -57 140 -100 182 -24 23 -68 54 -99 69 -73 37 -182 40 -251 7 -54 -26 -78
-32 -80 -18 0 6 12 13 27 16 65 13 103 61 103 131 0 43 -24 83 -96 159 -35 38
-64 77 -64 87 0 25 25 47 84 73 64 28 123 21 176 -21 21 -16 41 -30 44 -30 3
0 6 34 6 74 l0 75 33 -11 c17 -6 36 -15 42 -19z m-2499 -74 c31 -41 87 -99
125 -130 72 -58 88 -82 43 -65 -40 16 -114 70 -165 120 -54 54 -102 126 -94
140 14 23 38 6 91 -65z m637 0 c9 -20 17 -41 17 -48 0 -7 -36 -45 -79 -85 -51
-46 -88 -90 -104 -122 l-25 -50 -7 47 c-17 123 76 293 161 293 13 0 26 -12 37
-35z m-2215 -5 c23 -13 42 -27 42 -30 0 -4 -21 -8 -46 -9 -162 -6 -310 -220
-289 -417 12 -118 90 -232 183 -271 56 -23 144 -19 197 9 220 117 208 111 222
92 21 -29 26 -83 13 -143 -10 -43 -15 -51 -19 -33 -6 22 -7 21 -20 -8 -19 -45
-23 -32 -5 20 9 25 12 55 8 69 -6 25 -7 25 -20 -12 -15 -44 -48 -93 -84 -124
-39 -35 -46 -27 -11 12 24 27 31 45 31 75 0 44 -14 54 -24 16 -8 -31 -87 -102
-114 -102 -11 0 -18 5 -16 11 3 6 -27 10 -83 10 -92 1 -119 9 -218 70 -91 56
-137 133 -138 236 -1 35 -3 45 -10 33 -5 -9 -7 -49 -5 -88 3 -68 7 -78 53
-147 27 -41 54 -77 59 -81 8 -5 8 -8 1 -8 -18 0 -102 93 -126 140 -30 60 -38
191 -16 276 22 85 79 177 158 257 70 70 74 79 24 49 -56 -34 -123 -111 -169
-194 -39 -69 -46 -77 -42 -48 3 19 3 29 0 22 -3 -7 -16 -24 -28 -37 -13 -14
-22 -33 -21 -44 2 -32 15 -38 15 -8 0 17 5 27 15 27 16 0 21 -16 6 -22 -5 -1
-12 -43 -15 -93 -2 -49 -5 -94 -5 -98 -1 -5 -5 -6 -9 -3 -18 11 -37 126 -37
221 0 91 3 106 32 166 40 86 88 138 164 179 87 46 142 60 229 56 57 -2 86 -8
118 -26z m7127 15 c119 -31 223 -116 273 -224 19 -41 26 -74 28 -145 3 -52 1
-83 -4 -72 -7 15 -10 12 -20 -21 -7 -22 -12 -61 -12 -85 0 -39 -23 -118 -34
-118 -2 0 1 23 6 50 9 51 -3 182 -20 217 -5 10 -20 41 -33 68 -13 28 -43 75
-67 106 -44 58 -150 145 -161 133 -3 -4 0 -9 8 -12 25 -9 120 -109 155 -165
55 -86 89 -197 90 -292 0 -74 -2 -84 -32 -129 -36 -56 -40 -71 -16 -62 14 5
15 4 4 -9 -7 -8 -19 -15 -27 -15 -8 0 -24 -11 -35 -25 -23 -30 -58 -51 -58
-35 0 5 6 10 13 10 15 0 45 38 84 107 22 39 27 60 26 113 -1 36 -6 76 -12 90
-8 21 -10 14 -9 -40 0 -96 -1 -108 -12 -91 -6 11 -12 6 -23 -20 -17 -41 -77
-137 -77 -123 0 5 -10 -3 -23 -19 -12 -15 -46 -36 -76 -47 -50 -18 -52 -18
-37 -1 9 10 34 23 56 30 36 11 58 27 48 36 -2 2 -32 -11 -68 -28 -55 -27 -75
-32 -135 -31 -38 0 -89 7 -112 16 -48 18 -53 15 -20 -12 12 -10 19 -21 16 -24
-10 -10 -89 64 -109 103 l-19 36 -1 -33 c0 -37 23 -97 48 -126 16 -18 16 -18
-5 -8 -27 15 -73 74 -104 132 -17 34 -24 40 -27 26 -5 -22 23 -100 49 -138 22
-30 24 -42 7 -32 -7 5 -8 3 -4 -5 5 -7 14 -10 22 -7 14 5 29 -9 17 -17 -5 -2
-3 -2 4 -1 6 2 29 -6 51 -16 69 -34 128 -43 240 -38 106 5 106 5 57 -10 -57
-16 -249 -12 -268 7 -6 6 -17 11 -25 11 -27 0 -123 72 -117 87 3 10 1 13 -9
10 -21 -8 -66 89 -66 143 0 51 17 120 29 120 5 0 44 -18 87 -40 72 -38 81 -40
108 -28 48 19 107 78 127 126 36 82 22 155 -45 251 -43 60 -44 65 -30 87 9 13
34 32 57 43 59 28 116 16 167 -34 58 -57 84 -124 84 -221 1 -70 -3 -88 -29
-139 -36 -71 -86 -105 -195 -133 -55 -14 -83 -17 -108 -10 -52 15 -51 1 3 -23
59 -26 126 -22 205 12 68 29 122 97 150 186 23 74 25 114 9 199 -29 158 -162
299 -280 296 -27 0 -49 2 -49 6 0 10 55 42 88 52 44 14 134 11 197 -5z m-4739
-67 c-182 -225 -120 -571 139 -778 87 -68 109 -79 44 -21 -35 31 -41 42 -32
52 9 9 20 5 48 -19 59 -53 143 -87 267 -112 50 -10 59 -15 65 -38 4 -15 6 -32
5 -39 -1 -6 8 -19 20 -28 22 -16 20 -17 -44 -11 -189 18 -393 121 -554 281
-90 90 -152 186 -185 289 -22 68 -23 71 -7 148 20 95 54 169 102 224 36 42
106 84 140 84 17 0 16 -3 -8 -32z m1074 -110 c0 -54 41 -188 67 -219 14 -16
40 -36 60 -45 19 -10 41 -27 49 -39 14 -22 10 -55 -7 -55 -20 0 -122 -100
-157 -152 -29 -44 -39 -47 -52 -15 -4 12 -39 54 -76 92 -37 39 -67 73 -66 78
2 7 0 8 -36 12 -12 1 -25 5 -28 8 -10 10 41 59 81 78 53 25 71 57 84 152 11
80 31 132 53 140 21 7 28 -2 28 -35z m-3483 1 c36 -13 83 -58 83 -79 0 -8 -14
-32 -31 -53 -41 -50 -71 -145 -63 -200 12 -75 58 -142 119 -174 28 -15 28 -17
10 -24 -29 -11 -107 -11 -164 2 -62 13 -130 70 -162 136 -18 38 -23 64 -22
123 2 124 49 221 125 259 49 24 65 25 105 10z m2118 -265 c18 -90 53 -169 109
-248 51 -71 157 -178 236 -237 61 -47 224 -127 313 -154 31 -10 56 -19 55 -20
-2 -1 -21 -5 -43 -9 -31 -5 -37 -4 -25 5 13 9 12 10 -4 5 -66 -22 -407 141
-487 231 -99 113 -187 297 -196 408 -6 66 18 180 24 120 2 -16 10 -62 18 -101z
m-1483 -67 c15 -12 52 -53 83 -92 74 -91 320 -366 427 -476 214 -222 424 -379
764 -572 383 -217 845 -356 1324 -398 382 -33 893 36 1282 175 158 56 235 89
418 181 454 226 784 501 1198 998 95 114 180 207 189 207 8 0 55 -39 103 -86
l88 -86 -2 -67 c-1 -85 33 -162 104 -231 67 -65 118 -93 213 -115 42 -11 77
-22 77 -25 0 -8 -219 -257 -253 -288 l-25 -24 -28 41 c-25 39 -26 43 -14 86
18 64 8 124 -26 153 -17 15 -35 22 -48 19 -87 -20 -77 -23 -143 43 -70 68
-132 180 -134 239 -1 36 -1 36 -10 -9 -13 -68 6 -162 53 -257 56 -112 97 -158
176 -196 117 -56 170 -130 122 -169 -27 -22 -71 -23 -109 -3 -16 8 -68 58
-117 111 -49 53 -123 126 -164 162 -86 75 -98 92 -44 63 66 -36 72 -23 9 17
-103 65 -141 132 -116 202 13 38 -3 31 -24 -11 -59 -114 -24 -292 88 -439 23
-30 67 -92 98 -138 48 -69 58 -80 64 -63 3 11 20 32 36 46 36 29 93 34 139 10
25 -13 30 -22 30 -51 0 -53 -32 -105 -106 -173 -72 -66 -74 -78 -3 -32 62 40
299 287 299 312 0 11 99 129 108 129 4 0 13 -13 19 -30 6 -16 17 -30 25 -29 7
0 45 36 83 79 67 75 105 101 91 63 -19 -51 -97 -172 -174 -270 -342 -434 -727
-761 -1250 -1062 -671 -386 -1541 -598 -2262 -552 -514 34 -987 141 -1435 325
-244 101 -629 296 -762 387 -329 224 -665 520 -879 774 -135 160 -290 387
-279 406 10 15 35 11 29 -5 -3 -8 3 -19 15 -25 11 -6 44 -36 75 -66 30 -30 59
-55 65 -55 6 0 16 9 23 20 7 11 17 20 22 20 14 0 84 -78 103 -114 24 -46 209
-243 277 -292 77 -58 94 -56 30 4 -80 73 -114 127 -114 178 0 38 4 45 30 59
63 33 131 13 165 -48 l21 -37 16 33 c9 17 52 83 96 145 142 200 183 347 129
466 -14 31 -29 56 -32 56 -3 0 -1 -9 5 -19 30 -56 -8 -135 -92 -191 -32 -21
-63 -40 -70 -43 -7 -2 -10 -7 -7 -11 8 -8 56 16 107 53 65 46 14 -11 -70 -79
-44 -36 -119 -108 -165 -160 -47 -52 -102 -105 -122 -117 -51 -32 -104 -30
-130 3 -18 23 -19 29 -7 53 21 40 49 62 144 111 75 39 91 53 128 107 80 117
118 261 91 348 l-15 50 -1 -48 c-2 -74 -43 -151 -127 -234 l-72 -73 -38 16
c-44 18 -73 9 -100 -31 -16 -25 -16 -71 1 -155 4 -18 -3 -34 -24 -59 -30 -33
-30 -34 -53 -15 -26 21 -198 210 -198 218 0 3 -14 20 -30 38 l-30 33 52 12
c29 7 62 14 74 17 78 16 211 132 255 221 18 38 24 66 24 120 l0 70 85 82 c47
45 90 83 95 83 6 0 22 -10 37 -23z m2476 -4 l53 -18 -34 -33 c-33 -32 -35 -32
-143 -36 -113 -3 -186 -22 -233 -58 -62 -48 -13 41 56 102 81 71 178 84 301
43z m931 1 c50 -21 98 -60 132 -107 40 -55 38 -75 -3 -44 -50 37 -130 75 -174
81 -28 5 -34 4 -19 -3 16 -8 10 -10 -26 -10 -26 -1 -60 -4 -76 -7 -24 -5 -37
0 -67 27 -45 39 -38 51 44 73 61 17 133 13 189 -10z m-1551 -39 c39 -6 46 -12
63 -49 25 -56 24 -84 -7 -129 -22 -33 -28 -36 -41 -25 -25 20 -83 111 -77 120
10 15 35 8 59 -17 20 -19 25 -21 25 -8 0 9 -22 38 -50 65 -54 52 -60 62 -32
54 9 -2 37 -8 60 -11z m785 -63 c80 -54 124 -132 133 -234 6 -70 -3 -104 -61
-237 -70 -157 -59 -237 61 -449 36 -63 63 -116 61 -119 -3 -2 -32 30 -66 72
-60 75 -72 85 -50 42 l12 -22 -23 20 c-34 30 -103 123 -139 186 -60 107 -62
242 -6 398 52 144 46 220 -21 287 -24 25 -44 47 -44 49 0 3 15 14 32 25 37 22
56 19 111 -18z m505 7 l23 -20 -33 -22 c-18 -12 -43 -42 -56 -67 -30 -58 -26
-111 20 -252 28 -87 33 -118 33 -198 0 -110 -12 -146 -80 -248 -63 -94 -72
-105 -84 -98 -5 4 -13 1 -17 -5 -5 -8 -2 -10 7 -5 8 4 6 1 -3 -7 -10 -8 -18
-18 -18 -23 -1 -5 -12 -22 -26 -39 -15 -17 -24 -22 -20 -12 8 26 0 21 -23 -15
-45 -71 -19 6 48 142 100 203 101 247 14 433 -44 96 -45 100 -40 175 7 106 22
147 70 200 76 82 140 104 185 61z m-758 -43 c0 -2 -16 -28 -35 -57 -20 -29
-43 -78 -52 -111 -14 -49 -20 -58 -39 -58 -41 0 -158 31 -187 49 l-29 18 48
39 c27 21 57 47 68 56 28 26 82 49 99 42 8 -3 17 2 20 10 5 12 20 16 57 16 27
0 50 -2 50 -4z m1065 -41 c44 -25 97 -63 118 -85 l39 -40 -36 -15 c-63 -27
-197 -54 -201 -41 -2 6 -11 37 -21 69 -9 32 -30 78 -45 103 -16 24 -29 47 -29
49 0 3 21 5 48 5 38 0 63 -9 127 -45z m-926 -9 c36 -38 33 -114 -8 -241 -18
-55 -35 -106 -37 -113 -3 -10 -10 -10 -32 2 -43 22 -90 81 -98 121 -16 84 21
191 84 246 36 32 49 30 91 -15z m733 -23 c60 -87 69 -172 27 -255 -24 -47 -85
-96 -101 -80 -12 12 -14 51 -4 102 6 33 5 33 -7 -5 l-13 -40 -23 60 c-53 139
-46 236 18 270 34 17 68 0 103 -52z m482 -89 c4 -9 1 -23 -6 -32 -11 -13 -10
-15 7 -10 18 4 45 -12 45 -27 0 -28 -199 -135 -295 -159 -78 -18 -185 -30
-166 -18 7 6 10 15 7 21 -4 6 -3 11 2 11 6 0 13 16 16 35 7 36 8 36 86 50 66
10 171 57 228 101 65 49 67 50 76 28z m-4627 -217 c18 -10 69 -26 114 -36 46
-11 89 -27 99 -38 142 -150 181 -203 153 -203 -5 0 -37 27 -73 60 -37 33 -74
59 -87 60 -29 0 -73 -17 -73 -29 0 -24 230 -344 338 -471 88 -104 323 -333
456 -444 142 -120 373 -289 495 -362 337 -203 807 -405 1170 -504 399 -109
687 -151 1076 -157 320 -6 492 7 771 57 749 135 1454 467 2054 968 202 169
450 425 571 592 89 121 174 242 199 284 23 37 23 39 5 52 -22 16 -101 19 -110
4 -4 -6 1 -7 12 -3 16 6 16 5 5 -10 -8 -9 -17 -15 -21 -14 -4 1 -26 -18 -48
-41 -39 -42 -41 -43 -48 -22 -10 33 152 196 210 211 101 26 153 43 188 61 l38
19 -17 -33 c-50 -96 -225 -332 -425 -573 -377 -453 -756 -764 -1294 -1063
-472 -262 -1048 -441 -1620 -504 -152 -17 -650 -16 -805 0 -564 61 -1082 218
-1632 493 -318 159 -552 318 -868 587 -272 233 -688 727 -890 1057 l-42 69 33
-25 c19 -15 48 -33 66 -42z m3773 -44 c52 -104 54 -111 55 -188 0 -67 -5 -90
-29 -145 -16 -36 -36 -72 -43 -81 -8 -9 -19 -34 -25 -55 l-11 -39 -56 115
c-52 105 -56 120 -59 195 -4 79 -3 81 47 182 28 56 51 106 51 112 0 29 20 1
70 -96z m-1128 -12 c79 -50 189 -97 303 -128 133 -37 111 -34 270 -40 134 -4
145 -8 145 -50 0 -17 -10 -25 -47 -37 -84 -27 -143 -37 -232 -37 -143 -1 -251
54 -292 147 -24 56 -53 66 -86 28 -31 -37 -47 -27 -90 57 -50 97 -45 107 29
60z m3232 -69 c-338 -326 -860 -610 -1374 -746 -466 -124 -1003 -134 -1476
-27 -187 42 -429 124 -574 193 -69 33 -120 62 -114 65 6 2 44 -12 85 -30 41
-19 108 -47 149 -62 370 -133 665 -192 1055 -210 180 -9 464 15 675 56 335 65
696 201 1005 379 100 57 321 202 370 242 11 9 65 53 120 97 55 43 116 93 135
110 70 61 43 28 -56 -67z m-1046 61 l35 -26 18 24 c10 13 19 18 19 11 0 -14
-99 -109 -134 -129 -18 -10 -26 -8 -53 13 -42 32 -64 22 -98 -45 -13 -27 -36
-58 -50 -69 -34 -27 -147 -64 -202 -67 -119 -5 -310 43 -297 74 3 9 8 23 11
32 4 13 26 17 116 23 176 9 188 11 298 46 107 33 190 71 254 115 21 14 40 25
43 25 3 0 21 -12 40 -27z m-2048 -230 c23 -30 59 -51 141 -79 103 -35 229 -42
348 -19 99 19 125 15 67 -9 -58 -24 -179 -46 -253 -46 -165 1 -357 74 -476
181 -26 24 -4 33 32 14 42 -21 56 -19 76 11 l17 26 16 -30 c9 -16 24 -38 32
-49z m1986 31 l39 7 -30 -30 c-86 -86 -298 -161 -454 -161 -77 0 -235 34 -274
59 -39 25 -24 26 57 4 42 -11 101 -17 186 -17 105 0 135 3 188 22 89 32 153
75 182 121 l25 41 21 -27 c19 -22 27 -25 60 -19z m-1310 -211 c9 -16 39 -50
65 -78 72 -76 89 -101 138 -199 27 -53 52 -91 61 -91 8 0 22 21 32 50 34 94
80 166 160 254 26 29 54 62 62 73 l15 21 71 -22 c39 -13 114 -29 168 -37 53
-8 101 -16 106 -17 10 -3 14 -19 22 -91 5 -50 30 -133 45 -151 17 -22 -10 -33
-131 -54 -285 -51 -622 -65 -865 -37 -129 16 -377 55 -383 61 -3 2 3 25 12 51
8 25 21 84 27 131 9 58 17 87 28 92 9 5 48 11 88 15 39 3 105 17 145 30 97 32
112 32 134 -1z m-3112 -314 c46 -70 333 -355 491 -488 276 -234 570 -433 835
-566 532 -267 1072 -428 1630 -487 165 -17 705 -17 865 0 181 20 453 67 615
107 453 112 956 332 1332 582 265 176 639 497 855 733 104 113 129 152 142
223 l8 42 15 -35 c9 -19 19 -61 22 -92 6 -50 5 -60 -13 -80 -25 -26 -27 -43
-6 -34 8 3 15 0 15 -5 0 -6 -9 -9 -20 -6 -13 3 -21 -1 -25 -13 -3 -10 -12 -21
-20 -24 -12 -4 -12 0 -3 22 7 15 18 34 25 43 7 8 13 26 13 38 0 19 -6 15 -38
-26 -117 -146 -414 -424 -586 -546 -119 -85 -141 -104 -84 -73 25 14 59 31 75
36 51 19 -54 -72 -134 -116 -39 -21 -122 -73 -185 -115 -62 -42 -144 -93 -183
-114 -38 -21 -77 -44 -85 -51 -48 -39 -517 -254 -554 -254 -8 0 -17 -4 -20 -9
-3 -4 -20 -11 -37 -15 -17 -3 -45 -12 -62 -20 -203 -89 -604 -186 -957 -231
-430 -54 -858 -41 -1340 41 -254 44 -633 150 -815 229 -16 7 -75 30 -129 50
-54 20 -104 41 -110 46 -6 6 -103 56 -216 112 -337 168 -587 336 -888 596
-135 117 -353 333 -425 421 -25 31 -37 40 -37 27 0 -27 26 -74 86 -153 56 -73
61 -84 44 -84 -5 0 -10 6 -10 14 0 7 -7 19 -15 26 -12 10 -15 10 -15 -3 0 -8
3 -17 8 -19 4 -2 18 -15 31 -31 48 -53 12 -26 -78 61 l-91 87 -11 80 c-12 88
-7 141 18 189 l16 31 12 -52 c7 -29 24 -71 39 -94z m5391 -995 c-16 -13 -102
-60 -190 -104 -426 -210 -862 -334 -1380 -392 -156 -17 -690 -17 -840 0 -262
31 -472 68 -640 112 -100 27 -258 80 -272 92 -7 5 -18 6 -24 2 -7 -4 -9 -3 -5
4 4 6 -5 12 -21 15 -26 4 -25 4 5 6 19 0 31 5 27 11 -8 13 -12 13 70 -10 807
-232 1574 -247 2350 -45 221 58 578 183 745 263 41 19 90 36 107 36 18 1 38 7
45 14 11 11 9 12 -7 7 -12 -4 -8 1 10 14 43 30 61 8 20 -25z"/>
<path d="M4715 9440 c-66 -4 -130 -8 -143 -9 -34 -2 -22 -24 19 -37 63 -20 65
-32 115 -591 6 -67 5 -73 -18 -96 -13 -13 -31 -26 -39 -29 -9 -4 -11 -9 -4
-15 6 -6 43 -7 95 -2 113 10 490 10 515 0 36 -15 40 2 37 139 -3 129 -4 131
-25 128 -16 -2 -28 -17 -43 -56 -38 -95 -71 -111 -225 -112 -118 0 -116 -3
-134 201 -7 90 -17 219 -21 286 -7 137 -5 144 55 169 28 12 33 17 21 24 -16
10 -19 10 -205 0z"/>
<path d="M5650 9405 c0 -4 14 -20 31 -36 51 -48 41 -88 -81 -335 -149 -300
-165 -321 -250 -342 -19 -4 -35 -12 -35 -18 0 -10 284 -38 293 -29 3 3 -9 19
-27 35 -37 35 -37 38 15 143 l34 67 53 0 c87 0 128 -10 137 -34 16 -43 39
-166 34 -180 -3 -8 -24 -22 -46 -31 -23 -9 -37 -20 -32 -24 5 -5 67 -16 137
-25 71 -9 139 -21 153 -26 38 -15 74 -12 74 5 0 8 -7 15 -16 15 -9 0 -31 15
-49 33 -27 27 -36 49 -58 142 -32 137 -94 446 -100 502 -6 49 13 83 46 83 25
0 54 16 46 25 -13 12 -359 41 -359 30z"/>
<path d="M4040 9320 c-30 -10 -108 -35 -172 -56 -75 -24 -118 -42 -118 -51 0
-9 11 -13 33 -12 76 5 86 -10 141 -220 19 -69 50 -184 70 -256 20 -71 36 -138
36 -147 0 -10 -19 -36 -41 -58 -23 -22 -36 -40 -29 -40 7 0 62 16 124 35 140
43 374 102 445 111 l53 7 -6 36 c-3 20 -11 82 -17 139 -11 96 -13 103 -33 100
-17 -2 -23 -14 -32 -58 -18 -92 -33 -126 -59 -138 -49 -23 -228 -63 -237 -54
-13 13 -148 550 -148 589 0 28 6 36 40 53 42 21 53 41 23 39 -10 0 -43 -9 -73
-19z"/>
<path d="M3435 9101 c-11 -11 -90 -55 -175 -99 -305 -157 -351 -189 -256 -176
41 6 48 4 73 -23 16 -16 59 -101 97 -189 38 -87 85 -193 103 -234 19 -41 37
-95 40 -120 4 -40 1 -49 -26 -78 -50 -54 -40 -68 19 -28 42 28 455 222 494
232 22 5 27 11 22 28 -3 11 -18 70 -33 129 -25 95 -30 107 -48 105 -18 -3 -21
-13 -26 -83 -3 -44 -11 -91 -18 -103 -13 -24 -196 -116 -216 -109 -13 6 -82
160 -91 205 -5 26 -2 32 25 45 17 8 48 18 69 22 33 5 44 2 71 -21 38 -32 50
-25 33 19 -7 18 -27 72 -44 120 -23 66 -35 87 -47 85 -11 -2 -17 -16 -19 -49
-3 -43 -6 -46 -57 -77 -29 -18 -60 -32 -68 -32 -9 0 -32 42 -62 110 -46 106
-47 111 -30 130 29 32 98 60 146 60 33 0 58 -8 93 -31 27 -16 50 -28 53 -25 5
4 -82 183 -96 198 -4 4 -16 -1 -26 -11z"/>
<path d="M6885 9060 c-3 -4 8 -22 25 -38 17 -18 30 -41 30 -55 0 -40 -222
-541 -257 -579 -13 -15 -28 -19 -60 -16 -25 2 -43 -1 -42 -7 0 -5 72 -45 159
-89 197 -97 352 -189 386 -229 13 -16 26 -28 28 -26 1 2 20 36 41 74 21 39 51
90 67 114 34 54 35 67 7 76 -15 5 -30 -1 -53 -22 -47 -45 -78 -63 -106 -63
-45 0 -240 109 -240 135 0 8 9 38 21 66 35 91 210 453 227 472 12 14 28 18 64
16 26 -2 50 0 54 3 3 4 -56 38 -133 76 -172 86 -211 103 -218 92z"/>
<path d="M2627 8586 c-21 -8 -57 -26 -80 -42 -56 -37 -212 -162 -264 -214 -45
-42 -56 -68 -25 -55 70 30 70 30 93 10 43 -40 277 -374 322 -462 24 -45 21
-84 -8 -126 -34 -51 -13 -56 43 -9 26 21 108 84 182 139 153 113 200 160 225
226 36 96 -2 203 -90 255 -34 19 -50 22 -107 19 -74 -5 -74 -5 -57 57 21 75
-20 164 -93 202 -34 17 -91 17 -141 0z m26 -127 c55 -25 76 -122 42 -190 -19
-38 -44 -69 -55 -69 -8 0 -140 187 -140 199 0 12 43 49 70 60 33 13 54 13 83
0z m265 -291 c61 -58 69 -128 21 -183 -30 -34 -77 -65 -97 -65 -12 0 -120 163
-127 192 -7 29 27 64 81 83 45 15 86 6 122 -27z"/>
<path d="M7740 8524 c0 -4 14 -22 30 -41 37 -41 37 -55 2 -116 -55 -97 -292
-454 -317 -477 -26 -24 -27 -24 -71 -8 -24 8 -47 12 -49 7 -3 -4 34 -35 82
-68 49 -33 119 -85 157 -116 38 -30 73 -55 78 -55 14 0 8 24 -12 50 -13 16
-20 41 -20 70 0 41 12 63 133 245 202 306 200 304 276 266 29 -15 41 -18 41
-9 0 15 -54 62 -202 176 -97 75 -128 93 -128 76z"/>
<path d="M2087 8182 c-42 -92 -38 -160 14 -263 l40 -81 -37 29 c-31 23 -47 28
-93 27 -62 0 -95 -15 -183 -78 -62 -45 -74 -61 -31 -45 38 14 87 3 165 -38 74
-38 157 -112 182 -162 10 -18 20 -55 23 -83 5 -42 4 -50 -8 -45 -8 3 -62 26
-121 51 -110 47 -161 56 -215 35 -31 -12 -73 -47 -73 -62 0 -6 9 -2 19 7 23
21 83 36 112 29 18 -5 20 -11 15 -44 -3 -22 -4 -39 -1 -39 3 0 22 7 43 16 72
31 91 33 142 18 56 -17 60 -26 29 -79 -17 -29 -21 -47 -17 -94 2 -33 10 -67
18 -75 18 -23 21 -16 9 28 -13 49 -4 88 29 121 26 26 27 26 134 19 108 -7 109
-6 171 25 34 17 85 52 112 77 l50 45 -40 -16 c-33 -14 -61 -16 -162 -10 -117
6 -124 6 -173 -19 -27 -14 -50 -23 -50 -21 0 3 12 29 26 60 31 64 72 104 152
144 92 47 122 91 122 179 0 50 -26 118 -54 141 -23 19 -33 5 -12 -18 10 -11
16 -31 14 -48 -2 -23 -14 -34 -70 -63 -89 -46 -104 -62 -130 -134 -19 -52 -23
-57 -28 -36 -3 14 -16 58 -30 98 -23 68 -23 77 -12 155 7 46 12 100 12 121 0
49 -26 139 -49 167 -17 21 -17 21 -44 -39z"/>
<path d="M5355 7228 c-47 -40 -61 -47 -63 -34 -2 9 3 28 12 41 9 13 16 27 16
31 0 13 -40 -44 -50 -72 -12 -32 -102 -174 -110 -173 -8 0 -82 121 -112 183
-16 32 -31 56 -34 53 -3 -3 0 -15 6 -27 6 -11 10 -30 8 -42 -3 -18 -8 -16 -56
22 -53 42 -55 43 -135 44 -74 1 -87 -2 -137 -30 -72 -41 -75 -58 -13 -78 91
-30 229 -136 290 -222 36 -50 81 -173 112 -304 16 -67 31 -124 34 -126 3 -3
21 -2 40 1 32 6 36 11 50 63 9 32 21 84 27 117 27 135 94 263 180 343 39 36
154 110 205 132 27 12 45 25 43 33 -3 6 -33 27 -67 45 -47 24 -76 32 -115 32
-29 0 -56 4 -61 9 -6 6 -33 -10 -70 -41z m202 -29 c28 -10 27 -11 -50 -51 -93
-49 -190 -139 -236 -220 -40 -71 -87 -209 -96 -283 -8 -59 -25 -85 -25 -37 0
56 -41 188 -86 279 -57 116 -143 200 -264 261 l-81 40 32 11 c54 19 120 13
177 -15 84 -42 182 -166 213 -271 13 -44 29 -57 29 -24 0 10 20 60 45 109 88
176 214 250 342 201z"/>
<path d="M3364 7131 c-62 -15 -94 -44 -128 -114 -29 -58 -32 -74 -26 -109 11
-58 42 -82 94 -73 42 6 66 20 66 38 0 6 -22 7 -59 3 -53 -6 -61 -5 -70 13 -16
28 -14 33 8 21 20 -10 99 -14 89 -4 -5 4 -35 10 -70 13 -5 1 -8 8 -8 16 0 8
-6 15 -14 15 -16 0 -11 24 17 93 18 43 46 50 48 12 1 -14 3 -29 4 -35 1 -5 3
-21 4 -35 1 -29 27 -44 44 -25 9 10 7 11 -9 6 -20 -6 -22 -2 -26 46 -7 70 2
92 18 47 l13 -34 -3 30 c-1 17 -6 37 -10 44 -6 10 0 12 27 10 20 -2 39 0 43 4
4 4 -1 7 -12 8 -15 1 -13 3 6 9 20 6 21 8 5 8 -11 0 -34 -3 -51 -7z"/>
<path d="M3417 7012 c-5 -7 -13 -10 -18 -7 -18 12 -9 -26 11 -42 27 -24 25
-31 -12 -42 -18 -5 -26 -10 -16 -10 12 -1 16 -10 15 -38 0 -21 -5 -44 -11 -51
-5 -8 -11 -23 -13 -35 -2 -11 -8 -26 -13 -32 -6 -7 -8 -19 -5 -27 7 -18 117
-18 155 1 24 11 24 11 -5 5 -33 -8 -92 -7 -106 2 -13 8 -11 35 6 68 8 15 15
46 15 67 0 22 3 39 6 39 10 0 44 -42 44 -54 0 -6 7 -24 15 -40 12 -23 13 -26
1 -17 -8 7 -22 28 -31 47 -21 44 -31 37 -15 -10 15 -45 49 -72 102 -81 36 -6
44 -4 60 15 10 12 18 30 18 39 -1 10 -7 4 -17 -14 -10 -18 -18 -25 -21 -17 -3
10 -7 9 -17 -4 -11 -15 -14 -16 -33 -2 -12 8 -19 18 -15 22 4 4 3 10 -2 14 -6
4 -23 31 -39 61 -23 43 -26 55 -15 62 12 7 12 9 0 9 -11 0 -11 3 -1 15 10 13
9 15 -8 15 -15 0 -22 7 -24 28 -2 18 -6 23 -11 14z"/>
<path d="M7385 2388 c-11 -6 -32 -22 -46 -35 -15 -13 -73 -57 -129 -96 -57
-40 -105 -78 -108 -84 -5 -18 21 -16 64 4 l36 18 30 -35 c16 -19 79 -123 140
-230 61 -107 127 -219 146 -248 34 -50 35 -54 22 -91 -19 -60 -6 -66 53 -23
29 21 94 69 145 106 50 38 92 73 92 78 0 10 -19 8 -83 -8 -20 -5 -33 -1 -47
11 -41 37 -320 516 -320 549 0 10 9 33 20 52 22 35 16 48 -15 32z"/>
<path d="M3003 2190 c-63 -15 -149 -65 -197 -114 -133 -136 -153 -356 -47
-510 99 -143 279 -242 428 -234 62 3 77 7 109 34 42 34 85 108 81 139 -3 30
-31 29 -65 -3 -100 -94 -236 -87 -345 17 -101 95 -114 237 -35 394 56 112 164
198 247 197 76 -1 175 -56 218 -122 23 -33 25 -45 22 -120 -4 -78 -3 -83 17
-86 22 -3 22 -4 84 176 24 69 17 98 -15 66 -16 -16 -18 -16 -42 14 -37 49
-141 118 -210 141 -65 22 -184 27 -250 11z"/>
<path d="M6821 2010 c-75 -27 -342 -171 -348 -187 -9 -22 3 -26 42 -13 33 11
39 10 56 -6 30 -31 249 -539 249 -579 0 -13 -11 -37 -25 -53 -14 -17 -25 -33
-25 -36 0 -14 36 -4 103 28 40 19 111 52 160 75 48 22 87 44 87 50 0 7 -22 11
-53 11 -39 0 -58 5 -69 18 -22 24 -78 157 -85 198 -5 30 -2 35 22 44 30 11 71
-7 166 -76 106 -77 199 -101 274 -70 52 22 125 94 125 123 0 20 -4 24 -17 18
-59 -25 -73 -27 -106 -21 -20 4 -76 33 -126 66 -49 32 -105 67 -123 76 -18 9
-34 18 -36 19 -2 1 7 20 20 41 48 81 21 212 -54 266 -45 32 -160 36 -237 8z
m108 -144 c61 -63 48 -163 -28 -214 -44 -29 -47 -26 -100 100 -54 128 -54 134
13 148 50 10 82 0 115 -34z"/>
<path d="M3810 1771 c-71 -23 -125 -57 -177 -113 -74 -81 -97 -153 -91 -285 3
-74 8 -99 36 -158 66 -139 186 -214 358 -223 110 -5 176 11 255 63 108 72 159
176 159 324 0 154 -60 266 -185 347 -100 64 -241 82 -355 45z m212 -81 c49
-14 93 -52 121 -104 19 -36 22 -56 22 -156 -1 -107 -3 -119 -31 -180 -59 -125
-126 -176 -220 -168 -76 6 -129 44 -161 115 -23 51 -25 64 -21 152 6 113 31
188 84 249 54 64 92 87 164 101 3 0 22 -4 42 -9z"/>
<path d="M6105 1715 c-33 -7 -92 -22 -130 -33 -39 -11 -103 -28 -143 -38 -54
-14 -72 -23 -70 -34 2 -10 15 -15 42 -15 29 0 43 -6 57 -25 32 -42 145 -591
128 -622 -5 -10 -28 -27 -50 -38 -41 -21 -44 -40 -7 -40 12 0 98 16 192 36
318 66 422 127 451 261 10 49 -18 132 -57 170 -37 36 -94 63 -132 63 -27 0
-42 15 -26 25 23 14 50 86 50 133 0 78 -55 144 -136 162 -52 13 -96 11 -169
-5z m83 -111 c53 -37 67 -130 25 -176 -25 -27 -93 -62 -104 -51 -10 10 -49
183 -49 218 0 24 3 25 53 25 31 0 61 -6 75 -16z m122 -319 c38 -20 68 -59 81
-108 13 -48 -1 -88 -39 -113 -23 -15 -123 -43 -159 -44 -11 0 -63 195 -63 237
0 40 121 58 180 28z"/>
<path d="M4475 1630 c-9 -14 -6 -17 37 -40 l33 -18 -1 -133 c0 -159 -22 -451
-36 -496 -7 -26 -17 -35 -46 -43 -20 -5 -43 -10 -49 -10 -7 0 -13 -7 -13 -15
0 -8 3 -15 8 -15 4 0 86 -9 182 -20 96 -12 239 -27 316 -35 78 -8 148 -15 155
-17 9 -2 15 8 17 32 1 19 9 80 18 134 12 81 13 101 2 107 -7 5 -16 9 -19 9
-10 0 -36 -33 -54 -70 -9 -19 -29 -47 -43 -62 -24 -26 -32 -28 -96 -27 -86 0
-163 12 -178 27 -15 15 29 569 47 598 9 13 29 24 54 28 51 8 58 36 9 36 -29 0
-177 18 -294 36 -27 4 -44 2 -49 -6z"/>
<path d="M5520 1605 c-58 -7 -138 -16 -177 -20 -84 -8 -96 -25 -29 -43 61 -16
57 -1 96 -384 6 -57 16 -142 22 -191 12 -99 5 -116 -58 -137 -34 -11 -42 -24
-25 -34 8 -5 316 28 369 39 41 10 25 32 -28 39 -35 5 -53 13 -60 26 -12 22
-60 500 -60 596 0 66 -2 64 73 88 21 7 18 30 -4 32 -8 1 -61 -4 -119 -11z"/>
</g>
</svg>
