<?xml version="1.0" standalone="no"?>
<!DOCTYPE svg PUBLIC "-//W3C//DTD SVG 20010904//EN"
 "http://www.w3.org/TR/2001/REC-SVG-20010904/DTD/svg10.dtd">
<svg version="1.0" xmlns="http://www.w3.org/2000/svg"
 width="96.000000pt" height="96.000000pt" viewBox="0 0 96.000000 96.000000"
 preserveAspectRatio="xMidYMid meet">

<g transform="translate(0.000000,96.000000) scale(0.100000,-0.100000)"
fill="#000000" stroke="none">
<path d="M360 811 c0 -5 9 -12 19 -16 22 -7 67 -89 151 -280 107 -243 114
-269 85 -324 -8 -16 -11 -31 -8 -35 4 -3 73 -6 155 -6 125 0 148 2 148 15 0 8
-4 15 -10 15 -22 0 -270 541 -270 589 0 12 7 24 15 27 42 17 0 24 -135 24 -86
0 -150 -4 -150 -9z m246 -43 c1 -37 92 -256 187 -448 34 -69 64 -128 65 -132
2 -5 -46 -8 -106 -8 l-110 0 10 36 c8 31 5 49 -17 113 -29 79 -177 410 -203
449 l-14 22 94 0 94 0 0 -32z"/>
<path d="M151 310 c-13 -36 -38 -77 -62 -102 -21 -23 -39 -45 -39 -50 0 -4 46
-8 101 -8 l101 0 -4 53 c-4 53 -49 167 -66 167 -5 0 -19 -27 -31 -60z m74 -97
l7 -33 -61 0 c-34 0 -61 3 -61 6 0 3 11 20 25 38 14 18 30 48 37 67 l12 34 17
-40 c9 -22 20 -55 24 -72z"/>
</g>
</svg>
