<svg xmlns="http://www.w3.org/2000/svg" width="2400" height="2400" viewBox="0 0 2400 2400" version="1.1"><path d="M 1148.500 0.606 C 1145.750 0.803, 1135.400 1.442, 1125.500 2.028 C 950.298 12.383, 776.133 62.797, 622 147.770 C 494.800 217.896, 381.225 310.567, 285.913 422 C 133.266 600.466, 35.517 824.061, 8.092 1057.500 C 1.868 1110.482, 0.500 1136.158, 0.500 1200 C 0.500 1255.791, 1.019 1269.608, 4.597 1309 C 25.857 1543.105, 114.203 1763.244, 260.837 1947.500 C 307.684 2006.366, 363.262 2063.817, 422 2114.095 C 509.341 2188.856, 613.249 2253.864, 719.749 2300.373 C 837.160 2351.648, 962.511 2383.734, 1091 2395.403 C 1130.392 2398.981, 1144.209 2399.500, 1200 2399.500 C 1255.791 2399.500, 1269.608 2398.981, 1309 2395.403 C 1542.504 2374.197, 1762.551 2286.065, 1946.181 2140.202 C 2005.972 2092.708, 2063.358 2037.275, 2114.095 1978 C 2188.853 1890.663, 2254.060 1786.430, 2300.364 1680.251 C 2350.418 1565.473, 2382.093 1443.887, 2394.475 1319 C 2396.537 1298.208, 2398.981 1263.194, 2398.992 1254.309 C 2398.996 1250.354, 2399.450 1246.840, 2400 1246.500 C 2400.644 1246.102, 2401 1229.137, 2401 1198.882 C 2401 1167.803, 2400.661 1152.091, 2400 1152.500 C 2399.368 1152.890, 2398.997 1150.425, 2398.992 1145.809 C 2398.981 1136.823, 2396.548 1101.904, 2394.475 1081 C 2371.697 851.266, 2283.913 634.740, 2140.202 453.819 C 2092.708 394.028, 2037.275 336.642, 1978 285.905 C 1864.419 188.683, 1729.359 111.905, 1586.546 63.376 C 1488.498 30.057, 1393.255 10.926, 1283 2.401 C 1263.968 0.930, 1162.834 -0.420, 1148.500 0.606 M 1082.500 164.116 C 1032.183 167.080, 926.746 177.689, 870.008 185.498 C 811.994 193.482, 774.056 201.339, 760.752 208.126 C 756.702 210.193, 755.841 212, 758.908 212 C 759.957 212, 776.091 213.341, 794.762 214.979 C 813.432 216.618, 848.011 219.546, 871.604 221.487 C 1040.694 235.397, 1153.787 255.518, 1226.322 284.599 C 1270.462 302.295, 1297.122 323.074, 1305.996 346.696 C 1308.966 354.601, 1309.768 365.613, 1307.671 369.670 C 1298.794 386.836, 1247.149 406.194, 1159 425.396 C 1120.706 433.738, 1054.234 446.228, 1022.227 451.095 C 1017.676 451.787, 1014.301 452.688, 1014.727 453.097 C 1015.721 454.053, 1089.648 477.766, 1123.500 487.987 C 1152.788 496.830, 1179.368 504.037, 1192 506.561 C 1210.530 510.263, 1246.589 505.554, 1281.498 494.873 C 1301.840 488.649, 1327.365 477.566, 1366.151 458.118 C 1415.177 433.536, 1438.537 424.144, 1465 418.378 C 1476.283 415.919, 1501.416 415.925, 1515 418.389 C 1561.534 426.832, 1600.347 455.692, 1633.496 506.500 C 1663.239 552.088, 1677.862 590.481, 1685.675 643.500 C 1687.058 652.887, 1687.445 662.033, 1687.452 685.500 C 1687.459 712.963, 1687.268 716.388, 1685.189 726 C 1681.096 744.922, 1673.284 757.481, 1662.802 761.990 C 1644.435 769.891, 1622.622 755.327, 1590.925 714 C 1579.093 698.573, 1574.262 691.434, 1550.853 654.789 C 1538.103 634.830, 1525.416 614.985, 1522.660 610.689 C 1519.305 605.459, 1517.406 603.311, 1516.915 604.189 C 1515.642 606.468, 1513.156 620.090, 1511.932 631.500 C 1509.950 649.979, 1512.276 679.745, 1517.597 704 C 1520.911 719.103, 1529.699 745.198, 1536.562 760.314 C 1558.928 809.577, 1598.699 859.164, 1651.500 903.620 C 1682.022 929.318, 1711.159 948.597, 1743.500 964.494 C 1772.171 978.587, 1798.452 987.765, 1826.243 993.388 C 1840.679 996.309, 1860.344 998.994, 1867.458 999.015 C 1870.231 999.024, 1873.025 999.365, 1873.667 999.773 C 1876.017 1001.268, 1870.548 1041.377, 1864.002 1070.651 C 1856.681 1103.394, 1848.749 1128.001, 1830.203 1175.500 C 1812.816 1220.032, 1800.536 1244.029, 1783.200 1267.350 C 1770.282 1284.727, 1751.672 1301.061, 1738.540 1306.548 C 1734.798 1308.111, 1734.707 1308.095, 1731.737 1305.316 C 1726.175 1300.114, 1716.897 1286.714, 1712.523 1277.570 C 1707.357 1266.768, 1702.698 1252.061, 1700.302 1239 C 1697.824 1225.490, 1697.829 1190.297, 1700.311 1177 C 1703.345 1160.745, 1709.775 1135.866, 1718.107 1108.143 C 1727.642 1076.416, 1733.254 1054.218, 1735.346 1039.954 C 1737.141 1027.710, 1738.047 1018, 1737.395 1018 C 1737.141 1018, 1734.811 1019.085, 1732.217 1020.410 C 1711.635 1030.928, 1686.515 1057.288, 1661.134 1095 C 1638.690 1128.348, 1628.354 1151.040, 1624.012 1176.500 C 1611.026 1252.635, 1606.543 1328.360, 1611.467 1388.400 C 1613.558 1413.892, 1613.004 1426.442, 1608.922 1446.143 C 1598.995 1494.051, 1563.362 1554.619, 1517 1602.392 C 1493.359 1626.752, 1473.525 1641.870, 1450.615 1652.989 C 1428.911 1663.524, 1415.470 1666.917, 1392.324 1667.705 C 1357.643 1668.886, 1325.255 1662.062, 1295.609 1647.328 C 1270.796 1634.995, 1255.929 1622.062, 1247.162 1605.180 C 1241.194 1593.689, 1239.585 1586.658, 1239.687 1572.500 C 1239.796 1557.225, 1242.006 1548.590, 1249.924 1532.500 C 1267.474 1496.837, 1302.384 1465.165, 1368.189 1425.202 C 1384.415 1415.348, 1399.110 1405.188, 1410.744 1395.781 C 1498.837 1324.548, 1554.947 1207.220, 1577.984 1046.078 C 1581.376 1022.348, 1584.297 997.345, 1583.824 996.073 C 1583.646 995.592, 1579.450 997.880, 1574.500 1001.156 C 1555.897 1013.469, 1444.661 1076.490, 1399.425 1100.345 C 1301.615 1151.923, 1215.321 1178.922, 1147.621 1179.128 C 1124.328 1179.198, 1105.263 1175.760, 1043.500 1160.348 C 1000.586 1149.640, 969.419 1143.188, 944.500 1139.853 C 930.152 1137.933, 923.211 1137.588, 900 1137.642 C 787.568 1137.901, 686.812 1170.830, 601.500 1235.196 C 580.481 1251.054, 566.558 1263.306, 544.977 1284.934 C 500.769 1329.241, 468.436 1374.183, 442.413 1427.500 C 414.416 1484.859, 398.513 1542.841, 391.809 1612 C 389.756 1633.178, 390.054 1702.174, 392.289 1723 C 402.314 1816.418, 432.030 1898.454, 484.297 1977 C 510.894 2016.969, 550.721 2064.592, 583.578 2095.711 C 660.594 2168.655, 744.480 2208.626, 843.478 2219.551 C 886.884 2224.341, 1047.673 2223.775, 1155 2218.453 C 1424.158 2205.108, 1629.365 2159.814, 1763.500 2084.142 L 1773.500 2078.500 1753 2078.295 C 1675.388 2077.519, 1410.124 2070.750, 1433 2070.129 L 1439.500 2069.953 1433.698 2067.567 C 1423.068 2063.196, 1416.648 2058.598, 1404.983 2047 C 1396.752 2038.816, 1392.419 2033.626, 1389.958 2029 C 1386.752 2022.973, 1386.500 2021.845, 1386.500 2013.500 C 1386.500 2005.622, 1386.857 2003.773, 1389.362 1998.667 C 1404.033 1968.765, 1460.116 1945.925, 1559 1929.583 C 1600.503 1922.724, 1625.203 1920.767, 1693 1918.968 C 1733.486 1917.894, 1744.501 1917.204, 1773 1913.961 C 1885.656 1901.143, 1982.951 1863.538, 2056.738 1804.295 C 2124.384 1749.983, 2174.923 1679.320, 2211.080 1588.500 C 2229.284 1542.775, 2240 1504.874, 2240 1486.215 L 2240 1480.691 2219.250 1501.621 C 2159.955 1561.430, 2098.731 1604.644, 2029.500 1635.550 C 1990.463 1652.977, 1932.651 1671.910, 1841.950 1696.970 C 1825.752 1701.446, 1811.914 1705.303, 1811.198 1705.542 C 1809.593 1706.078, 1809.840 1705.642, 1816.872 1695.500 C 1850.227 1647.394, 1893.620 1597.423, 1984 1503.034 C 2067.056 1416.293, 2115.437 1356.811, 2147.963 1301.446 C 2159.246 1282.241, 2176.553 1246.813, 2184.332 1227 C 2205.091 1174.123, 2217.059 1119.948, 2221.099 1060.568 C 2222.570 1038.948, 2221.695 981.081, 2219.575 959.780 C 2203.219 795.439, 2132.092 631.481, 1999.510 452.500 C 1986.406 434.810, 1973 417.564, 1973 418.398 C 1973 418.722, 1980.832 438.902, 1990.404 463.244 C 2010.408 514.112, 2028.495 561.095, 2036.579 583.192 C 2057.988 641.709, 2071.018 692.481, 2076.644 739.297 C 2079.171 760.321, 2078.951 793.784, 2076.185 809.081 C 2073.679 822.945, 2068.646 837.518, 2062.887 847.583 C 2058.537 855.187, 2046.734 868.993, 2045.553 867.860 C 2045.187 867.508, 2042.199 858.058, 2038.914 846.860 C 1995.929 700.327, 1933.647 574.591, 1855.332 476.240 C 1820.878 432.972, 1780.505 391.547, 1740 357.900 C 1704.893 328.738, 1664.343 301.048, 1623 278.007 C 1508.588 214.242, 1372.714 176.718, 1217.500 166.019 C 1174.253 163.037, 1114.992 162.202, 1082.500 164.116 M 716 286.090 C 670.718 291.914, 625.349 314.791, 577.520 355.918 C 556.132 374.309, 526.884 404.892, 500.587 436.365 C 447.968 499.337, 414.653 563.856, 402.545 626.236 C 401.610 631.056, 401.559 632.774, 402.369 632.279 C 406.612 629.684, 457.703 593.258, 472 582.635 C 516.566 549.522, 548.653 529.987, 569.081 523.534 C 582.770 519.210, 580.409 515.134, 590.353 560.250 C 595.111 581.837, 601.248 610.257, 603.990 623.404 C 606.732 636.552, 609.148 647.482, 609.360 647.693 C 609.572 647.905, 612.352 643.448, 615.538 637.789 C 641.859 591.043, 675.051 540.452, 694.785 517 C 706.499 503.079, 719.994 490.016, 728.489 484.376 C 733.581 480.995, 734.221 480.859, 774.734 474.530 C 801.439 470.358, 818.487 467.215, 823.451 465.548 C 852 455.965, 868.633 438.869, 873.585 414.020 C 876.674 398.518, 874.593 372.641, 868.838 355 C 853.687 308.555, 808.767 284.551, 738.076 285.127 C 729.509 285.197, 719.575 285.630, 716 286.090 M 992.951 573.020 C 984.637 574.305, 976.769 577.596, 969.877 582.669 L 963.704 587.214 975.602 593.189 C 988.840 599.838, 1008.314 612.462, 1020.500 622.293 C 1046.014 642.877, 1075.569 674.940, 1099.505 708 C 1129.262 749.101, 1144.753 765.172, 1169.972 781.107 C 1206.472 804.171, 1249.189 807.644, 1297.724 791.496 C 1329.511 780.920, 1361.033 762.144, 1379.765 742.627 C 1397.888 723.744, 1405.435 706.329, 1406.687 680.500 C 1408.252 648.227, 1399.245 618.102, 1382.750 600.439 C 1367.021 583.597, 1348.366 575.486, 1319.677 573.015 C 1283.923 569.936, 1258.378 581.335, 1231.053 612.561 C 1225.307 619.128, 1214.481 630.616, 1206.996 638.092 C 1196.166 648.908, 1192.021 652.357, 1186.696 654.978 C 1181.120 657.723, 1179.279 658.173, 1175.655 657.676 C 1161.601 655.750, 1139.395 644.015, 1086 610.296 C 1039.952 581.216, 1012.100 570.059, 992.951 573.020 M 0.462 1200 C 0.462 1226.125, 0.591 1236.813, 0.749 1223.750 C 0.907 1210.688, 0.907 1189.313, 0.749 1176.250 C 0.591 1163.188, 0.462 1173.875, 0.462 1200" stroke="none" fill="#fbab8b" fill-rule="evenodd"/><path d="M 1082.500 164.116 C 1032.183 167.080, 926.746 177.689, 870.008 185.498 C 811.994 193.482, 774.056 201.339, 760.752 208.126 C 756.702 210.193, 755.841 212, 758.908 212 C 759.957 212, 776.091 213.341, 794.762 214.979 C 813.432 216.618, 848.011 219.546, 871.604 221.487 C 1040.694 235.397, 1153.787 255.518, 1226.322 284.599 C 1270.462 302.295, 1297.122 323.074, 1305.996 346.696 C 1308.966 354.601, 1309.768 365.613, 1307.671 369.670 C 1298.794 386.836, 1247.149 406.194, 1159 425.396 C 1120.706 433.738, 1054.234 446.228, 1022.227 451.095 C 1017.676 451.787, 1014.301 452.688, 1014.727 453.097 C 1015.721 454.053, 1089.648 477.766, 1123.500 487.987 C 1152.788 496.830, 1179.368 504.037, 1192 506.561 C 1210.530 510.263, 1246.589 505.554, 1281.498 494.873 C 1301.840 488.649, 1327.365 477.566, 1366.151 458.118 C 1415.177 433.536, 1438.537 424.144, 1465 418.378 C 1476.283 415.919, 1501.416 415.925, 1515 418.389 C 1561.534 426.832, 1600.347 455.692, 1633.496 506.500 C 1663.239 552.088, 1677.862 590.481, 1685.675 643.500 C 1687.058 652.887, 1687.445 662.033, 1687.452 685.500 C 1687.459 712.963, 1687.268 716.388, 1685.189 726 C 1681.096 744.922, 1673.284 757.481, 1662.802 761.990 C 1644.435 769.891, 1622.622 755.327, 1590.925 714 C 1579.093 698.573, 1574.262 691.434, 1550.853 654.789 C 1538.103 634.830, 1525.416 614.985, 1522.660 610.689 C 1519.305 605.459, 1517.406 603.311, 1516.915 604.189 C 1515.642 606.468, 1513.156 620.090, 1511.932 631.500 C 1509.950 649.979, 1512.276 679.745, 1517.597 704 C 1520.911 719.103, 1529.699 745.198, 1536.562 760.314 C 1558.928 809.577, 1598.699 859.164, 1651.500 903.620 C 1682.022 929.318, 1711.159 948.597, 1743.500 964.494 C 1772.171 978.587, 1798.452 987.765, 1826.243 993.388 C 1840.679 996.309, 1860.344 998.994, 1867.458 999.015 C 1870.231 999.024, 1873.025 999.365, 1873.667 999.773 C 1876.017 1001.268, 1870.548 1041.377, 1864.002 1070.651 C 1856.681 1103.394, 1848.749 1128.001, 1830.203 1175.500 C 1812.816 1220.032, 1800.536 1244.029, 1783.200 1267.350 C 1770.282 1284.727, 1751.672 1301.061, 1738.540 1306.548 C 1734.798 1308.111, 1734.707 1308.095, 1731.737 1305.316 C 1726.175 1300.114, 1716.897 1286.714, 1712.523 1277.570 C 1707.357 1266.768, 1702.698 1252.061, 1700.302 1239 C 1697.824 1225.490, 1697.829 1190.297, 1700.311 1177 C 1703.345 1160.745, 1709.775 1135.866, 1718.107 1108.143 C 1727.642 1076.416, 1733.254 1054.218, 1735.346 1039.954 C 1737.141 1027.710, 1738.047 1018, 1737.395 1018 C 1737.141 1018, 1734.811 1019.085, 1732.217 1020.410 C 1711.635 1030.928, 1686.515 1057.288, 1661.134 1095 C 1638.690 1128.348, 1628.354 1151.040, 1624.012 1176.500 C 1611.026 1252.635, 1606.543 1328.360, 1611.467 1388.400 C 1613.558 1413.892, 1613.004 1426.442, 1608.922 1446.143 C 1598.995 1494.051, 1563.362 1554.619, 1517 1602.392 C 1493.359 1626.752, 1473.525 1641.870, 1450.615 1652.989 C 1428.911 1663.524, 1415.470 1666.917, 1392.324 1667.705 C 1357.643 1668.886, 1325.255 1662.062, 1295.609 1647.328 C 1270.796 1634.995, 1255.929 1622.062, 1247.162 1605.180 C 1241.194 1593.689, 1239.585 1586.658, 1239.687 1572.500 C 1239.796 1557.225, 1242.006 1548.590, 1249.924 1532.500 C 1267.474 1496.837, 1302.384 1465.165, 1368.189 1425.202 C 1384.415 1415.348, 1399.110 1405.188, 1410.744 1395.781 C 1498.837 1324.548, 1554.947 1207.220, 1577.984 1046.078 C 1581.376 1022.348, 1584.297 997.345, 1583.824 996.073 C 1583.646 995.592, 1579.450 997.880, 1574.500 1001.156 C 1555.897 1013.469, 1444.661 1076.490, 1399.425 1100.345 C 1301.615 1151.923, 1215.321 1178.922, 1147.621 1179.128 C 1124.328 1179.198, 1105.263 1175.760, 1043.500 1160.348 C 1000.586 1149.640, 969.419 1143.188, 944.500 1139.853 C 930.152 1137.933, 923.211 1137.588, 900 1137.642 C 787.568 1137.901, 686.812 1170.830, 601.500 1235.196 C 580.481 1251.054, 566.558 1263.306, 544.977 1284.934 C 500.769 1329.241, 468.436 1374.183, 442.413 1427.500 C 414.416 1484.859, 398.513 1542.841, 391.809 1612 C 389.756 1633.178, 390.054 1702.174, 392.289 1723 C 402.314 1816.418, 432.030 1898.454, 484.297 1977 C 510.894 2016.969, 550.721 2064.592, 583.578 2095.711 C 660.594 2168.655, 744.480 2208.626, 843.478 2219.551 C 886.884 2224.341, 1047.673 2223.775, 1155 2218.453 C 1424.158 2205.108, 1629.365 2159.814, 1763.500 2084.142 L 1773.500 2078.500 1753 2078.295 C 1675.388 2077.519, 1410.124 2070.750, 1433 2070.129 L 1439.500 2069.953 1433.698 2067.567 C 1423.068 2063.196, 1416.648 2058.598, 1404.983 2047 C 1396.752 2038.816, 1392.419 2033.626, 1389.958 2029 C 1386.752 2022.973, 1386.500 2021.845, 1386.500 2013.500 C 1386.500 2005.622, 1386.857 2003.773, 1389.362 1998.667 C 1404.033 1968.765, 1460.116 1945.925, 1559 1929.583 C 1600.503 1922.724, 1625.203 1920.767, 1693 1918.968 C 1733.486 1917.894, 1744.501 1917.204, 1773 1913.961 C 1885.656 1901.143, 1982.951 1863.538, 2056.738 1804.295 C 2124.384 1749.983, 2174.923 1679.320, 2211.080 1588.500 C 2229.284 1542.775, 2240 1504.874, 2240 1486.215 L 2240 1480.691 2219.250 1501.621 C 2159.955 1561.430, 2098.731 1604.644, 2029.500 1635.550 C 1990.463 1652.977, 1932.651 1671.910, 1841.950 1696.970 C 1825.752 1701.446, 1811.914 1705.303, 1811.198 1705.542 C 1809.593 1706.078, 1809.840 1705.642, 1816.872 1695.500 C 1850.227 1647.394, 1893.620 1597.423, 1984 1503.034 C 2067.056 1416.293, 2115.437 1356.811, 2147.963 1301.446 C 2159.246 1282.241, 2176.553 1246.813, 2184.332 1227 C 2205.091 1174.123, 2217.059 1119.948, 2221.099 1060.568 C 2222.570 1038.948, 2221.695 981.081, 2219.575 959.780 C 2203.219 795.439, 2132.092 631.481, 1999.510 452.500 C 1986.406 434.810, 1973 417.564, 1973 418.398 C 1973 418.722, 1980.832 438.902, 1990.404 463.244 C 2010.408 514.112, 2028.495 561.095, 2036.579 583.192 C 2057.988 641.709, 2071.018 692.481, 2076.644 739.297 C 2079.171 760.321, 2078.951 793.784, 2076.185 809.081 C 2073.679 822.945, 2068.646 837.518, 2062.887 847.583 C 2058.537 855.187, 2046.734 868.993, 2045.553 867.860 C 2045.187 867.508, 2042.199 858.058, 2038.914 846.860 C 1995.929 700.327, 1933.647 574.591, 1855.332 476.240 C 1820.878 432.972, 1780.505 391.547, 1740 357.900 C 1704.893 328.738, 1664.343 301.048, 1623 278.007 C 1508.588 214.242, 1372.714 176.718, 1217.500 166.019 C 1174.253 163.037, 1114.992 162.202, 1082.500 164.116 M 716 286.090 C 670.718 291.914, 625.349 314.791, 577.520 355.918 C 556.132 374.309, 526.884 404.892, 500.587 436.365 C 447.968 499.337, 414.653 563.856, 402.545 626.236 C 401.610 631.056, 401.559 632.774, 402.369 632.279 C 406.612 629.684, 457.703 593.258, 472 582.635 C 516.566 549.522, 548.653 529.987, 569.081 523.534 C 582.770 519.210, 580.409 515.134, 590.353 560.250 C 595.111 581.837, 601.248 610.257, 603.990 623.404 C 606.732 636.552, 609.148 647.482, 609.360 647.693 C 609.572 647.905, 612.352 643.448, 615.538 637.789 C 641.859 591.043, 675.051 540.452, 694.785 517 C 706.499 503.079, 719.994 490.016, 728.489 484.376 C 733.581 480.995, 734.221 480.859, 774.734 474.530 C 801.439 470.358, 818.487 467.215, 823.451 465.548 C 852 455.965, 868.633 438.869, 873.585 414.020 C 876.674 398.518, 874.593 372.641, 868.838 355 C 853.687 308.555, 808.767 284.551, 738.076 285.127 C 729.509 285.197, 719.575 285.630, 716 286.090 M 992.951 573.020 C 984.637 574.305, 976.769 577.596, 969.877 582.669 L 963.704 587.214 975.602 593.189 C 988.840 599.838, 1008.314 612.462, 1020.500 622.293 C 1046.014 642.877, 1075.569 674.940, 1099.505 708 C 1129.262 749.101, 1144.753 765.172, 1169.972 781.107 C 1206.472 804.171, 1249.189 807.644, 1297.724 791.496 C 1329.511 780.920, 1361.033 762.144, 1379.765 742.627 C 1397.888 723.744, 1405.435 706.329, 1406.687 680.500 C 1408.252 648.227, 1399.245 618.102, 1382.750 600.439 C 1367.021 583.597, 1348.366 575.486, 1319.677 573.015 C 1283.923 569.936, 1258.378 581.335, 1231.053 612.561 C 1225.307 619.128, 1214.481 630.616, 1206.996 638.092 C 1196.166 648.908, 1192.021 652.357, 1186.696 654.978 C 1181.120 657.723, 1179.279 658.173, 1175.655 657.676 C 1161.601 655.750, 1139.395 644.015, 1086 610.296 C 1039.952 581.216, 1012.100 570.059, 992.951 573.020" stroke="none" fill="#240404" fill-rule="evenodd"/></svg>