<?xml version="1.0" standalone="no"?>
<!DOCTYPE svg PUBLIC "-//W3C//DTD SVG 20010904//EN"
 "http://www.w3.org/TR/2001/REC-SVG-20010904/DTD/svg10.dtd">
<svg version="1.0" xmlns="http://www.w3.org/2000/svg"
 width="100.000000pt" height="100.000000pt" viewBox="0 0 100.000000 100.000000"
 preserveAspectRatio="xMidYMid meet">

<g transform="translate(0.000000,100.000000) scale(0.100000,-0.100000)"
fill="#000000" stroke="none">
<path d="M399 837 c-130 -37 -222 -135 -250 -268 -9 -42 -9 -53 2 -60 12 -8
12 -10 0 -18 -11 -7 -11 -18 -2 -60 23 -110 89 -194 189 -243 60 -30 76 -33
152 -33 76 0 92 3 152 33 100 49 166 133 189 243 9 42 9 53 -2 60 -12 8 -12
10 0 18 16 11 1 92 -28 149 -74 143 -251 222 -402 179z m186 -22 c37 -12 30
-13 -95 -13 -125 0 -132 1 -95 13 22 8 65 13 95 13 30 0 73 -5 95 -13z m-221
-37 c-6 -10 -4 -10 7 0 18 17 109 16 109 -1 0 -19 -64 -47 -106 -47 -30 0 -35
3 -30 17 6 16 6 16 -12 0 -21 -19 -78 -24 -66 -6 19 31 115 67 98 37z m239
-18 c18 -30 18 -30 -5 -30 -33 0 -108 33 -108 48 0 8 16 12 48 12 42 0 50 -3
65 -30z m87 0 l35 -29 -45 -1 c-40 0 -48 4 -63 30 l-18 30 28 0 c17 0 43 -12
63 -30z m-145 -45 c16 -15 25 -36 25 -55 0 -19 -9 -40 -25 -55 -15 -16 -36
-25 -55 -25 -19 0 -40 9 -55 25 -50 49 -15 135 55 135 19 0 40 -9 55 -25z
m-211 -17 c-21 -69 -19 -68 -84 -68 -33 0 -60 3 -60 8 0 4 11 24 25 45 24 34
29 37 76 37 48 0 50 -1 43 -22z m66 3 c-5 -11 -10 -31 -10 -45 0 -22 -4 -26
-30 -26 -33 0 -36 9 -19 59 9 25 16 31 40 31 26 0 28 -2 19 -19z m284 -21 c9
-22 16 -43 16 -45 0 -3 -25 -5 -55 -5 -52 0 -55 1 -55 26 0 14 -5 34 -10 45
-10 18 -7 19 39 19 48 0 49 -1 65 -40z m81 0 c14 -22 25 -42 25 -45 0 -3 -17
-5 -38 -5 -35 0 -39 3 -52 38 -8 20 -16 40 -18 45 -2 4 10 7 27 7 25 0 35 -7
56 -40z m-548 -105 c-9 -38 -14 -45 -34 -45 -20 0 -23 4 -17 28 13 57 16 62
38 62 22 0 23 -2 13 -45z m139 23 c-3 -13 -6 -33 -6 -45 0 -22 -4 -23 -65 -23
l-66 0 7 38 c4 20 9 40 11 45 2 4 31 7 65 7 58 0 60 -1 54 -22z m60 -3 c13
-14 37 -28 54 -31 16 -4 30 -13 30 -20 0 -11 -17 -14 -70 -14 -76 0 -80 5 -64
68 8 29 21 28 50 -3z m188 3 c3 -13 6 -33 6 -45 0 -21 -5 -23 -50 -23 -58 0
-68 20 -21 44 16 9 31 22 34 31 9 22 24 18 31 -7z m139 14 c3 -4 7 -24 11 -44
l7 -38 -41 0 c-25 0 -40 5 -41 13 0 10 -2 10 -6 0 -2 -7 -16 -13 -29 -13 -20
0 -24 5 -24 29 0 16 -3 36 -6 44 -4 13 6 15 60 16 36 0 67 -3 69 -7z m63 -19
c3 -16 8 -36 11 -45 3 -14 -2 -18 -20 -18 -20 0 -25 7 -34 45 -10 43 -9 45 13
45 18 0 25 -7 30 -27z m-6 -93 c0 -6 -110 -10 -310 -10 -200 0 -310 4 -310 10
0 6 110 10 310 10 200 0 310 -4 310 -10z m-583 -75 c10 -43 9 -45 -13 -45 -18
0 -25 7 -30 28 -3 15 -8 35 -11 45 -3 13 2 17 20 17 20 0 25 -7 34 -45z m83
31 c0 -7 3 -28 6 -45 6 -30 5 -31 -29 -31 -41 0 -42 1 -51 53 l-7 37 41 0 c27
0 40 -4 40 -14z m140 -31 l0 -45 -60 0 c-44 0 -60 4 -60 14 0 7 -3 28 -6 45
l-6 31 66 0 66 0 0 -45z m140 16 c0 -55 -7 -61 -71 -61 l-59 0 0 45 0 45 65 0
65 0 0 -29z m136 7 c-3 -13 -6 -33 -6 -45 0 -21 -4 -23 -63 -23 l-62 0 3 45 4
45 65 0 c63 0 65 -1 59 -22z m98 -5 c-14 -63 -14 -63 -55 -63 -42 0 -44 4 -33
59 6 29 9 31 50 31 43 0 44 -1 38 -27z m-523 -118 l17 -45 -34 0 c-27 0 -38 7
-59 37 -14 21 -25 41 -25 45 0 5 19 8 43 8 41 0 43 -1 58 -45z m235 29 c-3 -9
-6 -29 -6 -45 0 -29 0 -29 -59 -29 -55 0 -60 2 -70 28 l-11 27 4 -27 c3 -26 0
-28 -30 -28 -29 0 -36 5 -49 36 -8 20 -15 40 -15 45 0 4 54 8 121 8 106 1 120
-1 115 -15z m204 -8 c-21 -57 -33 -66 -83 -66 -42 0 -48 2 -43 18 6 16 5 16
-8 0 -7 -10 -25 -18 -40 -18 -27 0 -33 18 -20 67 6 20 12 22 105 22 l98 1 -9
-24z m60 19 c0 -17 -53 -85 -65 -85 -12 0 -13 4 -5 19 5 11 14 31 20 45 6 16
17 26 30 26 11 0 20 -2 20 -5z m-427 -125 c18 -29 18 -30 -3 -30 -25 0 -72 23
-89 44 -12 14 -8 16 31 16 38 0 46 -4 61 -30z m111 8 c9 -37 8 -38 -37 -38
-37 0 -45 4 -60 30 l-18 30 54 0 c48 0 55 -3 61 -22z m170 10 c-23 -40 -38
-48 -94 -48 -56 0 -58 1 -62 30 l-5 30 84 0 c65 0 83 -3 77 -12z m46 -18 c-19
-17 -43 -30 -53 -30 -17 0 -17 2 5 29 16 21 32 30 53 30 l30 0 -35 -29z m-105
-55 c-51 -17 -139 -17 -190 0 -37 12 -30 13 95 13 125 0 132 -1 95 -13z"/>
<path d="M464 676 c-10 -26 4 -48 28 -44 33 4 33 52 0 56 -13 2 -25 -3 -28
-12z m42 -7 c10 -17 -13 -36 -27 -22 -12 12 -4 33 11 33 5 0 12 -5 16 -11z"/>
<path d="M660 591 c0 -6 4 -13 10 -16 6 -3 7 1 4 9 -7 18 -14 21 -14 7z"/>
</g>
</svg>
