<svg xmlns="http://www.w3.org/2000/svg" width="2400" height="2400" viewBox="0 0 2400 2400" version="1.1"><path d="M 1148.500 0.606 C 1145.750 0.803, 1135.400 1.442, 1125.500 2.028 C 950.298 12.383, 776.133 62.797, 622 147.770 C 494.800 217.896, 381.225 310.567, 285.913 422 C 133.266 600.466, 35.517 824.061, 8.092 1057.500 C 1.868 1110.482, 0.500 1136.158, 0.500 1200 C 0.500 1255.791, 1.019 1269.608, 4.597 1309 C 25.857 1543.105, 114.203 1763.244, 260.837 1947.500 C 307.684 2006.366, 363.262 2063.817, 422 2114.095 C 509.341 2188.856, 613.249 2253.864, 719.749 2300.373 C 837.160 2351.648, 962.511 2383.734, 1091 2395.403 C 1130.392 2398.981, 1144.209 2399.500, 1200 2399.500 C 1255.791 2399.500, 1269.608 2398.981, 1309 2395.403 C 1542.504 2374.197, 1762.551 2286.065, 1946.181 2140.202 C 2005.972 2092.708, 2063.358 2037.275, 2114.095 1978 C 2188.853 1890.663, 2254.060 1786.430, 2300.364 1680.251 C 2350.418 1565.473, 2382.093 1443.887, 2394.475 1319 C 2396.537 1298.208, 2398.981 1263.194, 2398.992 1254.309 C 2398.996 1250.354, 2399.450 1246.840, 2400 1246.500 C 2400.644 1246.102, 2401 1229.137, 2401 1198.882 C 2401 1167.803, 2400.661 1152.091, 2400 1152.500 C 2399.368 1152.890, 2398.997 1150.425, 2398.992 1145.809 C 2398.981 1136.823, 2396.548 1101.904, 2394.475 1081 C 2371.697 851.266, 2283.913 634.740, 2140.202 453.819 C 2092.708 394.028, 2037.275 336.642, 1978 285.905 C 1864.419 188.683, 1729.359 111.905, 1586.546 63.376 C 1488.498 30.057, 1393.255 10.926, 1283 2.401 C 1263.968 0.930, 1162.834 -0.420, 1148.500 0.606 M 1369.971 54.625 C 1334.690 73.440, 1275.078 114.291, 1192 176.584 C 1113.022 235.804, 1077.035 265.839, 1036.421 306.433 C 994.587 348.246, 975.655 375.754, 971.845 400.261 C 970.245 410.550, 971.887 414.767, 981.386 424.776 C 990.489 434.368, 1000.224 441.919, 1022 456.281 C 1031.625 462.629, 1042.923 470.991, 1047.107 474.863 C 1064.995 491.418, 1076.210 511.746, 1081.113 536.500 C 1083.188 546.974, 1082.923 579.940, 1080.672 591.500 C 1071.311 639.558, 1040.470 681.178, 999.500 701.041 C 987.847 706.691, 979.934 709.444, 967.605 712.137 C 958.041 714.227, 935.928 716.274, 934.834 715.171 C 934.468 714.802, 923.736 695.825, 910.986 673 C 879.523 616.677, 872.475 606.232, 854.243 588.905 C 833.434 569.131, 811.690 558.762, 784.949 555.861 C 765.045 553.703, 749.589 557.764, 713 574.767 C 701.175 580.262, 688.125 585.975, 684 587.462 C 668.826 592.933, 654.551 591.678, 638.065 583.425 C 603.544 566.144, 571.688 514.518, 544.010 431 C 522.775 366.923, 510.495 318.164, 508.126 288.521 C 507.614 282.108, 507.017 276.683, 506.799 276.466 C 505.971 275.638, 468.226 486.718, 455.025 566 C 437.834 669.243, 436.630 680.638, 439.010 717.500 C 442.768 775.706, 455.222 808.205, 477.580 818.150 C 488.478 822.998, 502.534 821.713, 536 812.809 C 574.122 802.667, 586.334 801.172, 600.924 804.861 C 620.370 809.779, 636.401 820.383, 660.065 843.981 C 684.307 868.156, 698.914 888.915, 706.389 909.815 C 709.324 918.021, 709.495 919.300, 709.488 933 C 709.482 945.882, 709.166 948.608, 706.659 957.435 C 701.089 977.042, 689.917 1001.560, 674.490 1028.037 C 665.985 1042.634, 655.358 1059.731, 653.519 1061.779 C 652.597 1062.805, 648.617 1061.849, 633.435 1056.952 C 565.740 1035.121, 537.400 1027, 528.906 1027 C 489.670 1027, 453.709 1051.057, 428.002 1094.500 C 412.383 1120.895, 409.022 1126.212, 402.425 1134.959 C 384.261 1159.045, 365.982 1172.311, 347.318 1174.954 C 329.876 1177.424, 295.863 1171.467, 261.775 1159.972 C 225.212 1147.643, 207.790 1139.600, 134 1100.983 C 60.044 1062.280, 56.214 1060.331, 57.640 1062.122 C 61.066 1066.424, 174.676 1225.255, 195.961 1255.500 C 246.656 1327.534, 267.447 1353.535, 301.953 1388.053 C 328.960 1415.068, 349.077 1430.446, 371.175 1440.967 C 384.223 1447.179, 394.034 1449.945, 405.684 1450.695 C 421.899 1451.738, 435.447 1447.559, 452.387 1436.288 C 469.041 1425.207, 482.423 1411.422, 507.513 1379.500 C 531.168 1349.405, 548.245 1332.044, 559.817 1326.327 C 564.933 1323.799, 565.575 1323.724, 576.817 1324.342 C 635.793 1327.584, 676.060 1357.394, 698.881 1414.707 C 703.424 1426.116, 708.202 1441.838, 710.903 1454.264 L 712.808 1463.028 708.654 1465.366 C 689.553 1476.114, 678.990 1482.385, 670 1488.314 C 608.840 1528.650, 579 1571.365, 579 1618.576 C 579 1628.473, 583.914 1666.161, 588.965 1695 C 591.362 1708.688, 591.457 1713.436, 589.499 1721.742 C 577.678 1771.876, 502.802 1819.678, 372.377 1860.357 C 346.068 1868.563, 321.556 1875.575, 298.500 1881.491 C 288.600 1884.031, 279.825 1886.364, 279 1886.676 C 276.495 1887.621, 369.908 1904.944, 434.235 1915.464 C 643.176 1949.633, 737.797 1949.943, 788.354 1916.621 C 797.240 1910.765, 802.848 1905.664, 809.111 1897.740 C 815.338 1889.862, 818.397 1883.147, 823.567 1866 C 823.981 1864.625, 824.629 1837.175, 825.006 1805 C 825.767 1740.154, 825.733 1740.502, 832.647 1726.128 C 837.136 1716.795, 848.428 1705.074, 858.500 1699.293 C 877.211 1688.554, 900.647 1683.008, 934.012 1681.423 C 963.951 1680.001, 986.313 1685.226, 1007.671 1698.636 C 1017.839 1705.019, 1031.228 1716.131, 1036.493 1722.557 L 1040.195 1727.075 1034.503 1739.711 C 1010.079 1793.928, 1000.245 1838.297, 1005.488 1870.625 C 1008.332 1888.160, 1016.199 1906.159, 1028.802 1923.962 C 1037.489 1936.234, 1056.867 1955.765, 1074.500 1970.022 C 1112.467 2000.720, 1130.347 2019.704, 1139.300 2038.822 C 1141.902 2044.381, 1142.493 2047.014, 1142.823 2054.536 C 1143.524 2070.501, 1139.129 2094.315, 1130.372 2122 C 1110.747 2184.045, 1058.741 2285.006, 1018.336 2339.500 C 1015.074 2343.900, 1012.032 2348.111, 1011.576 2348.859 C 1011.121 2349.606, 1016.092 2346.251, 1022.624 2341.404 C 1049.176 2321.699, 1099.536 2285.208, 1151.500 2248.021 C 1228.709 2192.766, 1252.105 2175.354, 1284.514 2149.022 C 1339.549 2104.307, 1380.144 2063.447, 1402.265 2030.500 C 1419.479 2004.860, 1428.457 1978.087, 1423.408 1967.447 C 1418.970 1958.095, 1401.856 1943.186, 1373.605 1924.063 C 1355.528 1911.826, 1342.371 1900.233, 1333.945 1889.118 C 1326.945 1879.885, 1319.442 1864.326, 1316.287 1852.500 C 1313.825 1843.274, 1313.616 1840.951, 1313.589 1822.500 C 1313.555 1799.654, 1314.922 1789.966, 1320.556 1773.127 C 1334.540 1731.333, 1367.008 1703.224, 1417.758 1688.973 C 1427.764 1686.164, 1447.379 1682, 1450.609 1682 C 1451.534 1682, 1453.775 1685.574, 1456.409 1691.250 C 1495.580 1775.644, 1534.769 1821.987, 1579.564 1836.885 C 1607.532 1846.187, 1624.153 1843.361, 1671.500 1821.255 C 1704.965 1805.630, 1715.371 1803.380, 1731.229 1808.337 C 1781.815 1824.149, 1830.464 1919.651, 1876.492 2093.500 C 1879.404 2104.500, 1882.058 2112.825, 1882.389 2112 C 1882.720 2111.175, 1886.331 2094.975, 1890.413 2076 C 1920.130 1937.857, 1935.678 1839.598, 1941.102 1755.656 C 1942.629 1732.029, 1941.732 1669.457, 1939.595 1650.500 C 1935.807 1616.895, 1929.691 1596.305, 1920.461 1586.089 C 1911.232 1575.873, 1906.405 1575.977, 1856 1587.482 C 1824.372 1594.701, 1814.732 1596.228, 1800 1596.353 C 1785.301 1596.477, 1779.285 1595.107, 1765.043 1588.391 C 1747.151 1579.953, 1728.175 1565.855, 1706.637 1545 C 1689.026 1527.947, 1678.294 1514.340, 1671.554 1500.521 C 1660.179 1477.196, 1661.009 1467.424, 1677.121 1435 C 1684.478 1420.195, 1703.067 1388.495, 1715.431 1369.670 C 1720.292 1362.269, 1721.575 1360.925, 1723.365 1361.362 C 1724.539 1361.648, 1736.750 1364.363, 1750.500 1367.395 C 1809.980 1380.509, 1846.427 1385.902, 1866.455 1384.551 C 1902.876 1382.096, 1929.734 1369.080, 1947.768 1345.148 C 1955.949 1334.290, 1960.030 1326.597, 1967.559 1307.833 C 1978.001 1281.812, 1986.320 1267.815, 1998.607 1255.591 C 2021.808 1232.510, 2045.480 1230.976, 2098.619 1249.110 C 2148.972 1266.294, 2230.467 1305.691, 2325.104 1358.599 C 2335.335 1364.320, 2343.972 1369, 2344.297 1369 C 2344.621 1369, 2324.595 1339.862, 2299.794 1304.250 C 2243.542 1223.475, 2205.422 1168.383, 2178.533 1129 C 2141.283 1074.441, 2121.805 1049.750, 2094.044 1021.900 C 2068.625 996.401, 2051.386 983.351, 2028.773 972.489 C 2022.573 969.511, 2013 965.825, 2007.500 964.297 C 1998.302 961.743, 1996.136 961.526, 1980.500 961.588 C 1965.402 961.648, 1962.396 961.952, 1953.628 964.301 C 1930.370 970.534, 1912.225 983.277, 1897.684 1003.592 C 1895.680 1006.392, 1890.156 1016.067, 1885.410 1025.092 C 1873.069 1048.555, 1865.374 1059.913, 1854.633 1070.518 C 1838.078 1086.865, 1825.798 1090.445, 1799.748 1086.518 C 1769.702 1081.989, 1746.688 1066.889, 1728.090 1039.500 C 1718.207 1024.945, 1688.215 973.375, 1689.157 972.554 C 1689.345 972.390, 1714.475 954.586, 1745 932.990 C 1775.525 911.394, 1803.200 891.580, 1806.500 888.958 C 1821.575 876.982, 1836.325 858.725, 1841.037 846.207 C 1849.488 823.756, 1847.723 807.446, 1829.699 741.460 C 1818.447 700.268, 1816.513 690.593, 1816.506 675.452 C 1816.500 663.662, 1816.575 663.257, 1820 656.492 C 1830.715 635.329, 1865.462 614.578, 1920.500 596.473 C 1929.300 593.578, 1980.825 579.184, 2035 564.485 C 2089.175 549.787, 2133.836 537.457, 2134.246 537.085 C 2135.059 536.348, 2129.195 535.291, 2050.500 521.995 C 1907.317 497.804, 1816.218 485.850, 1753.634 483.038 C 1731.909 482.062, 1687.967 483.046, 1666.911 484.981 C 1610.373 490.175, 1578.619 501.771, 1569.414 520.586 C 1566.774 525.983, 1566.719 526.453, 1567.309 538.813 C 1567.642 545.791, 1569.300 560.725, 1570.992 572 C 1578.726 623.519, 1579.199 627.476, 1579.121 640 C 1578.991 660.845, 1574.630 679.596, 1566.865 692.703 C 1559.413 705.281, 1546.058 716, 1531.129 721.385 C 1515.530 727.012, 1490.430 728.938, 1475.500 725.653 C 1454.235 720.974, 1429.986 709.806, 1398.500 690.189 C 1377.489 677.098, 1367.796 669.965, 1368.530 668.132 C 1370.242 663.854, 1379.248 626.592, 1381.422 614.793 C 1389.307 571.996, 1389.341 531.696, 1381.517 501.699 C 1378.826 491.380, 1375.144 481.181, 1371.585 474.187 C 1364.806 460.866, 1345.803 439.525, 1314.071 409.597 C 1281.812 379.172, 1269.159 364.198, 1259.536 345.061 C 1247.842 321.807, 1246.977 298.146, 1256.594 264.688 C 1270.935 214.800, 1312.255 141.746, 1372.279 60.159 C 1376.058 55.021, 1378.991 50.658, 1378.796 50.463 C 1378.601 50.268, 1374.629 52.141, 1369.971 54.625 M 1167.500 716.591 C 1103.348 721.353, 1056.726 732.070, 1006.108 753.690 C 930.745 785.880, 858.533 844.056, 804.016 916.500 C 742.339 998.459, 711.024 1094.448, 711.004 1201.605 C 710.981 1325.157, 755.648 1430.061, 846.999 1521 C 951.975 1625.503, 1076.466 1675.039, 1218.898 1668.983 C 1231.675 1668.440, 1248.512 1667.306, 1256.314 1666.464 C 1370.443 1654.147, 1464.424 1609.536, 1543.862 1529.971 C 1635.853 1437.833, 1678.780 1322.011, 1673.203 1181 C 1671.958 1149.510, 1670.495 1134.423, 1666.368 1110.500 C 1655.898 1049.810, 1632.251 990.912, 1597.513 939 C 1577.200 908.645, 1559.479 887.325, 1530.571 858.465 C 1500.785 828.727, 1479.560 811.233, 1448 790.408 C 1386.992 750.151, 1320.078 726.437, 1244.930 718.440 C 1231.396 716.999, 1178.889 715.746, 1167.500 716.591 M 1157.500 769.073 C 1084.189 775.791, 1021.025 797.585, 962 836.528 C 904.900 874.201, 852.826 927.820, 819.749 983 C 789.360 1033.696, 771.571 1087.920, 764.799 1150.500 C 762.819 1168.797, 763.140 1225.627, 765.329 1244.199 C 773.515 1313.663, 794.269 1371.587, 830.288 1425.500 C 861.719 1472.546, 905.654 1516.653, 953.500 1549.195 C 1024.393 1597.411, 1104.203 1620.992, 1196.500 1620.992 C 1302.888 1620.992, 1394.229 1590.550, 1470.500 1529.674 C 1561.145 1457.326, 1612.868 1363.648, 1625.471 1249 C 1627.553 1230.063, 1629.325 1184.484, 1628.524 1170.500 C 1622.679 1068.523, 1582.551 979.522, 1507.522 902.131 C 1433.941 826.232, 1349.541 783.407, 1247.979 770.437 C 1233.195 768.549, 1173.102 767.643, 1157.500 769.073 M 0.462 1200 C 0.462 1226.125, 0.591 1236.813, 0.749 1223.750 C 0.907 1210.688, 0.907 1189.313, 0.749 1176.250 C 0.591 1163.188, 0.462 1173.875, 0.462 1200" stroke="none" fill="#fbfbd3" fill-rule="evenodd"/><path d="M 1369.971 54.625 C 1334.690 73.440, 1275.078 114.291, 1192 176.584 C 1113.022 235.804, 1077.035 265.839, 1036.421 306.433 C 994.587 348.246, 975.655 375.754, 971.845 400.261 C 970.245 410.550, 971.887 414.767, 981.386 424.776 C 990.489 434.368, 1000.224 441.919, 1022 456.281 C 1031.625 462.629, 1042.923 470.991, 1047.107 474.863 C 1064.995 491.418, 1076.210 511.746, 1081.113 536.500 C 1083.188 546.974, 1082.923 579.940, 1080.672 591.500 C 1071.311 639.558, 1040.470 681.178, 999.500 701.041 C 987.847 706.691, 979.934 709.444, 967.605 712.137 C 958.041 714.227, 935.928 716.274, 934.834 715.171 C 934.468 714.802, 923.736 695.825, 910.986 673 C 879.523 616.677, 872.475 606.232, 854.243 588.905 C 833.434 569.131, 811.690 558.762, 784.949 555.861 C 765.045 553.703, 749.589 557.764, 713 574.767 C 701.175 580.262, 688.125 585.975, 684 587.462 C 668.826 592.933, 654.551 591.678, 638.065 583.425 C 603.544 566.144, 571.688 514.518, 544.010 431 C 522.775 366.923, 510.495 318.164, 508.126 288.521 C 507.614 282.108, 507.017 276.683, 506.799 276.466 C 505.971 275.638, 468.226 486.718, 455.025 566 C 437.834 669.243, 436.630 680.638, 439.010 717.500 C 442.768 775.706, 455.222 808.205, 477.580 818.150 C 488.478 822.998, 502.534 821.713, 536 812.809 C 574.122 802.667, 586.334 801.172, 600.924 804.861 C 620.370 809.779, 636.401 820.383, 660.065 843.981 C 684.307 868.156, 698.914 888.915, 706.389 909.815 C 709.324 918.021, 709.495 919.300, 709.488 933 C 709.482 945.882, 709.166 948.608, 706.659 957.435 C 701.089 977.042, 689.917 1001.560, 674.490 1028.037 C 665.985 1042.634, 655.358 1059.731, 653.519 1061.779 C 652.597 1062.805, 648.617 1061.849, 633.435 1056.952 C 565.740 1035.121, 537.400 1027, 528.906 1027 C 489.670 1027, 453.709 1051.057, 428.002 1094.500 C 412.383 1120.895, 409.022 1126.212, 402.425 1134.959 C 384.261 1159.045, 365.982 1172.311, 347.318 1174.954 C 329.876 1177.424, 295.863 1171.467, 261.775 1159.972 C 225.212 1147.643, 207.790 1139.600, 134 1100.983 C 60.044 1062.280, 56.214 1060.331, 57.640 1062.122 C 61.066 1066.424, 174.676 1225.255, 195.961 1255.500 C 246.656 1327.534, 267.447 1353.535, 301.953 1388.053 C 328.960 1415.068, 349.077 1430.446, 371.175 1440.967 C 384.223 1447.179, 394.034 1449.945, 405.684 1450.695 C 421.899 1451.738, 435.447 1447.559, 452.387 1436.288 C 469.041 1425.207, 482.423 1411.422, 507.513 1379.500 C 531.168 1349.405, 548.245 1332.044, 559.817 1326.327 C 564.933 1323.799, 565.575 1323.724, 576.817 1324.342 C 635.793 1327.584, 676.060 1357.394, 698.881 1414.707 C 703.424 1426.116, 708.202 1441.838, 710.903 1454.264 L 712.808 1463.028 708.654 1465.366 C 689.553 1476.114, 678.990 1482.385, 670 1488.314 C 608.840 1528.650, 579 1571.365, 579 1618.576 C 579 1628.473, 583.914 1666.161, 588.965 1695 C 591.362 1708.688, 591.457 1713.436, 589.499 1721.742 C 577.678 1771.876, 502.802 1819.678, 372.377 1860.357 C 346.068 1868.563, 321.556 1875.575, 298.500 1881.491 C 288.600 1884.031, 279.825 1886.364, 279 1886.676 C 276.495 1887.621, 369.908 1904.944, 434.235 1915.464 C 643.176 1949.633, 737.797 1949.943, 788.354 1916.621 C 797.240 1910.765, 802.848 1905.664, 809.111 1897.740 C 815.338 1889.862, 818.397 1883.147, 823.567 1866 C 823.981 1864.625, 824.629 1837.175, 825.006 1805 C 825.767 1740.154, 825.733 1740.502, 832.647 1726.128 C 837.136 1716.795, 848.428 1705.074, 858.500 1699.293 C 877.211 1688.554, 900.647 1683.008, 934.012 1681.423 C 963.951 1680.001, 986.313 1685.226, 1007.671 1698.636 C 1017.839 1705.019, 1031.228 1716.131, 1036.493 1722.557 L 1040.195 1727.075 1034.503 1739.711 C 1010.079 1793.928, 1000.245 1838.297, 1005.488 1870.625 C 1008.332 1888.160, 1016.199 1906.159, 1028.802 1923.962 C 1037.489 1936.234, 1056.867 1955.765, 1074.500 1970.022 C 1112.467 2000.720, 1130.347 2019.704, 1139.300 2038.822 C 1141.902 2044.381, 1142.493 2047.014, 1142.823 2054.536 C 1143.524 2070.501, 1139.129 2094.315, 1130.372 2122 C 1110.747 2184.045, 1058.741 2285.006, 1018.336 2339.500 C 1015.074 2343.900, 1012.032 2348.111, 1011.576 2348.859 C 1011.121 2349.606, 1016.092 2346.251, 1022.624 2341.404 C 1049.176 2321.699, 1099.536 2285.208, 1151.500 2248.021 C 1228.709 2192.766, 1252.105 2175.354, 1284.514 2149.022 C 1339.549 2104.307, 1380.144 2063.447, 1402.265 2030.500 C 1419.479 2004.860, 1428.457 1978.087, 1423.408 1967.447 C 1418.970 1958.095, 1401.856 1943.186, 1373.605 1924.063 C 1355.528 1911.826, 1342.371 1900.233, 1333.945 1889.118 C 1326.945 1879.885, 1319.442 1864.326, 1316.287 1852.500 C 1313.825 1843.274, 1313.616 1840.951, 1313.589 1822.500 C 1313.555 1799.654, 1314.922 1789.966, 1320.556 1773.127 C 1334.540 1731.333, 1367.008 1703.224, 1417.758 1688.973 C 1427.764 1686.164, 1447.379 1682, 1450.609 1682 C 1451.534 1682, 1453.775 1685.574, 1456.409 1691.250 C 1495.580 1775.644, 1534.769 1821.987, 1579.564 1836.885 C 1607.532 1846.187, 1624.153 1843.361, 1671.500 1821.255 C 1704.965 1805.630, 1715.371 1803.380, 1731.229 1808.337 C 1781.815 1824.149, 1830.464 1919.651, 1876.492 2093.500 C 1879.404 2104.500, 1882.058 2112.825, 1882.389 2112 C 1882.720 2111.175, 1886.331 2094.975, 1890.413 2076 C 1920.130 1937.857, 1935.678 1839.598, 1941.102 1755.656 C 1942.629 1732.029, 1941.732 1669.457, 1939.595 1650.500 C 1935.807 1616.895, 1929.691 1596.305, 1920.461 1586.089 C 1911.232 1575.873, 1906.405 1575.977, 1856 1587.482 C 1824.372 1594.701, 1814.732 1596.228, 1800 1596.353 C 1785.301 1596.477, 1779.285 1595.107, 1765.043 1588.391 C 1747.151 1579.953, 1728.175 1565.855, 1706.637 1545 C 1689.026 1527.947, 1678.294 1514.340, 1671.554 1500.521 C 1660.179 1477.196, 1661.009 1467.424, 1677.121 1435 C 1684.478 1420.195, 1703.067 1388.495, 1715.431 1369.670 C 1720.292 1362.269, 1721.575 1360.925, 1723.365 1361.362 C 1724.539 1361.648, 1736.750 1364.363, 1750.500 1367.395 C 1809.980 1380.509, 1846.427 1385.902, 1866.455 1384.551 C 1902.876 1382.096, 1929.734 1369.080, 1947.768 1345.148 C 1955.949 1334.290, 1960.030 1326.597, 1967.559 1307.833 C 1978.001 1281.812, 1986.320 1267.815, 1998.607 1255.591 C 2021.808 1232.510, 2045.480 1230.976, 2098.619 1249.110 C 2148.972 1266.294, 2230.467 1305.691, 2325.104 1358.599 C 2335.335 1364.320, 2343.972 1369, 2344.297 1369 C 2344.621 1369, 2324.595 1339.862, 2299.794 1304.250 C 2243.542 1223.475, 2205.422 1168.383, 2178.533 1129 C 2141.283 1074.441, 2121.805 1049.750, 2094.044 1021.900 C 2068.625 996.401, 2051.386 983.351, 2028.773 972.489 C 2022.573 969.511, 2013 965.825, 2007.500 964.297 C 1998.302 961.743, 1996.136 961.526, 1980.500 961.588 C 1965.402 961.648, 1962.396 961.952, 1953.628 964.301 C 1930.370 970.534, 1912.225 983.277, 1897.684 1003.592 C 1895.680 1006.392, 1890.156 1016.067, 1885.410 1025.092 C 1873.069 1048.555, 1865.374 1059.913, 1854.633 1070.518 C 1838.078 1086.865, 1825.798 1090.445, 1799.748 1086.518 C 1769.702 1081.989, 1746.688 1066.889, 1728.090 1039.500 C 1718.207 1024.945, 1688.215 973.375, 1689.157 972.554 C 1689.345 972.390, 1714.475 954.586, 1745 932.990 C 1775.525 911.394, 1803.200 891.580, 1806.500 888.958 C 1821.575 876.982, 1836.325 858.725, 1841.037 846.207 C 1849.488 823.756, 1847.723 807.446, 1829.699 741.460 C 1818.447 700.268, 1816.513 690.593, 1816.506 675.452 C 1816.500 663.662, 1816.575 663.257, 1820 656.492 C 1830.715 635.329, 1865.462 614.578, 1920.500 596.473 C 1929.300 593.578, 1980.825 579.184, 2035 564.485 C 2089.175 549.787, 2133.836 537.457, 2134.246 537.085 C 2135.059 536.348, 2129.195 535.291, 2050.500 521.995 C 1907.317 497.804, 1816.218 485.850, 1753.634 483.038 C 1731.909 482.062, 1687.967 483.046, 1666.911 484.981 C 1610.373 490.175, 1578.619 501.771, 1569.414 520.586 C 1566.774 525.983, 1566.719 526.453, 1567.309 538.813 C 1567.642 545.791, 1569.300 560.725, 1570.992 572 C 1578.726 623.519, 1579.199 627.476, 1579.121 640 C 1578.991 660.845, 1574.630 679.596, 1566.865 692.703 C 1559.413 705.281, 1546.058 716, 1531.129 721.385 C 1515.530 727.012, 1490.430 728.938, 1475.500 725.653 C 1454.235 720.974, 1429.986 709.806, 1398.500 690.189 C 1377.489 677.098, 1367.796 669.965, 1368.530 668.132 C 1370.242 663.854, 1379.248 626.592, 1381.422 614.793 C 1389.307 571.996, 1389.341 531.696, 1381.517 501.699 C 1378.826 491.380, 1375.144 481.181, 1371.585 474.187 C 1364.806 460.866, 1345.803 439.525, 1314.071 409.597 C 1281.812 379.172, 1269.159 364.198, 1259.536 345.061 C 1247.842 321.807, 1246.977 298.146, 1256.594 264.688 C 1270.935 214.800, 1312.255 141.746, 1372.279 60.159 C 1376.058 55.021, 1378.991 50.658, 1378.796 50.463 C 1378.601 50.268, 1374.629 52.141, 1369.971 54.625 M 1167.500 716.591 C 1103.348 721.353, 1056.726 732.070, 1006.108 753.690 C 930.745 785.880, 858.533 844.056, 804.016 916.500 C 742.339 998.459, 711.024 1094.448, 711.004 1201.605 C 710.981 1325.157, 755.648 1430.061, 846.999 1521 C 951.975 1625.503, 1076.466 1675.039, 1218.898 1668.983 C 1231.675 1668.440, 1248.512 1667.306, 1256.314 1666.464 C 1370.443 1654.147, 1464.424 1609.536, 1543.862 1529.971 C 1635.853 1437.833, 1678.780 1322.011, 1673.203 1181 C 1671.958 1149.510, 1670.495 1134.423, 1666.368 1110.500 C 1655.898 1049.810, 1632.251 990.912, 1597.513 939 C 1577.200 908.645, 1559.479 887.325, 1530.571 858.465 C 1500.785 828.727, 1479.560 811.233, 1448 790.408 C 1386.992 750.151, 1320.078 726.437, 1244.930 718.440 C 1231.396 716.999, 1178.889 715.746, 1167.500 716.591 M 1157.500 769.073 C 1084.189 775.791, 1021.025 797.585, 962 836.528 C 904.900 874.201, 852.826 927.820, 819.749 983 C 789.360 1033.696, 771.571 1087.920, 764.799 1150.500 C 762.819 1168.797, 763.140 1225.627, 765.329 1244.199 C 773.515 1313.663, 794.269 1371.587, 830.288 1425.500 C 861.719 1472.546, 905.654 1516.653, 953.500 1549.195 C 1024.393 1597.411, 1104.203 1620.992, 1196.500 1620.992 C 1302.888 1620.992, 1394.229 1590.550, 1470.500 1529.674 C 1561.145 1457.326, 1612.868 1363.648, 1625.471 1249 C 1627.553 1230.063, 1629.325 1184.484, 1628.524 1170.500 C 1622.679 1068.523, 1582.551 979.522, 1507.522 902.131 C 1433.941 826.232, 1349.541 783.407, 1247.979 770.437 C 1233.195 768.549, 1173.102 767.643, 1157.500 769.073" stroke="none" fill="#241c14" fill-rule="evenodd"/></svg>