<svg xmlns="http://www.w3.org/2000/svg" width="2400" height="2400" viewBox="0 0 2400 2400" version="1.1"><path d="M 1148.500 0.606 C 1145.750 0.803, 1135.400 1.442, 1125.500 2.028 C 950.298 12.383, 776.133 62.797, 622 147.770 C 494.800 217.896, 381.225 310.567, 285.913 422 C 133.266 600.466, 35.517 824.061, 8.092 1057.500 C 1.868 1110.482, 0.500 1136.158, 0.500 1200 C 0.500 1255.791, 1.019 1269.608, 4.597 1309 C 25.857 1543.105, 114.203 1763.244, 260.837 1947.500 C 307.684 2006.366, 363.262 2063.817, 422 2114.095 C 509.341 2188.856, 613.249 2253.864, 719.749 2300.373 C 837.160 2351.648, 962.511 2383.734, 1091 2395.403 C 1130.392 2398.981, 1144.209 2399.500, 1200 2399.500 C 1255.791 2399.500, 1269.608 2398.981, 1309 2395.403 C 1542.504 2374.197, 1762.551 2286.065, 1946.181 2140.202 C 2005.972 2092.708, 2063.358 2037.275, 2114.095 1978 C 2188.853 1890.663, 2254.060 1786.430, 2300.364 1680.251 C 2350.418 1565.473, 2382.093 1443.887, 2394.475 1319 C 2396.537 1298.208, 2398.981 1263.194, 2398.992 1254.309 C 2398.996 1250.354, 2399.450 1246.840, 2400 1246.500 C 2400.644 1246.102, 2401 1229.137, 2401 1198.882 C 2401 1167.803, 2400.661 1152.091, 2400 1152.500 C 2399.368 1152.890, 2398.997 1150.425, 2398.992 1145.809 C 2398.981 1136.823, 2396.548 1101.904, 2394.475 1081 C 2371.697 851.266, 2283.913 634.740, 2140.202 453.819 C 2092.708 394.028, 2037.275 336.642, 1978 285.905 C 1864.419 188.683, 1729.359 111.905, 1586.546 63.376 C 1488.498 30.057, 1393.255 10.926, 1283 2.401 C 1263.968 0.930, 1162.834 -0.420, 1148.500 0.606 M 1166 186.678 C 1114.693 187.796, 1038.016 194.519, 951.478 205.486 C 921.717 209.258, 907.257 212.031, 885.778 218.089 C 842.729 230.230, 770.667 258.027, 730.500 277.985 C 691.811 297.209, 672.054 312.978, 667.518 328.253 C 664.745 337.591, 667.997 394.094, 673.058 424.500 C 680.580 469.686, 694.624 506.487, 713.366 530.117 C 717.813 535.724, 731.608 547.693, 767.500 577.085 C 822.821 622.387, 878.666 663.963, 917.139 688.491 C 925.588 693.878, 932.950 698.696, 933.500 699.199 C 934.639 700.239, 932.567 699.503, 857 672.016 C 749.615 632.955, 760.891 636.495, 695.500 621.313 C 663.600 613.906, 637.194 607.543, 636.820 607.173 C 635.977 606.339, 625.781 567.336, 613.921 519.582 C 604.514 481.707, 591.573 424.518, 587.992 405 C 586.832 398.675, 585.688 392.912, 585.451 392.194 C 584.981 390.769, 571.521 401.606, 546.500 423.554 C 444.930 512.652, 367.140 612.144, 313.545 721.500 C 267.671 815.101, 239.685 914.500, 229.076 1021.500 C 225.293 1059.657, 224.549 1075.946, 224.577 1120 C 224.606 1165.601, 225.612 1182.880, 230.105 1215 C 239.074 1279.105, 258.334 1330.772, 288.205 1370.854 C 296.865 1382.475, 317.483 1403.358, 328.500 1411.667 C 348.481 1426.737, 367.940 1437.077, 392.229 1445.532 C 407.308 1450.780, 417.251 1453.089, 474.355 1464.598 C 572.983 1484.477, 725.236 1517.467, 726.485 1519.230 C 749.755 1552.080, 770.145 1587.156, 775.040 1602.759 C 778.245 1612.975, 777.941 1618.715, 773.548 1631 C 765.701 1652.944, 767.076 1638.450, 753.432 1842.959 C 741.586 2020.522, 740.880 2032.868, 741.310 2055 C 742.057 2093.504, 747.632 2116.981, 762.148 2142.769 C 767.783 2152.779, 781.829 2167.132, 791.626 2172.892 C 806.093 2181.396, 823.488 2187.302, 843.617 2190.543 C 856.535 2192.623, 884.450 2194.060, 890.322 2192.947 C 896.358 2191.803, 900.681 2188.794, 901.399 2185.236 C 901.703 2183.731, 903.779 2167.875, 906.014 2150 C 908.249 2132.125, 911.272 2110.300, 912.731 2101.500 C 914.767 2089.228, 915.388 2082.005, 915.397 2070.500 C 915.408 2056.053, 915.181 2054.376, 909.228 2025 C 905.829 2008.225, 902.577 1990.588, 902.003 1985.807 L 900.958 1977.115 918.027 1922.807 C 927.415 1892.938, 935.564 1867.024, 936.136 1865.220 L 937.175 1861.940 949.253 1862.220 L 961.332 1862.500 975.194 1913.500 C 1000.865 2007.947, 1021.754 2090.255, 1032.588 2139.648 L 1036.350 2156.797 1054.751 2157.523 C 1073.086 2158.247, 1137.531 2157.805, 1138.381 2156.950 C 1138.627 2156.702, 1146.759 2093.950, 1156.452 2017.500 C 1166.145 1941.050, 1174.292 1877.487, 1174.557 1876.250 L 1175.038 1874 1200.769 1874.022 C 1229.750 1874.047, 1231.655 1874.426, 1237.772 1881.393 L 1241.026 1885.100 1240.763 1992.934 L 1240.500 2100.768 1247.071 2102.884 C 1250.685 2104.048, 1254.439 2105, 1255.412 2105 C 1257.650 2105, 1326.274 2058.974, 1380.391 2021.177 L 1398.281 2008.682 1397.699 1989.091 C 1397.085 1968.439, 1395.775 1957.733, 1390.952 1933.928 C 1386.691 1912.893, 1386.996 1901.170, 1392.141 1888.250 L 1394.232 1883 1417.993 1883 L 1441.754 1883 1449.288 1902.750 C 1464.195 1941.828, 1473.990 1971.476, 1477.556 1988.315 C 1480.341 2001.463, 1479.262 2011.487, 1471.348 2045.980 C 1461.792 2087.629, 1461.863 2098.350, 1472.016 2147.524 C 1475.464 2164.221, 1486.881 2211.189, 1487.888 2212.818 C 1488.698 2214.130, 1618.471 2188.035, 1620.092 2186.235 C 1620.863 2185.378, 1628.814 2144.297, 1632.427 2122.500 C 1637.441 2092.251, 1640.352 2067.881, 1641.326 2048 C 1641.668 2041.025, 1634.247 1959.633, 1628.562 1908 C 1622.816 1855.806, 1622.853 1857.125, 1623.206 1719 L 1623.531 1591.500 1625.760 1583.500 C 1634.628 1551.665, 1658.628 1528.781, 1700.150 1512.567 C 1722.537 1503.826, 1745.667 1498.246, 1787.500 1491.494 C 1862.604 1479.372, 1939.794 1464.413, 1981.500 1453.897 C 2012.267 1446.139, 2026.190 1441.185, 2042.500 1432.190 C 2114.272 1392.607, 2157.646 1327.235, 2171.385 1237.933 C 2176.334 1205.771, 2178.990 1158.438, 2177.121 1135.744 C 2176.430 1127.360, 2175.645 1103.850, 2175.375 1083.500 C 2174.833 1042.470, 2174.707 1041.316, 2166.397 1000.782 C 2148.040 911.245, 2119.060 824.634, 2079.460 740.957 C 2046.887 672.129, 2014.858 620.688, 1954.649 540.500 C 1916.571 489.786, 1885.033 456.455, 1869.428 450.435 C 1865.388 448.877, 1865.333 448.887, 1862.291 451.729 C 1854.494 459.012, 1801.510 484.150, 1730.500 514.258 C 1667.627 540.916, 1616.069 556.994, 1574.500 562.904 C 1557.336 565.344, 1534.431 566.730, 1535.332 565.273 C 1535.677 564.714, 1542.381 560.746, 1550.229 556.453 C 1651.744 500.938, 1735.501 441.115, 1781.049 391.593 C 1787.072 385.045, 1791.975 379.420, 1791.945 379.093 C 1791.788 377.416, 1752.361 347.755, 1732.500 334.374 C 1607.058 249.857, 1456.116 201.861, 1277 189.534 C 1256.393 188.116, 1187.572 185.758, 1180.500 186.228 C 1178.850 186.338, 1172.325 186.540, 1166 186.678 M 641.500 861.006 C 599.187 866.246, 563.545 879.386, 529 902.482 C 483.614 932.825, 441.300 980.476, 414.558 1031.360 C 390.731 1076.696, 378.442 1129.531, 380.332 1178.500 C 380.998 1195.750, 382.875 1207.420, 387.162 1220.955 C 399.074 1258.568, 424.869 1284.282, 467.017 1300.560 C 498.299 1312.641, 558.532 1321.651, 630.500 1325.015 C 657.965 1326.299, 850.178 1326.276, 869 1324.987 C 903.145 1322.648, 925.901 1318.746, 948.490 1311.356 C 989.033 1298.094, 1012.264 1276.732, 1021.197 1244.500 C 1024.352 1233.115, 1024.307 1201.261, 1021.107 1180 C 1012.978 1126.001, 991.761 1076.810, 955.114 1027 C 929.756 992.534, 890.281 952.510, 856.710 927.227 C 809.503 891.674, 762.671 871.085, 709.323 862.430 C 697.921 860.581, 652.618 859.629, 641.500 861.006 M 1712 864.059 C 1662.779 868.410, 1618.320 884.593, 1572.830 914.717 C 1536.771 938.597, 1498.331 974.993, 1465.861 1016 C 1427.474 1064.478, 1403.106 1115.193, 1392.585 1168.500 C 1387.951 1191.974, 1386.588 1227.736, 1389.563 1247.769 C 1396.705 1295.867, 1424.627 1321.394, 1475.150 1326.013 C 1483.994 1326.822, 1540.579 1327.029, 1674.500 1326.742 C 1839.828 1326.387, 1863.032 1326.151, 1874.715 1324.707 C 1919.767 1319.139, 1949.781 1309.496, 1976 1292.167 C 1986.374 1285.310, 2001.983 1269.965, 2008.213 1260.500 C 2017.968 1245.678, 2025.004 1228.115, 2028.444 1210 C 2030.745 1197.887, 2032.293 1172.467, 2031.550 1159 C 2027.209 1080.305, 1994.920 1011.621, 1933.533 950.500 C 1884.175 901.357, 1829.010 873.003, 1768 865.418 C 1753.035 863.558, 1725.285 862.884, 1712 864.059 M 0.462 1200 C 0.462 1226.125, 0.591 1236.813, 0.749 1223.750 C 0.907 1210.688, 0.907 1189.313, 0.749 1176.250 C 0.591 1163.188, 0.462 1173.875, 0.462 1200 M 1130.379 1256.750 C 1064.557 1331.609, 1033.532 1447.025, 1036.363 1606.500 C 1037.430 1666.562, 1041.583 1703.299, 1050.053 1727.602 C 1053.659 1737.947, 1058.755 1747.005, 1060.961 1746.989 C 1065.391 1746.958, 1085.545 1739.524, 1103.410 1731.333 C 1120.682 1723.413, 1126.503 1722.302, 1157.975 1720.920 C 1192.575 1719.402, 1215.495 1721.549, 1244.774 1729.052 C 1260.836 1733.169, 1288.536 1742.596, 1306.077 1749.917 C 1314.095 1753.262, 1321.935 1756, 1323.499 1756 C 1327.743 1756, 1333.881 1749.068, 1337.231 1740.491 C 1348.128 1712.591, 1351.932 1663.095, 1351.980 1548.584 L 1352 1500.669 1346.333 1490.084 C 1328.085 1456.004, 1309.666 1418.715, 1307.299 1411.061 C 1300.350 1388.587, 1283.793 1344.792, 1268.526 1308.500 C 1259.778 1287.707, 1244.862 1253.697, 1244.097 1252.799 C 1243.610 1252.229, 1211.482 1590.625, 1209.491 1617.292 C 1208.610 1629.082, 1205.803 1637.042, 1200.991 1641.389 C 1197.467 1644.573, 1196.374 1644.999, 1191.747 1644.994 C 1184.974 1644.987, 1179.613 1643.468, 1176.608 1640.703 C 1174.230 1638.515, 1174.188 1638.115, 1170.568 1583 C 1162.893 1466.176, 1155.801 1371.343, 1153.969 1361.066 C 1153.430 1358.044, 1153 1333.616, 1153 1306.013 L 1153 1256.392 1149.750 1253.258 C 1146.578 1250.198, 1142.281 1248, 1139.472 1248 C 1138.702 1248, 1134.611 1251.938, 1130.379 1256.750" stroke="none" fill="#cbc3bb" fill-rule="evenodd"/><path d="M 1166 186.678 C 1114.693 187.796, 1038.016 194.519, 951.478 205.486 C 921.717 209.258, 907.257 212.031, 885.778 218.089 C 842.729 230.230, 770.667 258.027, 730.500 277.985 C 691.811 297.209, 672.054 312.978, 667.518 328.253 C 664.745 337.591, 667.997 394.094, 673.058 424.500 C 680.580 469.686, 694.624 506.487, 713.366 530.117 C 717.813 535.724, 731.608 547.693, 767.500 577.085 C 822.821 622.387, 878.666 663.963, 917.139 688.491 C 925.588 693.878, 932.950 698.696, 933.500 699.199 C 934.639 700.239, 932.567 699.503, 857 672.016 C 749.615 632.955, 760.891 636.495, 695.500 621.313 C 663.600 613.906, 637.194 607.543, 636.820 607.173 C 635.977 606.339, 625.781 567.336, 613.921 519.582 C 604.514 481.707, 591.573 424.518, 587.992 405 C 586.832 398.675, 585.688 392.912, 585.451 392.194 C 584.981 390.769, 571.521 401.606, 546.500 423.554 C 444.930 512.652, 367.140 612.144, 313.545 721.500 C 267.671 815.101, 239.685 914.500, 229.076 1021.500 C 225.293 1059.657, 224.549 1075.946, 224.577 1120 C 224.606 1165.601, 225.612 1182.880, 230.105 1215 C 239.074 1279.105, 258.334 1330.772, 288.205 1370.854 C 296.865 1382.475, 317.483 1403.358, 328.500 1411.667 C 348.481 1426.737, 367.940 1437.077, 392.229 1445.532 C 407.308 1450.780, 417.251 1453.089, 474.355 1464.598 C 572.983 1484.477, 725.236 1517.467, 726.485 1519.230 C 749.755 1552.080, 770.145 1587.156, 775.040 1602.759 C 778.245 1612.975, 777.941 1618.715, 773.548 1631 C 765.701 1652.944, 767.076 1638.450, 753.432 1842.959 C 741.586 2020.522, 740.880 2032.868, 741.310 2055 C 742.057 2093.504, 747.632 2116.981, 762.148 2142.769 C 767.783 2152.779, 781.829 2167.132, 791.626 2172.892 C 806.093 2181.396, 823.488 2187.302, 843.617 2190.543 C 856.535 2192.623, 884.450 2194.060, 890.322 2192.947 C 896.358 2191.803, 900.681 2188.794, 901.399 2185.236 C 901.703 2183.731, 903.779 2167.875, 906.014 2150 C 908.249 2132.125, 911.272 2110.300, 912.731 2101.500 C 914.767 2089.228, 915.388 2082.005, 915.397 2070.500 C 915.408 2056.053, 915.181 2054.376, 909.228 2025 C 905.829 2008.225, 902.577 1990.588, 902.003 1985.807 L 900.958 1977.115 918.027 1922.807 C 927.415 1892.938, 935.564 1867.024, 936.136 1865.220 L 937.175 1861.940 949.253 1862.220 L 961.332 1862.500 975.194 1913.500 C 1000.865 2007.947, 1021.754 2090.255, 1032.588 2139.648 L 1036.350 2156.797 1054.751 2157.523 C 1073.086 2158.247, 1137.531 2157.805, 1138.381 2156.950 C 1138.627 2156.702, 1146.759 2093.950, 1156.452 2017.500 C 1166.145 1941.050, 1174.292 1877.487, 1174.557 1876.250 L 1175.038 1874 1200.769 1874.022 C 1229.750 1874.047, 1231.655 1874.426, 1237.772 1881.393 L 1241.026 1885.100 1240.763 1992.934 L 1240.500 2100.768 1247.071 2102.884 C 1250.685 2104.048, 1254.439 2105, 1255.412 2105 C 1257.650 2105, 1326.274 2058.974, 1380.391 2021.177 L 1398.281 2008.682 1397.699 1989.091 C 1397.085 1968.439, 1395.775 1957.733, 1390.952 1933.928 C 1386.691 1912.893, 1386.996 1901.170, 1392.141 1888.250 L 1394.232 1883 1417.993 1883 L 1441.754 1883 1449.288 1902.750 C 1464.195 1941.828, 1473.990 1971.476, 1477.556 1988.315 C 1480.341 2001.463, 1479.262 2011.487, 1471.348 2045.980 C 1461.792 2087.629, 1461.863 2098.350, 1472.016 2147.524 C 1475.464 2164.221, 1486.881 2211.189, 1487.888 2212.818 C 1488.698 2214.130, 1618.471 2188.035, 1620.092 2186.235 C 1620.863 2185.378, 1628.814 2144.297, 1632.427 2122.500 C 1637.441 2092.251, 1640.352 2067.881, 1641.326 2048 C 1641.668 2041.025, 1634.247 1959.633, 1628.562 1908 C 1622.816 1855.806, 1622.853 1857.125, 1623.206 1719 L 1623.531 1591.500 1625.760 1583.500 C 1634.628 1551.665, 1658.628 1528.781, 1700.150 1512.567 C 1722.537 1503.826, 1745.667 1498.246, 1787.500 1491.494 C 1862.604 1479.372, 1939.794 1464.413, 1981.500 1453.897 C 2012.267 1446.139, 2026.190 1441.185, 2042.500 1432.190 C 2114.272 1392.607, 2157.646 1327.235, 2171.385 1237.933 C 2176.334 1205.771, 2178.990 1158.438, 2177.121 1135.744 C 2176.430 1127.360, 2175.645 1103.850, 2175.375 1083.500 C 2174.833 1042.470, 2174.707 1041.316, 2166.397 1000.782 C 2148.040 911.245, 2119.060 824.634, 2079.460 740.957 C 2046.887 672.129, 2014.858 620.688, 1954.649 540.500 C 1916.571 489.786, 1885.033 456.455, 1869.428 450.435 C 1865.388 448.877, 1865.333 448.887, 1862.291 451.729 C 1854.494 459.012, 1801.510 484.150, 1730.500 514.258 C 1667.627 540.916, 1616.069 556.994, 1574.500 562.904 C 1557.336 565.344, 1534.431 566.730, 1535.332 565.273 C 1535.677 564.714, 1542.381 560.746, 1550.229 556.453 C 1651.744 500.938, 1735.501 441.115, 1781.049 391.593 C 1787.072 385.045, 1791.975 379.420, 1791.945 379.093 C 1791.788 377.416, 1752.361 347.755, 1732.500 334.374 C 1607.058 249.857, 1456.116 201.861, 1277 189.534 C 1256.393 188.116, 1187.572 185.758, 1180.500 186.228 C 1178.850 186.338, 1172.325 186.540, 1166 186.678 M 641.500 861.006 C 599.187 866.246, 563.545 879.386, 529 902.482 C 483.614 932.825, 441.300 980.476, 414.558 1031.360 C 390.731 1076.696, 378.442 1129.531, 380.332 1178.500 C 380.998 1195.750, 382.875 1207.420, 387.162 1220.955 C 399.074 1258.568, 424.869 1284.282, 467.017 1300.560 C 498.299 1312.641, 558.532 1321.651, 630.500 1325.015 C 657.965 1326.299, 850.178 1326.276, 869 1324.987 C 903.145 1322.648, 925.901 1318.746, 948.490 1311.356 C 989.033 1298.094, 1012.264 1276.732, 1021.197 1244.500 C 1024.352 1233.115, 1024.307 1201.261, 1021.107 1180 C 1012.978 1126.001, 991.761 1076.810, 955.114 1027 C 929.756 992.534, 890.281 952.510, 856.710 927.227 C 809.503 891.674, 762.671 871.085, 709.323 862.430 C 697.921 860.581, 652.618 859.629, 641.500 861.006 M 1712 864.059 C 1662.779 868.410, 1618.320 884.593, 1572.830 914.717 C 1536.771 938.597, 1498.331 974.993, 1465.861 1016 C 1427.474 1064.478, 1403.106 1115.193, 1392.585 1168.500 C 1387.951 1191.974, 1386.588 1227.736, 1389.563 1247.769 C 1396.705 1295.867, 1424.627 1321.394, 1475.150 1326.013 C 1483.994 1326.822, 1540.579 1327.029, 1674.500 1326.742 C 1839.828 1326.387, 1863.032 1326.151, 1874.715 1324.707 C 1919.767 1319.139, 1949.781 1309.496, 1976 1292.167 C 1986.374 1285.310, 2001.983 1269.965, 2008.213 1260.500 C 2017.968 1245.678, 2025.004 1228.115, 2028.444 1210 C 2030.745 1197.887, 2032.293 1172.467, 2031.550 1159 C 2027.209 1080.305, 1994.920 1011.621, 1933.533 950.500 C 1884.175 901.357, 1829.010 873.003, 1768 865.418 C 1753.035 863.558, 1725.285 862.884, 1712 864.059 M 1130.379 1256.750 C 1064.557 1331.609, 1033.532 1447.025, 1036.363 1606.500 C 1037.430 1666.562, 1041.583 1703.299, 1050.053 1727.602 C 1053.659 1737.947, 1058.755 1747.005, 1060.961 1746.989 C 1065.391 1746.958, 1085.545 1739.524, 1103.410 1731.333 C 1120.682 1723.413, 1126.503 1722.302, 1157.975 1720.920 C 1192.575 1719.402, 1215.495 1721.549, 1244.774 1729.052 C 1260.836 1733.169, 1288.536 1742.596, 1306.077 1749.917 C 1314.095 1753.262, 1321.935 1756, 1323.499 1756 C 1327.743 1756, 1333.881 1749.068, 1337.231 1740.491 C 1348.128 1712.591, 1351.932 1663.095, 1351.980 1548.584 L 1352 1500.669 1346.333 1490.084 C 1328.085 1456.004, 1309.666 1418.715, 1307.299 1411.061 C 1300.350 1388.587, 1283.793 1344.792, 1268.526 1308.500 C 1259.778 1287.707, 1244.862 1253.697, 1244.097 1252.799 C 1243.610 1252.229, 1211.482 1590.625, 1209.491 1617.292 C 1208.610 1629.082, 1205.803 1637.042, 1200.991 1641.389 C 1197.467 1644.573, 1196.374 1644.999, 1191.747 1644.994 C 1184.974 1644.987, 1179.613 1643.468, 1176.608 1640.703 C 1174.230 1638.515, 1174.188 1638.115, 1170.568 1583 C 1162.893 1466.176, 1155.801 1371.343, 1153.969 1361.066 C 1153.430 1358.044, 1153 1333.616, 1153 1306.013 L 1153 1256.392 1149.750 1253.258 C 1146.578 1250.198, 1142.281 1248, 1139.472 1248 C 1138.702 1248, 1134.611 1251.938, 1130.379 1256.750" stroke="none" fill="#140c0c" fill-rule="evenodd"/></svg>