<?xml version="1.0" standalone="no"?>
<!DOCTYPE svg PUBLIC "-//W3C//DTD SVG 20010904//EN"
 "http://www.w3.org/TR/2001/REC-SVG-20010904/DTD/svg10.dtd">
<svg version="1.0" xmlns="http://www.w3.org/2000/svg"
 width="250.000000pt" height="191.000000pt" viewBox="0 0 250.000000 191.000000"
 preserveAspectRatio="xMidYMid meet">

<g transform="translate(0.000000,191.000000) scale(0.100000,-0.100000)"
fill="#000000" stroke="none">
<path d="M1244 1881 c-44 -20 -78 -60 -89 -104 -6 -23 -11 -25 -36 -20 -22 4
-34 1 -45 -13 -9 -11 -13 -12 -9 -4 4 8 -1 6 -9 -4 -21 -27 -20 -59 4 -98 26
-43 25 -60 -6 -89 -21 -20 -25 -31 -22 -66 3 -45 -9 -56 -32 -28 -12 14 -11
32 6 112 5 25 2 33 -14 42 -17 9 -26 7 -49 -14 l-28 -25 32 17 c47 26 61 8 34
-45 -12 -23 -21 -54 -21 -69 0 -62 56 -96 112 -68 17 8 33 14 34 12 3 -2 -69
-114 -81 -125 -2 -2 -17 6 -34 19 -26 19 -34 21 -56 11 -16 -8 -25 -19 -24
-34 l0 -23 9 23 c5 12 18 22 28 22 23 0 122 -92 122 -114 0 -22 -36 -20 -59 3
-19 19 -20 19 -26 2 -3 -10 -3 -26 1 -35 8 -21 -12 -21 -61 0 -52 22 -58 10
-20 -42 13 -17 13 -23 2 -32 -9 -8 -24 -6 -55 8 -52 24 -61 11 -23 -32 l30
-34 -21 -33 c-20 -31 -20 -37 -9 -97 11 -56 11 -69 -4 -109 -16 -41 -22 -46
-68 -60 -66 -20 -150 -19 -193 1 -36 17 -68 53 -150 171 -62 89 -123 156 -174
189 l-37 25 -68 -17 c-75 -19 -109 -47 -125 -104 -18 -64 -12 -113 20 -163 28
-45 48 -63 37 -33 -3 8 1 40 9 71 9 32 12 61 7 64 -4 3 -9 12 -11 20 -2 11 0
12 11 2 12 -9 16 -8 20 3 12 30 63 47 109 37 34 -8 56 -23 105 -75 34 -35 79
-91 100 -122 33 -51 49 -63 123 -101 101 -51 171 -64 220 -39 42 20 40 21 40
-11 0 -34 23 -70 70 -110 45 -38 62 -44 99 -33 25 7 30 5 35 -13 7 -28 -6 -41
-73 -77 -71 -38 -221 -151 -260 -196 -33 -37 -57 -103 -48 -128 7 -17 87 -24
87 -8 0 27 201 242 226 242 3 0 -3 -12 -14 -28 -31 -44 -61 -120 -68 -173 l-7
-50 129 5 c71 2 129 5 129 5 0 1 41 3 90 6 106 5 171 13 205 25 14 5 36 9 50
8 14 0 62 6 107 14 98 18 126 42 119 96 l-5 32 62 -34 c34 -19 98 -53 142 -74
44 -22 89 -49 99 -61 26 -29 47 -26 73 10 l21 32 -26 21 c-15 12 -47 35 -72
51 -25 16 -67 46 -93 67 -27 20 -65 42 -85 48 -20 5 -64 26 -97 45 l-60 34 39
1 c76 0 198 83 211 142 10 45 -33 107 -143 202 -53 47 -103 95 -111 107 -13
22 -13 22 -27 -10 -24 -57 -18 -76 40 -133 30 -29 73 -64 96 -78 23 -14 51
-33 63 -42 22 -17 22 -17 2 -33 -66 -52 -99 -67 -139 -63 -89 10 -199 86 -151
105 16 6 65 85 65 105 0 8 -13 22 -30 31 -16 10 -30 23 -30 28 0 6 5 7 11 3 6
-3 5 4 -2 17 -8 13 -14 29 -15 34 0 6 -16 41 -34 79 -26 52 -31 71 -21 74 55
18 68 93 25 139 -24 25 -25 25 -15 5 11 -21 9 -28 -19 -63 -17 -22 -36 -53
-42 -70 -7 -20 -15 -28 -25 -25 -8 3 -24 6 -35 6 -17 0 -18 3 -8 15 7 8 19 15
26 15 17 0 18 12 2 29 -11 11 -10 13 5 7 34 -11 38 5 11 40 -20 26 -24 38 -16
46 8 8 15 8 27 -2 13 -11 14 -10 9 4 -3 9 -10 16 -16 16 -5 0 -6 5 -3 10 10
16 25 12 25 -7 0 -25 11 -8 15 23 1 16 14 36 29 47 14 10 26 25 26 32 0 7 7
15 15 19 18 6 19 1 5 -24 -7 -13 -7 -21 0 -25 5 -3 10 -1 10 5 0 7 9 9 23 5
17 -5 19 -4 7 5 -13 9 -12 12 4 25 52 40 96 -6 97 -100 1 -62 13 -64 30 -3 12
44 5 96 -17 139 -12 25 -12 27 8 32 18 5 20 11 15 44 -5 31 -3 41 13 51 16 10
21 9 29 -7 6 -10 7 -22 3 -27 -4 -5 -1 -4 6 2 11 9 11 16 3 33 -9 17 -6 30 19
77 37 69 37 78 4 140 -36 67 -45 103 -33 126 5 10 15 15 21 12 7 -4 8 -3 4 4
-10 17 -36 2 -42 -25 -7 -27 20 -128 36 -138 6 -4 10 -18 10 -32 l0 -26 -21
27 c-13 16 -30 26 -47 26 -32 0 -82 56 -82 92 0 37 -34 83 -77 104 -22 11 -38
25 -36 31 3 7 -7 19 -22 29 -20 13 -31 15 -50 6 -18 -9 -31 -7 -61 9 -47 23
-58 23 -110 0z m-123 -208 c-5 -10 -12 -27 -16 -37 -3 -10 -8 -16 -11 -14 -3
3 2 23 11 43 8 21 18 36 21 33 3 -4 1 -14 -5 -25z m144 -63 c-3 -5 -13 -10
-21 -10 -8 0 -14 5 -14 10 0 6 9 10 21 10 11 0 17 -4 14 -10z m-125 -30 c0 -5
-7 -10 -16 -10 -8 0 -12 5 -9 10 3 6 10 10 16 10 5 0 9 -4 9 -10z m574 -23 c7
-19 6 -31 -2 -39 -17 -17 -42 8 -42 44 0 38 30 35 44 -5z m-608 -24 c-10 -10
-19 5 -10 18 6 11 8 11 12 0 2 -7 1 -15 -2 -18z m580 -62 c-10 -15 -65 -31
-71 -20 -4 5 3 9 14 9 11 0 23 5 26 10 3 6 13 10 21 10 8 0 13 -4 10 -9z m-31
-91 c11 -17 -5 -32 -21 -19 -8 6 -14 15 -14 20 0 12 27 11 35 -1z m-181 -45
c-10 -8 -26 -14 -34 -15 -8 0 -4 6 10 14 34 19 48 20 24 1z m93 -21 c-3 -3
-12 -4 -19 -1 -8 3 -5 6 6 6 11 1 17 -2 13 -5z m40 -20 c-3 -3 -12 -4 -19 -1
-8 3 -5 6 6 6 11 1 17 -2 13 -5z m-487 -29 c0 -8 -9 -15 -20 -15 -20 0 -26 11
-13 23 12 13 33 7 33 -8z m288 -56 c-3 -8 -7 -3 -11 10 -4 17 -3 21 5 13 5 -5
8 -16 6 -23z m-43 -19 c3 -6 -1 -7 -9 -4 -18 7 -21 14 -7 14 6 0 13 -4 16 -10z
m-91 -45 c-4 -8 -10 -15 -15 -15 -4 0 -6 7 -3 15 4 8 10 15 15 15 4 0 6 -7 3
-15z m31 -35 c-5 -8 -11 -8 -17 -2 -6 6 -7 16 -3 22 5 8 11 8 17 2 6 -6 7 -16
3 -22z m-240 -10 c13 -6 15 -9 5 -9 -8 0 -22 4 -30 9 -18 12 -2 12 25 0z m95
-9 c0 -6 -4 -13 -10 -16 -5 -3 -10 1 -10 9 0 9 5 16 10 16 6 0 10 -4 10 -9z
m34 -15 c-6 -16 -24 -23 -24 -8 0 10 22 33 27 28 2 -2 1 -11 -3 -20z m82 -1
c-3 -9 -11 -13 -16 -10 -8 5 -7 11 1 21 14 18 24 11 15 -11z m84 16 c0 -5 -9
-11 -20 -14 -14 -4 -20 -14 -21 -34 l-1 -28 -10 28 c-5 15 -7 34 -4 42 6 16
56 21 56 6z m-72 -66 c-2 -10 -8 -12 -17 -6 -12 8 -12 11 0 24 15 16 23 8 17
-18z m-107 -2 c-8 -15 -10 -15 -11 -2 0 17 10 32 18 25 2 -3 -1 -13 -7 -23z
m-191 7 c12 -8 11 -10 -7 -10 -12 0 -25 5 -28 10 -8 13 15 13 35 0z m70 -9 c0
-4 -11 -6 -25 -3 -14 2 -25 6 -25 8 0 2 11 4 25 4 14 0 25 -4 25 -9z m85 -19
c-3 -3 -11 0 -18 7 -9 10 -8 11 6 5 10 -3 15 -9 12 -12z m141 -14 l19 -21 -27
18 c-29 18 -34 25 -20 25 5 0 17 -10 28 -22z m-169 -50 c10 -13 29 -24 43 -26
14 -1 32 -9 40 -18 12 -12 8 -11 -19 2 -27 13 -36 14 -39 5 -4 -13 -62 35 -62
51 0 15 19 8 37 -14z m273 -3 c0 -8 -4 -15 -10 -15 -5 0 -10 7 -10 15 0 8 5
15 10 15 6 0 10 -7 10 -15z m-1328 -20 c3 -13 1 -22 -3 -19 -9 5 -13 44 -5 44
2 0 6 -11 8 -25z m878 -7 c0 -13 -23 -5 -28 10 -2 7 2 10 12 6 9 -3 16 -11 16
-16z m276 -63 c25 -13 26 -15 8 -15 -12 0 -27 7 -34 15 -16 19 -10 19 26 0z
m-11 -35 c13 -5 14 -9 5 -9 -8 0 -24 4 -35 9 -13 5 -14 9 -5 9 8 0 24 -4 35
-9z m-40 -30 c3 -5 -1 -10 -9 -10 -8 0 -18 5 -21 10 -3 6 1 10 9 10 8 0 18 -4
21 -10z m85 -70 c0 -5 -7 -7 -15 -4 -8 4 -12 10 -9 15 6 11 24 2 24 -11z
m-339 -76 c9 -11 8 -14 -4 -14 -22 0 -37 31 -36 72 l0 33 15 -39 c8 -21 19
-45 25 -52z"/>
<path d="M887 1569 c7 -7 15 -10 18 -7 3 3 -2 9 -12 12 -14 6 -15 5 -6 -5z"/>
<path d="M1661 1026 c-6 -7 -10 -29 -9 -47 2 -24 -1 -33 -10 -31 -8 1 -12 -3
-10 -10 3 -7 11 -13 19 -13 10 0 13 12 12 45 -1 25 3 47 10 52 6 4 9 10 6 13
-4 3 -11 -1 -18 -9z"/>
</g>
</svg>
